<svg xmlns="http://www.w3.org/2000/svg" width="360.629" height="43.418" viewBox="0 0 360.629 43.418">
  <g id="Group_22" data-name="Group 22" transform="translate(-128.56 -42.163)">
    <path id="Path_32" data-name="Path 32" d="M128.56,76.44V73.672l3.582-.615v-25.2l-3.582-.615V44.448h24.565v7.691h-3.713l-.351-4.285H136.47V58.2h12.239v3.406H136.47V73.057h12.854l.352-4.285h3.691V76.44Z" fill="#fff"/>
    <path id="Path_33" data-name="Path 33" d="M158.184,73.672l2.548-.5,7.01-8.746-6.79-8.459-2.549-.505V52.666h9.317v2.791l-2.154.263,4.439,5.713,4.46-5.735-2.131-.241V52.666h9.382v2.791l-2.549.505-6.789,8.459,6.987,8.746,2.571.5V76.44H172.62V73.672l2.109-.242-4.658-5.976-4.658,5.976,2.131.242V76.44h-9.36Z" fill="#fff"/>
    <path id="Path_34" data-name="Path 34" d="M185.566,82.791l3.581-.616v-26.1l-3.581-.615V52.666h7.295l.4,2.9a8.005,8.005,0,0,1,2.89-2.483,8.665,8.665,0,0,1,3.944-.856,7.9,7.9,0,0,1,6.866,3.5q2.45,3.506,2.45,9.262v.461a13.1,13.1,0,0,1-2.461,8.295,8.134,8.134,0,0,1-6.789,3.153,9.44,9.44,0,0,1-3.856-.736,7.453,7.453,0,0,1-2.824-2.187v8.2l3.582.616v2.79H185.566Zm19.49-17.8a12.626,12.626,0,0,0-1.582-6.658,5.161,5.161,0,0,0-4.7-2.593,5.8,5.8,0,0,0-3.164.835,6.3,6.3,0,0,0-2.131,2.285v11.58a5.657,5.657,0,0,0,5.339,3.076,5.338,5.338,0,0,0,4.659-2.241,9.883,9.883,0,0,0,1.582-5.823Z" fill="#fff"/>
    <path id="Path_35" data-name="Path 35" d="M225.319,76.9a10.026,10.026,0,0,1-7.9-3.307,12.446,12.446,0,0,1-2.934-8.58v-.967a12.186,12.186,0,0,1,3.022-8.448,9.3,9.3,0,0,1,7.152-3.373q4.789,0,7.262,2.9a11.527,11.527,0,0,1,2.472,7.734v2.7H218.969l-.066.11a9.393,9.393,0,0,0,1.736,5.636,5.529,5.529,0,0,0,4.68,2.208,10.876,10.876,0,0,0,3.856-.626,8.855,8.855,0,0,0,2.867-1.725l1.692,2.812a10.366,10.366,0,0,1-3.373,2.077A13.474,13.474,0,0,1,225.319,76.9Zm-.659-21.27a4.69,4.69,0,0,0-3.714,1.835,8.693,8.693,0,0,0-1.889,4.6l.044.11h10.964v-.571a6.639,6.639,0,0,0-1.362-4.263A4.856,4.856,0,0,0,224.66,55.632Z" fill="#fff"/>
    <path id="Path_36" data-name="Path 36" d="M239.144,73.672l3.582-.615V56.072l-3.582-.615V52.666h7.449L246.9,56.2a8.629,8.629,0,0,1,2.977-2.933,7.945,7.945,0,0,1,4.077-1.044,7.76,7.76,0,0,1,5.954,2.252q2.109,2.251,2.11,6.954V73.057l3.581.615V76.44H254.107V73.672l3.582-.615V61.521q0-3.143-1.241-4.46a4.976,4.976,0,0,0-3.791-1.319,6.1,6.1,0,0,0-3.307.9,6.583,6.583,0,0,0-2.3,2.461V73.057l3.582.615V76.44H239.144Z" fill="#fff"/>
    <path id="Path_37" data-name="Path 37" d="M288.06,60.137h-3.252l-.7-2.857a5.844,5.844,0,0,0-1.989-1.2,7.668,7.668,0,0,0-2.713-.451,4.988,4.988,0,0,0-3.427,1.011,3.17,3.17,0,0,0-1.121,2.439,2.719,2.719,0,0,0,.989,2.219,10.236,10.236,0,0,0,4.02,1.45,17.323,17.323,0,0,1,6.7,2.626,5.292,5.292,0,0,1,2.2,4.45,6.14,6.14,0,0,1-2.561,5.119,10.72,10.72,0,0,1-6.69,1.956,17.367,17.367,0,0,1-4.856-.627,12.907,12.907,0,0,1-3.845-1.812l-.022-5.427h3.252l.813,3.186a4.517,4.517,0,0,0,2.032.988,11.194,11.194,0,0,0,2.626.308,6.12,6.12,0,0,0,3.614-.934,2.877,2.877,0,0,0,1.308-2.45,2.948,2.948,0,0,0-1.088-2.351,10.226,10.226,0,0,0-4.119-1.6,17.308,17.308,0,0,1-6.527-2.571,5.182,5.182,0,0,1-2.2-4.394,6.207,6.207,0,0,1,2.472-4.944,9.76,9.76,0,0,1,6.427-2.043,15.6,15.6,0,0,1,4.856.7,10.111,10.111,0,0,1,3.582,1.955Z" fill="#fff"/>
    <path id="Path_38" data-name="Path 38" d="M304.785,76.9a10.028,10.028,0,0,1-7.9-3.307,12.446,12.446,0,0,1-2.934-8.58v-.967a12.186,12.186,0,0,1,3.022-8.448,9.3,9.3,0,0,1,7.152-3.373q4.789,0,7.262,2.9a11.527,11.527,0,0,1,2.471,7.734v2.7H298.435l-.066.11A9.4,9.4,0,0,0,300.1,71.31a5.533,5.533,0,0,0,4.681,2.208,10.876,10.876,0,0,0,3.856-.626,8.87,8.87,0,0,0,2.868-1.725l1.691,2.812a10.356,10.356,0,0,1-3.373,2.077A13.47,13.47,0,0,1,304.785,76.9Zm-.659-21.27a4.69,4.69,0,0,0-3.714,1.835,8.7,8.7,0,0,0-1.89,4.6l.044.11h10.965v-.571a6.639,6.639,0,0,0-1.362-4.263A4.855,4.855,0,0,0,304.126,55.632Z" fill="#fff"/>
    <path id="Path_39" data-name="Path 39" d="M346.691,44.448v8.526H341.77l-.264-3.582h-5.889V71.936l3.428.659V76.44H325.773V72.6l3.428-.659V49.392h-5.867l-.264,3.582h-4.9V44.448Z" fill="#fff"/>
    <path id="Path_40" data-name="Path 40" d="M349.112,72.6l3.076-.659V57.192l-3.4-.659V52.666h9.382l.286,3.472a7.5,7.5,0,0,1,2.153-2.879,4.815,4.815,0,0,1,3.054-1.032,7.756,7.756,0,0,1,1.067.077,6.536,6.536,0,0,1,.933.186l-.681,5.845-2.637-.066a4.493,4.493,0,0,0-2.329.549,3.566,3.566,0,0,0-1.407,1.56V71.936l3.077.659V76.44H349.112Z" fill="#fff"/>
    <path id="Path_41" data-name="Path 41" d="M383.395,76.44a11.284,11.284,0,0,1-.462-1.219,9.559,9.559,0,0,1-.308-1.263,8.843,8.843,0,0,1-2.779,2.131,8.315,8.315,0,0,1-3.746.813,7.844,7.844,0,0,1-5.548-1.9,6.7,6.7,0,0,1-2.055-5.174,5.884,5.884,0,0,1,2.681-5.164q2.68-1.824,7.866-1.824h3.273V60.51a3.5,3.5,0,0,0-.988-2.658,4.078,4.078,0,0,0-2.923-.945,6.935,6.935,0,0,0-1.955.252,5.129,5.129,0,0,0-1.385.6l-.417,2.549h-4.834l.022-5.274a18.033,18.033,0,0,1,4.032-2,14.624,14.624,0,0,1,4.955-.813A11.28,11.28,0,0,1,386,54.391a7.378,7.378,0,0,1,2.758,6.163v9.822c0,.366,0,.71.011,1.033a7.1,7.1,0,0,0,.077.923l1.955.263V76.44Zm-5.56-4.284a5.556,5.556,0,0,0,2.637-.627,5.079,5.079,0,0,0,1.845-1.571V66.333h-3.273a4.469,4.469,0,0,0-3.1.956,2.991,2.991,0,0,0-1.054,2.3,2.374,2.374,0,0,0,.78,1.89A3.179,3.179,0,0,0,377.835,72.156Z" fill="#fff"/>
    <path id="Path_42" data-name="Path 42" d="M405.262,71.98a3.78,3.78,0,0,0,2.746-1,3.545,3.545,0,0,0,1.033-2.669h5.8l.065.131a7.417,7.417,0,0,1-2.7,6.032,10.2,10.2,0,0,1-6.943,2.428q-5.317,0-8.2-3.362a12.809,12.809,0,0,1-2.878-8.635v-.659a12.648,12.648,0,0,1,2.956-8.636q2.953-3.384,8.426-3.383a14.628,14.628,0,0,1,5.163.856,10.212,10.212,0,0,1,3.8,2.417l.088,6.351h-5.208l-1.055-3.714a4.047,4.047,0,0,0-1.186-.692,4.385,4.385,0,0,0-1.6-.275,4.052,4.052,0,0,0-3.845,1.978,10.266,10.266,0,0,0-1.12,5.1V64.9a10.94,10.94,0,0,0,1.032,5.13A3.749,3.749,0,0,0,405.262,71.98Z" fill="#fff"/>
    <path id="Path_43" data-name="Path 43" d="M418.252,46.03V42.163h9.821V62.026H429.5l3.69-5.207-2.087-.286V52.666h11.689v3.867l-2.813.637L435.7,63.059l6,9.031,2.44.505V76.44H433.149V72.6l1.319-.22-3.648-5.888h-2.747v5.449l2.769.659V76.44H418.581V72.6l3.1-.659V46.689Z" fill="#fff"/>
    <path id="Path_44" data-name="Path 44" d="M458.444,76.9a10.7,10.7,0,0,1-8.216-3.3,11.781,11.781,0,0,1-3.077-8.372v-.879a13,13,0,0,1,2.911-8.723,10.857,10.857,0,0,1,15.283-.505A11.167,11.167,0,0,1,468,62.971v3.494H453.809l-.044.132a6.2,6.2,0,0,0,1.571,3.867,4.9,4.9,0,0,0,3.79,1.516,12.361,12.361,0,0,0,3.537-.428,16.281,16.281,0,0,0,3.076-1.352l1.737,3.955a12.631,12.631,0,0,1-3.813,1.956A16.236,16.236,0,0,1,458.444,76.9Zm-.57-19.732a3.338,3.338,0,0,0-2.812,1.363,7.077,7.077,0,0,0-1.276,3.581l.067.11h7.866v-.571a5.149,5.149,0,0,0-.956-3.263A3.446,3.446,0,0,0,457.874,57.17Z" fill="#fff"/>
    <path id="Path_45" data-name="Path 45" d="M472.644,72.6l3.076-.659V57.192l-3.406-.659V52.666H481.7l.286,3.472a7.489,7.489,0,0,1,2.154-2.879,4.813,4.813,0,0,1,3.054-1.032,7.753,7.753,0,0,1,1.066.077,6.536,6.536,0,0,1,.933.186l-.68,5.845-2.637-.066a4.5,4.5,0,0,0-2.33.549,3.559,3.559,0,0,0-1.406,1.56V71.936l3.076.659V76.44H472.644Z" fill="#fff"/>
  </g>
</svg>
