<?xml version="1.0" encoding="utf-8"?>
<!-- Generator: Adobe Illustrator 25.2.1, SVG Export Plug-In . SVG Version: 6.00 Build 0)  -->
<svg version="1.1" id="Layer_1" xmlns="http://www.w3.org/2000/svg" xmlns:xlink="http://www.w3.org/1999/xlink" x="0px" y="0px"
	 viewBox="0 0 487 406" style="enable-background:new 0 0 487 406;" xml:space="preserve">
<style type="text/css">
	.st0{fill:#EBEBEB;}
	.st1{fill:#E6E6E6;}
	.st2{fill:#F0F0F0;}
	.st3{fill:#FAFAFA;}
	.st4{fill:#FFFFFF;}
	.st5{opacity:0.4;}
	.st6{fill:#E0E0E0;}
	.st7{fill:#F5F5F5;}
	.st8{opacity:0.7;fill:#E6E6E6;enable-background:new    ;}
	.st9{fill:#263238;}
	.st10{fill:#FF8B7B;}
	.st11{opacity:0.2;enable-background:new    ;}
	.st12{fill:#24545E;}
	.st13{opacity:0.15;fill:#FAFAFA;enable-background:new    ;}
	.st14{fill:#20CC94;}
	.st15{fill:#FF5652;}
	.st16{opacity:0.2;fill:#FFFFFF;enable-background:new    ;}
	.st17{opacity:0.1;enable-background:new    ;}
</style>
<g id="freepik--background-complete--inject-1--inject-123">
	<rect x="-13" y="352.4" class="st0" width="500" height="0.2"/>
	<rect x="383.8" y="368.5" class="st0" width="53.1" height="0.2"/>
	<rect x="259.6" y="365.4" class="st0" width="58.7" height="0.2"/>
	<rect x="367.2" y="363.9" class="st0" width="19.2" height="0.2"/>
	<rect x="87.5" y="360.9" class="st0" width="43.2" height="0.2"/>
	<rect x="66.5" y="360.9" class="st0" width="15.4" height="0.2"/>
	<rect x="118.5" y="365.1" class="st0" width="54.2" height="0.2"/>
	<rect x="264.7" y="38" class="st1" width="142.2" height="133"/>
	<rect x="265.7" y="38" class="st2" width="148.8" height="133"/>
	<rect x="264.7" y="171" class="st1" width="142.2" height="6.6"/>
	<rect x="278.5" y="171" class="st2" width="148.8" height="6.6"/>
	<rect x="276.5" y="48.8" class="st3" width="127.3" height="111.5"/>
	<polygon class="st4" points="297,160.3 310.1,48.7 355.2,48.7 342,160.3 	"/>
	<rect x="402.4" y="48.7" class="st1" width="1.4" height="111.6"/>
	<g class="st5">
		<polygon class="st6" points="417.1,49.9 272.4,49.9 271.4,46.7 416.1,46.7 		"/>
		<polygon class="st6" points="417.1,55.3 272.4,55.3 271.4,52.1 416.1,52.1 		"/>
		<polygon class="st6" points="417.1,60.8 272.4,60.8 271.4,57.5 416.1,57.5 		"/>
		<polygon class="st6" points="417.1,66.2 272.4,66.2 271.4,62.9 416.1,62.9 		"/>
		<polygon class="st6" points="417.1,71.6 272.4,71.6 271.4,68.4 416.1,68.4 		"/>
		<polygon class="st6" points="417.1,77.1 272.4,77.1 271.4,73.8 416.1,73.8 		"/>
		<polygon class="st6" points="417.1,82.5 272.4,82.5 271.4,79.2 416.1,79.2 		"/>
		<polygon class="st6" points="417.1,87.9 272.4,87.9 271.4,84.7 416.1,84.7 		"/>
		<polygon class="st6" points="417.1,93.3 272.4,93.3 271.4,90.1 416.1,90.1 		"/>
		<polygon class="st6" points="417.1,98.8 272.4,98.8 271.4,95.5 416.1,95.5 		"/>
		<polygon class="st6" points="417.1,104.2 272.4,104.2 271.4,100.9 416.1,100.9 		"/>
		<polygon class="st6" points="417.1,109.6 272.4,109.6 271.4,106.4 416.1,106.4 		"/>
		<polygon class="st6" points="417.1,115.1 272.4,115.1 271.4,111.8 416.1,111.8 		"/>
		<polygon class="st6" points="417.1,120.5 272.4,120.5 271.4,117.2 416.1,117.2 		"/>
		<polygon class="st6" points="417.1,125.9 272.4,125.9 271.4,122.7 416.1,122.7 		"/>
		<polygon class="st6" points="417.1,131.4 272.4,131.4 271.4,128.1 416.1,128.1 		"/>
		<polygon class="st6" points="417.1,136.8 272.4,136.8 271.4,133.5 416.1,133.5 		"/>
		<polygon class="st6" points="417.1,142.2 272.4,142.2 271.4,139 416.1,139 		"/>
	</g>
	<rect x="68.1" y="41.6" class="st1" width="117.6" height="116.7"/>
	<rect x="69.3" y="41.6" class="st2" width="122.8" height="116.7"/>
	<rect x="74.9" y="47.3" class="st4" width="111.4" height="105.4"/>
	<rect x="185.7" y="47.3" class="st1" width="0.7" height="105.4"/>
	<rect x="63.3" y="214.6" class="st2" width="31.9" height="131.6"/>
	<rect x="69.4" y="346.2" class="st2" width="122.7" height="6.2"/>
	<rect x="95.2" y="214.6" class="st7" width="103" height="131.6"/>
	<rect x="107.8" y="264.4" class="st2" width="77.9" height="32.1"/>
	<rect x="107.8" y="302.3" class="st2" width="77.9" height="32.1"/>
	<rect x="107.8" y="226.4" class="st2" width="77.9" height="32.1"/>
	<rect x="95.2" y="203.8" class="st2" width="107.2" height="10.8"/>
	<rect x="58.9" y="203.8" class="st1" width="36.4" height="10.8"/>
	<rect x="75.6" y="180.6" class="st2" width="31.8" height="23.2"/>
	<rect x="107.3" y="180.6" class="st7" width="56.3" height="23.2"/>
	<rect x="75.6" y="185.5" class="st8" width="88.4" height="2.6"/>
	<rect x="73.8" y="179" class="st2" width="33.5" height="7.6"/>
	<rect x="107.3" y="179" class="st7" width="58.1" height="7.6"/>
	<polygon class="st2" points="415.3,203.8 308,203.8 319.7,352.4 427,352.4 	"/>
	<polygon class="st7" points="420.9,203.8 313.6,203.8 325.2,352.4 432.5,352.4 	"/>
	<polygon class="st4" points="344.4,331.7 336,224.6 401.7,224.6 410.1,331.7 	"/>
	<circle class="st1" cx="306.5" cy="327.6" r="24.8"/>
	<path class="st8" d="M318.6,312.9c-1.5-1.5-2.1-3.4-1.3-4.1s2.5-0.1,4,1.5s2.1,3.4,1.3,4.1S320.1,314.4,318.6,312.9z"/>
	<path class="st8" d="M308.3,308.2c-2.1-0.4-3.6-1.5-3.4-2.6s2-1.5,4.1-1.1s3.6,1.5,3.4,2.6S310.4,308.6,308.3,308.2z"/>
	<path class="st8" d="M310.4,316.9c-2-0.7-3.3-2.3-2.8-3.5s2.4-1.6,4.4-1s3.3,2.3,2.8,3.5S312.5,317.6,310.4,316.9z"/>
</g>
<g id="freepik--Shadow--inject-1--inject-123">
	<ellipse id="freepik--path--inject-1--inject-123" class="st7" cx="237" cy="386.2" rx="193.9" ry="11.3"/>
</g>
<g id="freepik--Character--inject-1--inject-123">
	<path class="st9" d="M194.3,129.2c-12.7-4.4-7.6-40.2-38.2-21c-6.9,4.4-15.3,33-9.5,39.6C154.8,157.1,209.3,134.4,194.3,129.2z"/>
	<path class="st10" d="M158.6,163.1c-0.2,0.5-0.4,0.7-0.6,1.1l-0.6,0.9c-0.4,0.6-0.8,1.2-1.2,1.8c-0.9,1.1-1.8,2.2-2.8,3.3
		c-2,2.1-4.3,4-6.8,5.5c-2.6,1.6-5.4,2.7-8.4,3.3c-1.5,0.3-3,0.5-4.5,0.5c-0.8,0-1.5,0-2.3-0.1l-1.1-0.1l-0.6-0.1l-0.8-0.1
		c-1.9-0.5-3.6-1.4-5-2.7c-1.1-1.1-2.1-2.3-3-3.6c-1.5-2.3-2.7-4.8-3.7-7.4c-1.8-4.9-3.1-10.1-3.9-15.3l4.3-1
		c1.6,4.6,3.5,9.1,5.6,13.5c1,2,2.2,4,3.6,5.8c0.6,0.8,1.3,1.4,2,2.1c0.5,0.4,1,0.7,1.6,0.8l1.3,0.1c0.5,0,1,0,1.5-0.1
		c1-0.1,2-0.2,3-0.5c2-0.5,3.9-1.4,5.6-2.5c1.8-1.2,3.4-2.6,4.9-4.2c0.8-0.8,1.5-1.6,2.1-2.5c0.3-0.4,0.6-0.9,0.9-1.3l0.4-0.7
		l0.4-0.6L158.6,163.1z"/>
	<path class="st9" d="M161,152.7c-9,0-16.1,8.3-16.1,8.3l11,14.8c0,0,8.9-8.3,9.8-13.1C166.7,157.9,166.4,152.7,161,152.7z"/>
	<path class="st10" d="M117.3,151.2l3.9-6.5l-9.1,0.2c0,0-0.7,4.3,1.7,7L117.3,151.2z"/>
	<polygon class="st10" points="120.9,137.1 114.1,138.5 112.1,144.9 121.2,144.7 	"/>
	<polygon class="st10" points="206.1,377 197.5,377.8 193.1,357.8 201.7,357 	"/>
	<polygon class="st10" points="284.1,351.1 277.6,356.9 262.1,343.7 268.6,337.9 	"/>
	<path class="st9" d="M275.2,355.8l3.8-9c0.1-0.3,0.5-0.5,0.8-0.4l7.6,2c0.7,0.2,1.2,1,0.9,1.8c0,0,0,0.1,0,0.1
		c-1.4,3.1-2.2,4.6-3.9,8.5c-1,2.4-2.9,8-4.3,11.4s-4.8,2.1-4.5,0.6c1.3-6.9,0.5-10.5-0.4-13.4C275,356.8,275,356.3,275.2,355.8z"/>
	<path class="st9" d="M196.4,375.2h10.3c0.4,0,0.7,0.3,0.8,0.6l2.2,8.2c0.2,0.7-0.2,1.4-0.9,1.6c-0.1,0-0.3,0.1-0.4,0.1
		c-3.6-0.1-5.4-0.3-9.9-0.3c-2.8,0-10,0.3-13.9,0.3s-4.6-3.8-3-4.2c7-1.5,11-3.7,13.2-5.7C195.4,375.4,195.9,375.2,196.4,375.2z"/>
	<polygon class="st11" points="193.1,357.8 195.4,368.1 204.2,368.1 201.7,357 	"/>
	<polygon class="st11" points="268.6,337.9 262.1,343.7 270.1,350.5 276.6,344.7 	"/>
	<path class="st9" d="M152.6,155.1c0,0-3.6,2.5,18.1,49.5l34.1-9.5c-4.4-13.7-6.8-22.2-8.1-52.6c-5,0.3-10.1,1-15,2.1
		c-5.3,1.1-10.4,2.5-15.5,4.3C159.7,151.5,152.6,155.1,152.6,155.1z"/>
	<path class="st10" d="M175.3,127.8c0.4,5.2,2,14.6,6.4,17c0.6,7.8-2,15.5-7.1,21.4c-11.8-6.1-8.4-17.1-8.4-17.1
		c5.2-2.9,3.9-6.9,1.8-10.6L175.3,127.8z"/>
	<path class="st11" d="M177.1,137.7l-5.9-2c0.1,1.2,0.4,2.3,0.9,3.4c1,1.9,4.3,2.7,6.7,2.4C178,140.3,177.5,139.1,177.1,137.7z"/>
	<path class="st10" d="M158,122.3c2.3,8.3,3.1,11.9,8.3,15.3c7.8,5.2,17.5,0.5,17.8-8.3c0.2-8-3.6-20.2-12.5-21.9
		c-6.4-1.2-12.6,3-13.7,9.4C157.4,118.7,157.5,120.5,158,122.3z"/>
	<path class="st9" d="M170.4,106.1c-0.7,5.7-4.9,25.1-12.9,25c-6.6-5.7-3.3-16.5-1.3-20.9S170.4,106.1,170.4,106.1z"/>
	<path class="st9" d="M167.1,110.1c4,2.1,11.9,3.1,10.6-0.2s-0.9-6-6.3-5.9S167.1,110.1,167.1,110.1z"/>
	<path class="st10" d="M158.3,130.2c0.5,1.6,1.6,2.9,3.1,3.7c2,1,3.4-0.7,3.2-2.8c-0.2-1.9-1.4-4.7-3.6-4.8
		c-1.6-0.1-2.9,1.2-2.9,2.7C158.1,129.4,158.2,129.8,158.3,130.2z"/>
	<path class="st12" d="M170.7,204.7c0,0-2,68.8,3.6,94.8c5.7,27,16.9,65.7,16.9,65.7l16.3-0.8c0,0-7.9-49-9.8-69.9
		c-2.6-28.8-2-96.7-2-96.7L170.7,204.7z"/>
	<path class="st13" d="M170.7,204.7c0,0-2,68.8,3.6,94.8c5.7,27,16.9,65.7,16.9,65.7l16.3-0.8c0,0-7.9-49-9.8-69.9
		c-2.6-28.8-2-96.7-2-96.7L170.7,204.7z"/>
	<path class="st11" d="M195.6,223.6c-2.5-6.4-4.8-9.9-5-3.5c-0.6,13.4,1.8,28.8,5.4,36.4C195.7,245.1,195.6,233.5,195.6,223.6z"/>
	<polygon class="st9" points="208.6,365.1 190,366 187.8,359.2 208,357.6 	"/>
	<path class="st12" d="M179.7,202.2c0,0,20.9,56.2,35,87.3c11.4,25.1,51.7,60.1,51.7,60.1l9.2-7.7c0,0-29.1-39.9-37-57
		c-25.2-54.4-18.6-77.5-33.8-89.7L179.7,202.2z"/>
	<path class="st13" d="M179.7,202.2c0,0,20.9,56.2,35,87.3c11.4,25.1,51.7,60.1,51.7,60.1l9.2-7.7c0,0-29.1-39.9-37-57
		c-25.2-54.4-18.6-77.5-33.8-89.7L179.7,202.2z"/>
	<polygon class="st9" points="276.3,341.7 266,350.7 260.8,347 272.9,336.7 	"/>
	<path class="st14" d="M204.7,193l2.4,2.6c0.2,0.2,0,0.5-0.4,0.6l-35.7,10c-0.3,0.1-0.6,0-0.7-0.2l-1.2-3c-0.1-0.2,0.1-0.5,0.5-0.6
		l34.5-9.6C204.3,192.8,204.5,192.9,204.7,193z"/>
	<path class="st9" d="M201.2,198.2l0.9-0.3c0.2-0.1,0.3-0.2,0.2-0.3l-1.5-3.8c0-0.1-0.2-0.2-0.4-0.1l-0.9,0.3
		c-0.2,0.1-0.3,0.2-0.2,0.3l1.5,3.8C200.8,198.2,201,198.2,201.2,198.2z"/>
	<path class="st9" d="M173.6,205.9l0.9-0.3c0.2-0.1,0.3-0.2,0.2-0.3l-1.5-3.8c0-0.1-0.2-0.2-0.4-0.1l-0.9,0.3
		c-0.2,0.1-0.3,0.2-0.2,0.3l1.5,3.8C173.3,205.9,173.5,205.9,173.6,205.9z"/>
	<path class="st9" d="M187.4,202l0.9-0.3c0.2,0,0.3-0.2,0.2-0.3l-1.6-3.8c0-0.1-0.2-0.2-0.4-0.1l-0.9,0.3c-0.2,0-0.3,0.2-0.2,0.3
		l1.5,3.8C187,202,187.2,202.1,187.4,202z"/>
	<path class="st9" d="M171.3,121.9c0.1,0.7,0.6,1.2,1.1,1.1s0.7-0.7,0.6-1.4s-0.6-1.2-1.1-1.1S171.2,121.2,171.3,121.9z"/>
	<path class="st9" d="M179.1,120.3c0.1,0.7,0.6,1.2,1.1,1.1s0.7-0.7,0.6-1.4s-0.6-1.2-1.1-1.1S179,119.6,179.1,120.3z"/>
	<path class="st9" d="M179.5,119l1.6-0.8C181,118.2,180.4,119.6,179.5,119z"/>
	<path class="st15" d="M177.3,121.9c0.9,1.4,2.1,2.7,3.4,3.9c-0.6,0.7-1.5,1-2.4,1L177.3,121.9z"/>
	<path class="st9" d="M176.5,129.9c0.1,0,0.1-0.1,0.1-0.2c0-0.1-0.1-0.2-0.2-0.2c0,0,0,0,0,0c-1.7,0.4-3.5,0-4.9-1.2
		c-0.1-0.1-0.2-0.1-0.3-0.1c-0.1,0.1-0.1,0.2-0.1,0.3c0,0,0,0,0.1,0.1C172.6,129.9,174.6,130.4,176.5,129.9L176.5,129.9z"/>
	<path class="st9" d="M168.6,119.9c0.1,0,0.1-0.1,0.1-0.2c0.4-1,1.3-1.7,2.3-1.9c0.2,0,0.4-0.2,0.4-0.5c0-0.2-0.2-0.4-0.5-0.4
		c-1.3,0.3-2.4,1.1-2.9,2.4c-0.1,0.2,0,0.4,0.2,0.5C168.3,120,168.5,119.9,168.6,119.9L168.6,119.9z"/>
	<path class="st9" d="M182,115.9L182,115.9c0.2-0.2,0.2-0.4,0.1-0.6c-0.9-0.9-2.3-1.4-3.6-1.2c-0.2,0-0.4,0.3-0.3,0.5
		s0.3,0.4,0.5,0.3c1-0.1,2.1,0.2,2.8,1C181.6,116.1,181.9,116,182,115.9z"/>
	<path class="st10" d="M202.8,150.5c0.8,0.9,1.7,1.9,2.6,2.9s1.9,1.9,2.8,2.9c1.9,1.9,3.9,3.7,6,5.4c4,3.4,8.4,6.3,13.2,8.5
		c4.4,2,9.8,2.9,15.1,3.2c2.7,0.2,5.4,0.3,8.2,0.2s5.5-0.2,8.2-0.4l0.8,4.3c-5.7,1.5-11.5,2.3-17.3,2.5c-3,0.1-6,0-9-0.3
		c-3.1-0.3-6.2-1.1-9.1-2.2c-2.9-1.1-5.6-2.4-8.2-4c-2.6-1.5-5-3.2-7.4-5.1c-2.3-1.8-4.6-3.8-6.7-5.8c-1.1-1-2.1-2.1-3.1-3.2
		s-2-2.1-3-3.4L202.8,150.5z"/>
	<path class="st10" d="M257.8,178l8.6-1.4l-7.1-6.8c0,0-3.4,2.7-3.4,6.4L257.8,178z"/>
	<polygon class="st10" points="271.1,169.8 265.1,166.4 259.3,169.9 266.4,176.7 	"/>
	<path class="st9" d="M196.6,142.6c3.7,0.1,11.1,10.7,11.1,10.7l-10.6,13.1c0,0-6.2-8.7-6-13.5C191.4,148,192.4,142.5,196.6,142.6z"
		/>
	<path class="st14" d="M273.6,360.5c-0.1,0-0.2-0.1-0.3-0.1c-0.2-0.1-0.4-0.4-0.4-0.6c0-1.1,2.6-2.9,2.9-3.1c0.1,0,0.2,0,0.2,0
		c0.1,0,0.1,0.1,0.1,0.2c-0.2,1.1-0.7,3.1-1.7,3.6C274.2,360.6,273.9,360.6,273.6,360.5z M275.6,357.3c-1,0.7-2.3,1.9-2.3,2.5
		c0,0.1,0,0.2,0.2,0.3c0.2,0.2,0.5,0.2,0.8,0.1C274.8,359.8,275.3,358.8,275.6,357.3z"/>
	<path class="st14" d="M272.3,357.9c-0.1,0-0.2-0.1-0.2-0.1c-0.3-0.2-0.4-0.6-0.3-0.9c0.1-0.3,0.3-0.6,0.6-0.7
		c1.1-0.5,3.5,0.4,3.5,0.4c0.1,0,0.2,0.2,0.1,0.3c0,0,0,0.1-0.1,0.1C274.9,357.7,273.6,358,272.3,357.9z M275.3,356.9
		c-0.9-0.4-1.8-0.5-2.8-0.3c-0.2,0.1-0.3,0.2-0.4,0.4c-0.1,0.2,0,0.4,0.1,0.4C272.8,357.7,274.5,357.4,275.3,356.9L275.3,356.9z"/>
	<path class="st14" d="M191.9,376.9c-0.7,0-1.4-0.1-2-0.5c-0.3-0.2-0.5-0.6-0.5-1c0-0.2,0.1-0.4,0.3-0.6c0.9-0.6,4.4,1,5.1,1.3
		c0.1,0.1,0.1,0.2,0.1,0.3c0,0.1-0.1,0.1-0.1,0.1C193.8,376.8,192.8,376.9,191.9,376.9z M190.2,375.1c-0.1,0-0.3,0-0.4,0.1
		c-0.1,0-0.1,0.1-0.1,0.2c0,0.3,0.1,0.5,0.4,0.7c0.6,0.5,2,0.5,3.9,0.2C192.8,375.7,191.5,375.3,190.2,375.1L190.2,375.1z"/>
	<path class="st14" d="M194.6,376.6L194.6,376.6c-1.2-0.5-3.6-2.4-3.5-3.3c0-0.2,0.2-0.5,0.7-0.5c2-0.2,2.9,3.5,3,3.6
		c0,0.1,0,0.2-0.1,0.2C194.8,376.6,194.7,376.6,194.6,376.6z M192.1,373.1h-0.1c-0.2,0-0.3,0.1-0.4,0.2c-0.1,0.6,1.6,2,2.7,2.7
		C194,375.1,193.3,373.1,192.1,373.1z"/>
	<path class="st9" d="M171.7,120.6l1.6-0.8C173.2,119.8,172.7,121.2,171.7,120.6z"/>
</g>
<g id="freepik--Plant--inject-1--inject-123">
	<path class="st14" d="M222.9,214.5c0,0-17.8,14.5-11.2,46.4c3.9,18.8,15.6,28.4,25.9,26.3c10.3-2.1,17.4-15.5,13.6-34.4
		C245,220.9,222.9,214.5,222.9,214.5z"/>
	<path class="st16" d="M222.9,214.5c0,0-17.8,14.5-11.2,46.4c3.9,18.8,15.6,28.4,25.9,26.3c10.3-2.1,17.4-15.5,13.6-34.4
		C245,220.9,222.9,214.5,222.9,214.5z"/>
	<path class="st14" d="M335,152.5c0,0-32.6-7.2-63.2,29.1c-18,21.4-18.4,43.5-6.8,53.4s33.4,5.9,51.6-15.4
		C347.4,183.6,335,152.5,335,152.5z"/>
	<path class="st14" d="M292.1,8.3c0,0-7.3,2-9.5,12.5c-1.3,6.2,0.9,10.7,4.3,11.4s7.3-2.3,8.7-8.5C297.9,13.2,292.1,8.3,292.1,8.3z"
		/>
	<path class="st14" d="M234.3,331.6c-4.2-14.9-6.2-30.3-5.8-45.7c0.3-15,2.5-29.9,6.5-44.3c1.9-7.1,4.2-14,6.9-20.8
		c1.3-3.4,2.7-6.7,4.2-10c0.7-1.7,1.5-3.3,2.2-4.9l1.1-2.4l1.1-2.3c5.8-12.2,11.4-24.6,16.4-37.1c5-12.5,9.4-25.2,13.1-38.1
		c3.7-12.9,6.3-26.1,7.8-39.4c1.5-13.4,1.1-26.9-1.2-40.1c-2.4-13.4-7.5-26.2-15-37.6C280.4,19.5,287,32,291,45.3
		c4,13.5,6,27.5,6,41.6c0.1,14.1-1.1,28.1-3.5,42c-2.3,13.8-5.4,27.5-9.2,41c-3.7,13.5-8,26.8-12.5,39.9l-0.9,2.5l-0.4,1.2l-0.4,1.2
		c-0.5,1.6-1.1,3.1-1.5,4.6c-1,3.1-1.9,6.2-2.7,9.4c-1.7,6.2-3,12.5-4,18.8c-2,12.4-2.4,24.9-1.3,37.4c1.1,12,4,23.8,8.5,35
		L234.3,331.6z"/>
	<path class="st11" d="M234.3,331.6c-4.2-14.9-6.2-30.3-5.8-45.7c0.3-15,2.5-29.9,6.5-44.3c1.9-7.1,4.2-14,6.9-20.8
		c1.3-3.4,2.7-6.7,4.2-10c0.7-1.7,1.5-3.3,2.2-4.9l1.1-2.4l1.1-2.3c5.8-12.2,11.4-24.6,16.4-37.1c5-12.5,9.4-25.2,13.1-38.1
		c3.7-12.9,6.3-26.1,7.8-39.4c1.5-13.4,1.1-26.9-1.2-40.1c-2.4-13.4-7.5-26.2-15-37.6C280.4,19.5,287,32,291,45.3
		c4,13.5,6,27.5,6,41.6c0.1,14.1-1.1,28.1-3.5,42c-2.3,13.8-5.4,27.5-9.2,41c-3.7,13.5-8,26.8-12.5,39.9l-0.9,2.5l-0.4,1.2l-0.4,1.2
		c-0.5,1.6-1.1,3.1-1.5,4.6c-1,3.1-1.9,6.2-2.7,9.4c-1.7,6.2-3,12.5-4,18.8c-2,12.4-2.4,24.9-1.3,37.4c1.1,12,4,23.8,8.5,35
		L234.3,331.6z"/>
	<path class="st14" d="M303.2,295.8l-1,11.4l-6.7,74.3c-0.2,2.6-2.4,4.6-5.1,4.6h-84.5c-2.6,0-4.8-2-5.1-4.6l-6.6-74.3l-1-11.4
		L303.2,295.8z"/>
	<path class="st14" d="M231.7,60.3c0,0-18.9,25.1,0.4,65.4c11.3,23.7,30.1,32.6,43.1,26.5s18-26.3,6.9-50.1
		C263,61.7,231.7,60.3,231.7,60.3z"/>
	<path class="st11" d="M231.7,60.3c0,0-18.9,25.1,0.4,65.4c11.3,23.7,30.1,32.6,43.1,26.5s18-26.3,6.9-50.1
		C263,61.7,231.7,60.3,231.7,60.3z"/>
	<polygon class="st11" points="303.2,295.8 302.2,307.3 194.3,307.3 193.3,295.8 	"/>
	<path class="st14" d="M186.8,281.7h123c1.3,0,2.4,1.1,2.4,2.4v15c0,1.3-1.1,2.4-2.4,2.4h-123c-1.3,0-2.4-1.1-2.4-2.4v-15
		C184.4,282.8,185.5,281.7,186.8,281.7z"/>
	<circle class="st14" cx="333.4" cy="85.3" r="40"/>
	<path class="st17" d="M365.5,95.2c4.5-17.6-6.1-35.4-23.7-39.9c-17.6-4.5-35.4,6.1-39.9,23.7c-2.4,9.3-0.6,19.1,4.9,26.9
		c-11.4-14.7-8.8-35.8,5.9-47.2s35.8-8.8,47.2,5.9C366.6,73.3,368.7,84.7,365.5,95.2z"/>
	<path class="st3" d="M345.7,91.1l-4,8.5c-0.3,0.7-0.9,1.1-1.6,1.4c-0.7,0.3-1.4,0.2-2.1-0.1l-7.5-3.5l-2.8,6
		c-0.3,0.7-0.9,1.2-1.5,1.4c-0.7,0.2-1.4,0.2-2.1-0.1c-0.7-0.3-1.2-0.9-1.4-1.6c-0.3-0.7-0.2-1.4,0.1-2.1l2.9-6l-7.4-3.5
		c-1.3-0.6-1.9-2.2-1.3-3.6c0.6-1.3,2.2-1.9,3.6-1.3l17.3,8.2l1.7-3.5L322.3,83c-1.3-0.6-1.9-2.2-1.3-3.5c0,0,0,0,0-0.1l4-8.4
		c0.6-1.3,2.2-1.9,3.6-1.3c0,0,0,0,0,0l7.3,3.5l2.8-6c0.6-1.3,2.2-1.9,3.5-1.3c0.1,0,0.1,0.1,0.2,0.1c0.6,0.3,1.1,0.8,1.4,1.5
		c0.3,0.7,0.2,1.4-0.1,2.1l-2.8,6l7.5,3.5c0.7,0.3,1.2,0.9,1.4,1.6c0.3,0.7,0.2,1.4-0.1,2.1c-0.7,1.4-2.3,2-3.7,1.3l-17.3-8.2
		l-1.6,3.5l17.2,8.1c0.7,0.3,1.2,0.9,1.4,1.6C346,89.7,346,90.4,345.7,91.1z"/>
</g>
</svg>
