<svg xmlns="http://www.w3.org/2000/svg" width="340.298" height="253.563" viewBox="0 0 340.298 253.563">
  <g id="Wallet-rafiki" transform="translate(0 -55)">
    <g id="freepik--background-complete--inject-91" transform="translate(0 55)">
      <rect id="Rectangle_6" data-name="Rectangle 6" width="340.298" height="0.17" transform="translate(0 222.827)" fill="#ebebeb"/>
      <rect id="Rectangle_7" data-name="Rectangle 7" width="15.776" height="0.17" transform="translate(102.117 227.169)" fill="#ebebeb"/>
      <rect id="Rectangle_8" data-name="Rectangle 8" width="38.569" height="0.17" transform="translate(273.668 230.817)" fill="#ebebeb"/>
      <rect id="Rectangle_9" data-name="Rectangle 9" width="38.569" height="0.17" transform="translate(29.075 230.817)" fill="#ebebeb"/>
      <path id="Path_47" data-name="Path 47" d="M173.506,247.473H42.089a3.886,3.886,0,0,1-3.879-3.886V58.852A3.886,3.886,0,0,1,42.089,55H173.506a3.886,3.886,0,0,1,3.886,3.886h0v184.7A3.886,3.886,0,0,1,173.506,247.473ZM42.089,55.136a3.716,3.716,0,0,0-3.709,3.716V243.586a3.716,3.716,0,0,0,3.709,3.716H173.506a3.73,3.73,0,0,0,3.716-3.716V58.852a3.73,3.73,0,0,0-3.716-3.716Z" transform="translate(-12.204 -55)" fill="#ebebeb"/>
      <path id="Path_48" data-name="Path 48" d="M389.809,247.473H258.386a3.9,3.9,0,0,1-3.886-3.886V58.852A3.893,3.893,0,0,1,258.386,55H389.809a3.886,3.886,0,0,1,3.873,3.852V243.586a3.879,3.879,0,0,1-3.873,3.886ZM258.386,55.136a3.73,3.73,0,0,0-3.716,3.716V243.586a3.73,3.73,0,0,0,3.716,3.716H389.809a3.73,3.73,0,0,0,3.716-3.716V58.852a3.73,3.73,0,0,0-3.716-3.716Z" transform="translate(-81.288 -55)" fill="#ebebeb"/>
      <rect id="Rectangle_10" data-name="Rectangle 10" width="15.715" height="54.386" transform="translate(198.721 168.808)" fill="#e6e6e6"/>
      <rect id="Rectangle_11" data-name="Rectangle 11" width="15.715" height="54.386" transform="translate(187.593 168.808)" fill="#e6e6e6"/>
      <path id="Path_49" data-name="Path 49" d="M292.868,378.954h2.981V370.46H289.73Z" transform="translate(-92.541 -155.759)" fill="#f0f0f0"/>
      <rect id="Rectangle_12" data-name="Rectangle 12" width="15.715" height="54.386" transform="translate(108.596 168.808)" fill="#e6e6e6"/>
      <rect id="Rectangle_13" data-name="Rectangle 13" width="81.604" height="50.208" transform="translate(121.711 168.808)" fill="#f0f0f0"/>
      <path id="Path_50" data-name="Path 50" d="M274.788,342.939H242.8a3.124,3.124,0,0,1-3.11-3.11V309.264a3.11,3.11,0,0,1,3.11-3.1h31.954a3.11,3.11,0,0,1,3.11,3.1v30.566A3.124,3.124,0,0,1,274.788,342.939ZM242.8,306.868a2.423,2.423,0,0,0-2.423,2.409v30.566a2.423,2.423,0,0,0,2.4,2.45h31.988a2.423,2.423,0,0,0,2.437-2.4V309.264a2.409,2.409,0,0,0-2.416-2.409Z" transform="translate(-76.558 -135.221)" fill="#e0e0e0"/>
      <path id="Path_51" data-name="Path 51" d="M216.768,342.939H184.78a3.124,3.124,0,0,1-3.11-3.11V309.264a3.11,3.11,0,0,1,3.11-3.1h31.988a3.11,3.11,0,0,1,3.11,3.1h0v30.566A3.117,3.117,0,0,1,216.768,342.939ZM184.78,306.868a2.409,2.409,0,0,0-2.416,2.409v30.566a2.416,2.416,0,0,0,2.416,2.416h31.988a2.43,2.43,0,0,0,2.423-2.416V309.264a2.423,2.423,0,0,0-2.423-2.409Z" transform="translate(-58.026 -135.221)" fill="#e0e0e0"/>
      <path id="Path_52" data-name="Path 52" d="M227.471,317.533a3,3,0,1,1,3-3.008h0a3.008,3.008,0,0,1-3,3.008Z" transform="translate(-71.697 -136.937)" fill="#fafafa"/>
      <path id="Path_53" data-name="Path 53" d="M247.242,317.533a3,3,0,1,1,2.981-3.022v.061A3,3,0,0,1,247.242,317.533Z" transform="translate(-78.005 -136.937)" fill="#fafafa"/>
      <path id="Path_54" data-name="Path 54" d="M181.808,378.954H178.82V370.46h6.119Z" transform="translate(-57.116 -155.759)" fill="#f0f0f0"/>
      <rect id="Rectangle_14" data-name="Rectangle 14" width="15.715" height="54.386" transform="translate(103.594 168.808)" fill="#e6e6e6"/>
      <path id="Path_55" data-name="Path 55" d="M169.441,378.954h2.988V370.46H166.31Z" transform="translate(-53.12 -155.759)" fill="#f0f0f0"/>
      <rect id="Rectangle_15" data-name="Rectangle 15" width="81.604" height="50.208" transform="translate(37.705 168.808)" fill="#f0f0f0"/>
      <path id="Path_56" data-name="Path 56" d="M151.358,342.939H119.37a3.11,3.11,0,0,1-3.11-3.11V309.264a3.11,3.11,0,0,1,3.11-3.1h31.954a3.11,3.11,0,0,1,3.11,3.1v30.566a3.11,3.11,0,0,1-3.077,3.11ZM119.37,306.868a2.409,2.409,0,0,0-2.416,2.409v30.566a2.423,2.423,0,0,0,2.4,2.45h31.988a2.43,2.43,0,0,0,2.443-2.4V309.264a2.423,2.423,0,0,0-2.416-2.409Z" transform="translate(-37.134 -135.221)" fill="#e0e0e0"/>
      <path id="Path_57" data-name="Path 57" d="M93.358,342.939H61.41a3.11,3.11,0,0,1-3.11-3.11h0V309.264a3.1,3.1,0,0,1,3.11-3.1H93.358a3.1,3.1,0,0,1,3.11,3.1v30.566A3.117,3.117,0,0,1,93.358,342.939ZM61.41,306.868a2.409,2.409,0,0,0-2.423,2.409v30.566a2.423,2.423,0,0,0,2.4,2.45H93.371a2.416,2.416,0,0,0,2.423-2.416V309.25a2.409,2.409,0,0,0-2.423-2.409Z" transform="translate(-18.621 -135.221)" fill="#e0e0e0"/>
      <path id="Path_58" data-name="Path 58" d="M104.048,317.533a3,3,0,1,1,2.995-3.008h0a2.995,2.995,0,0,1-2.995,3.008Z" transform="translate(-32.273 -136.937)" fill="#fafafa"/>
      <path id="Path_59" data-name="Path 59" d="M123.822,317.533a3,3,0,1,1,2.981-3.022v.061A3,3,0,0,1,123.822,317.533Z" transform="translate(-38.584 -136.937)" fill="#fafafa"/>
      <path id="Path_60" data-name="Path 60" d="M58.381,378.954H55.4V370.46h6.112Z" transform="translate(-17.695 -155.759)" fill="#f0f0f0"/>
      <rect id="Rectangle_16" data-name="Rectangle 16" width="29.238" height="29.238" transform="translate(152.671 18.049)" fill="#ebebeb"/>
      <rect id="Rectangle_17" data-name="Rectangle 17" width="1.293" height="29.238" transform="translate(181.917 18.056)" fill="#e0e0e0"/>
      <rect id="Rectangle_18" data-name="Rectangle 18" width="21.316" height="21.316" transform="translate(156.639 22.017)" fill="#fff"/>
      <path id="Path_61" data-name="Path 61" d="M247.007,104.2h0a5.043,5.043,0,0,1-7.139,0h0a5.05,5.05,0,0,1,0-7.133h0a5.057,5.057,0,0,1,7.139,0h0a5.05,5.05,0,0,1,0,7.133Z" transform="translate(-76.144 -67.965)" fill="#f5f5f5"/>
      <rect id="Rectangle_19" data-name="Rectangle 19" width="34.282" height="34.282" transform="translate(118.989 55.646)" fill="#ebebeb"/>
      <rect id="Rectangle_20" data-name="Rectangle 20" width="1.518" height="34.282" transform="translate(153.27 55.652)" fill="#e0e0e0"/>
      <rect id="Rectangle_21" data-name="Rectangle 21" width="24.992" height="24.992" transform="translate(123.637 60.294)" fill="#fff"/>
      <rect id="Rectangle_22" data-name="Rectangle 22" width="10.658" height="10.658" transform="translate(130.797 67.454)" fill="#f5f5f5"/>
      <rect id="Rectangle_23" data-name="Rectangle 23" width="18.56" height="4.335" transform="translate(288.049 44.62)" fill="#e6e6e6"/>
      <rect id="Rectangle_24" data-name="Rectangle 24" width="76.826" height="4.335" transform="translate(211.223 44.62)" fill="#f5f5f5"/>
      <rect id="Rectangle_25" data-name="Rectangle 25" width="21.629" height="23.025" transform="translate(233.247 21.602)" fill="#e0e0e0"/>
      <rect id="Rectangle_26" data-name="Rectangle 26" width="5.54" height="23.025" transform="translate(227.707 21.602)" fill="#f0f0f0"/>
      <rect id="Rectangle_27" data-name="Rectangle 27" width="16.246" height="26.57" transform="translate(244.3 18.049)" fill="#e6e6e6"/>
      <rect id="Rectangle_28" data-name="Rectangle 28" width="4.696" height="26.57" transform="translate(239.611 18.049)" fill="#f0f0f0"/>
      <rect id="Rectangle_29" data-name="Rectangle 29" width="13.7" height="23.025" transform="translate(249.091 21.602)" fill="#f0f0f0"/>
      <rect id="Rectangle_30" data-name="Rectangle 30" width="3.131" height="23.025" transform="translate(245.961 21.602)" fill="#fafafa"/>
      <rect id="Rectangle_31" data-name="Rectangle 31" width="17.968" height="19.125" transform="translate(260.301 25.495)" fill="#e6e6e6"/>
      <rect id="Rectangle_32" data-name="Rectangle 32" width="4.601" height="19.125" transform="translate(255.7 25.495)" fill="#fafafa"/>
      <rect id="Rectangle_33" data-name="Rectangle 33" width="13.496" height="22.079" transform="translate(269.482 22.548)" fill="#e6e6e6"/>
      <rect id="Rectangle_34" data-name="Rectangle 34" width="3.9" height="22.079" transform="translate(265.582 22.548)" fill="#f0f0f0"/>
      <rect id="Rectangle_35" data-name="Rectangle 35" width="13.108" height="19.125" transform="translate(273.457 25.495)" fill="#f0f0f0"/>
      <rect id="Rectangle_36" data-name="Rectangle 36" width="2.6" height="19.125" transform="translate(270.857 25.495)" fill="#fafafa"/>
      <path id="Path_62" data-name="Path 62" d="M392.063,285.193c5.812-7.6,19.649-10.42,24.433-15.211,6.261-6.282,6.234-15.708.9-19.111-4.628-2.954-19.982,17.015-21.7,19.261-5.955,7.684-7.677,13.381-8.793,18.9.129-4.689.252-9,.354-12.326.32-10.842.721-14.333.912-15.4.681-.531,1.4-1.137,1.838-1.463,3.716-2.77,11.951-6.071,16.069-10.093,6.017-5.88,5.043-12.931.823-15.538-4.4-2.722-12.2,3.736-16.334,10.154s-2.368,12.571-3.525,17.859a103.952,103.952,0,0,0-.728,10.522,21.779,21.779,0,0,0-8.4-13.578c-5.7-4.546-10.617-10.086-15.313-9.372s-2.144,8.045,1.545,13.19c3.308,4.58,19.635,9.154,22.038,12.836-.286,7.487-.538,16.913-.715,25.72-1.286-4.546-.4-4.928-5.676-11.91-3.131-4.138-15.994-9.256-17.518-6.4s.8,8.222,5.649,11.985c3.913,3.035,12.564,3.029,14.612,4.914.47.436,2.042,2.123,2.9,3.1-.211,10.74-.3,20.22-.2,23.46l.844.034c-.041-.837.055-6.3.225-13.537,2.11-3.845,16.334-6.125,20.7-10.1,4.587-4.186,7.881-9.072,5.914-12.346-1.64-2.722-14.551.98-19.839,5.5a18.788,18.788,0,0,0-6.615,10.542c.116-4.928.259-10.209.388-15.211C387.918,290.352,390.321,287.473,392.063,285.193Z" transform="translate(-114.999 -112.036)" fill="#e6e6e6"/>
      <path id="Path_63" data-name="Path 63" d="M400.72,377.083H385.979c-.81,0-1.5-1.048-1.661-2.5l-1.048-9.528h20.152l-1.041,9.528C402.211,376.035,401.524,377.083,400.72,377.083Z" transform="translate(-122.418 -154.031)" fill="#f0f0f0"/>
      <path id="Path_64" data-name="Path 64" d="M402.982,365.433h-21c-.5,0-.926-.681-.98-1.62l-.429-7.051c-.068-1.082.388-2.042.98-2.042h21.861c.585,0,1.041.946.973,2.042l-.429,7.051C403.914,364.738,403.486,365.433,402.982,365.433Z" transform="translate(-121.555 -150.732)" fill="#f0f0f0"/>
      <g id="freepik--Shadow--inject-62--inject-91" transform="translate(38.188 238.154)">
        <ellipse id="freepik--path--inject-62--inject-91" cx="131.961" cy="7.704" rx="131.961" ry="7.704" fill="#f5f5f5"/>
      </g>
    </g>
    <g id="freepik--Coins--inject-91" transform="translate(112.029 56.501)">
      <path id="Path_65" data-name="Path 65" d="M198.563,146.871c-1.5,3.655-10.359,3.4-19.635-.422s-15.586-9.889-14.082-13.544c.354-.844,1.361-4.009,2.368-4.444,3.457-1.463,10.039,1.824,17.165,4.764,6.636,2.722,14.224,4.5,15.4,8.1C200.489,143.516,198.991,145.83,198.563,146.871Z" transform="translate(-164.611 -79.85)" fill="#20cc94"/>
      <path id="Path_66" data-name="Path 66" d="M199.775,141.347c.565,2.865-.681,4.24-1.218,5.547s-2.11,2.164-4.308,2.464a7.72,7.72,0,0,1-.83.1,22.733,22.733,0,0,1-5.043-.265,4.544,4.544,0,0,1-.721-.116,40.091,40.091,0,0,1-5.765-1.484l-.681-.231c-.755-.265-1.531-.558-2.307-.878s-1.511-.681-2.239-1l-.626-.3a40.532,40.532,0,0,1-4.948-2.9l-.558-.395a22.22,22.22,0,0,1-3.764-3.362c-.17-.191-.327-.374-.476-.565-1.463-1.851-2.042-3.621-1.463-5.03.381-.905,1.2-4,2.368-4.451a8.12,8.12,0,0,1,4.4,0l.681.163c3.4.871,7.691,2.811,12.067,4.614,5.159,2.13,11.264,4.342,14.258,6.894a6.8,6.8,0,0,1,.51.476A6.122,6.122,0,0,1,199.775,141.347Z" transform="translate(-164.605 -79.872)" opacity="0.2"/>
      <g id="Group_4" data-name="Group 4" transform="translate(1.698 47.856)" opacity="0.2">
        <path id="Path_67" data-name="Path 67" d="M173.416,127.847l-.313.572-5.526,9.889c-.17-.191-.327-.374-.476-.565l5.309-9.488.415-.735Z" transform="translate(-167.1 -127.52)"/>
      </g>
      <g id="Group_5" data-name="Group 5" transform="translate(5.938 51.906)" opacity="0.2">
        <path id="Path_68" data-name="Path 68" d="M179.585,133.783l-5.7,10.209-.558-.395,5.663-10.127Z" transform="translate(-173.33 -133.47)"/>
      </g>
      <g id="Group_6" data-name="Group 6" transform="translate(16.603 57.711)" opacity="0.2">
        <path id="Path_69" data-name="Path 69" d="M195.064,142.361,189.681,152l-.681-.231L194.445,142Z" transform="translate(-189 -142)"/>
      </g>
      <g id="Group_7" data-name="Group 7" transform="translate(11.444 54.989)" opacity="0.2">
        <path id="Path_70" data-name="Path 70" d="M187.77,138.361l-5.724,10.257-.626-.3L187.178,138Z" transform="translate(-181.42 -138)"/>
      </g>
      <g id="Group_8" data-name="Group 8" transform="translate(23.049 59.597)" opacity="0.2">
        <path id="Path_71" data-name="Path 71" d="M204.439,145.11l-5.247,9.379a4.54,4.54,0,0,1-.721-.116l5.37-9.6Z" transform="translate(-198.47 -144.77)"/>
      </g>
      <path id="Path_72" data-name="Path 72" d="M200.343,143.251c-1.5,3.655-10.25,3.512-19.533-.32s-15.586-9.889-14.075-13.544,10.25-3.505,19.533.32S201.847,139.576,200.343,143.251Z" transform="translate(-165.214 -79.414)" fill="#20cc94"/>
      <path id="Path_73" data-name="Path 73" d="M199.032,143.094c-1.062,2.579-7.881,2.219-15.225-.81s-12.434-7.582-11.373-10.161,7.881-2.219,15.232.81S200.1,140.514,199.032,143.094Z" transform="translate(-167.061 -80.584)" fill="#fff" opacity="0.2"/>
      <path id="Path_74" data-name="Path 74" d="M268.593,105.306c2.423,3.124-2.191,10.685-10.134,16.831s-16.334,8.6-18.75,5.445c-.558-.721-2.818-3.138-2.682-4.267.456-3.723,6.575-7.793,12.673-12.516,5.676-4.4,10.978-10.1,14.687-9.331C266.64,101.964,267.906,104.421,268.593,105.306Z" transform="translate(-187.735 -71.32)" fill="#20cc94"/>
      <path id="Path_75" data-name="Path 75" d="M264.394,101.54c2.77.939,3.342,2.722,4.206,3.811s.83,2.906,0,4.968c-.1.252-.211.5-.334.762a22.536,22.536,0,0,1-2.722,4.247c-.143.191-.3.374-.456.565a39.971,39.971,0,0,1-4.165,4.274l-.524.456c-.606.524-1.246,1.048-1.906,1.559s-1.32.994-1.987,1.45c-.184.136-.381.265-.565.395a39.865,39.865,0,0,1-4.982,2.845c-.211.109-.415.2-.613.293a22.459,22.459,0,0,1-4.8,1.593c-.245.054-.483.1-.721.129-2.334.347-4.158,0-5.091-1.232-.6-.776-2.879-3.029-2.682-4.261a8.024,8.024,0,0,1,2.185-3.832c.15-.17.313-.34.483-.517,2.457-2.545,6.262-5.275,10-8.167,4.417-3.4,9.372-7.616,13.067-8.936a6.935,6.935,0,0,1,.681-.211,6.417,6.417,0,0,1,.919-.191Z" transform="translate(-187.742 -71.366)" opacity="0.2"/>
      <g id="Group_9" data-name="Group 9" transform="translate(51.042 47.121)" opacity="0.2">
        <path id="Path_76" data-name="Path 76" d="M240.178,126.44l.34.558,5.826,9.712c-.245.054-.483.1-.721.129l-5.588-9.338-.436-.681Z" transform="translate(-239.6 -126.44)"/>
      </g>
      <g id="Group_10" data-name="Group 10" transform="translate(56.609 45.501)" opacity="0.2">
        <path id="Path_77" data-name="Path 77" d="M248.365,124.06l6,10c-.211.109-.415.2-.613.293l-5.976-9.95Z" transform="translate(-247.78 -124.06)"/>
      </g>
      <g id="Group_11" data-name="Group 11" transform="translate(66.893 39.335)" opacity="0.2">
        <path id="Path_78" data-name="Path 78" d="M263.475,115l5.683,9.474-.524.456-5.744-9.583Z" transform="translate(-262.89 -115)"/>
      </g>
      <g id="Group_12" data-name="Group 12" transform="translate(62.108 42.201)" opacity="0.2">
        <path id="Path_79" data-name="Path 79" d="M256.452,119.21l6.044,10.066c-.184.136-.381.265-.565.395l-6.071-10.114Z" transform="translate(-255.86 -119.21)"/>
      </g>
      <g id="Group_13" data-name="Group 13" transform="translate(71.67 34.741)" opacity="0.2">
        <path id="Path_80" data-name="Path 80" d="M270.5,108.25l5.526,9.222c-.143.191-.3.374-.456.565L269.91,108.6Z" transform="translate(-269.91 -108.25)"/>
      </g>
      <ellipse id="Ellipse_1" data-name="Ellipse 1" cx="18.179" cy="7.153" rx="18.179" ry="7.153" transform="translate(45.532 47.967) rotate(-37.76)" fill="#20cc94"/>
      <ellipse id="Ellipse_2" data-name="Ellipse 2" cx="14.388" cy="5.057" rx="14.388" ry="5.057" transform="translate(50.111 47.065) rotate(-37.76)" fill="#fff" opacity="0.2"/>
      <path id="Path_81" data-name="Path 81" d="M215.7,78.978c-.776,4.478-10.821,6.37-22.2,4.329S173.54,76,174.336,71.525c.184-1.041.5-4.832,1.572-5.588,3.532-2.491,11.74-.408,20.479,1.143,8.167,1.45,17.1,1.565,19.315,5.329C217.043,74.724,215.927,77.7,215.7,78.978Z" transform="translate(-167.697 -59.625)" fill="#20cc94"/>
      <path id="Path_82" data-name="Path 82" d="M215.7,72.455c1.361,3.09.279,4.934,0,6.541s-1.838,2.947-4.233,3.832c-.293.116-.6.211-.912.306a26.333,26.333,0,0,1-5.744.946,4.977,4.977,0,0,0-.837.048,46.778,46.778,0,0,1-6.86-.252l-.8-.1c-.919-.116-1.865-.252-2.811-.422s-1.865-.361-2.77-.572c-.259-.054-.517-.123-.776-.184a45.557,45.557,0,0,1-6.275-2.042c-.252-.1-.49-.2-.728-.3a25.911,25.911,0,0,1-5.064-2.865c-.238-.17-.456-.34-.681-.517-2.11-1.722-3.192-3.573-2.886-5.3.2-1.116.368-4.764,1.565-5.588a8.87,8.87,0,0,1,4.955-1.089h.817c4.084.136,9.345,1.273,14.714,2.226,6.33,1.13,13.741,2.117,17.73,4.254a7.481,7.481,0,0,1,.681.408A7.244,7.244,0,0,1,215.7,72.455Z" transform="translate(-167.693 -59.663)" opacity="0.2"/>
      <g id="Group_14" data-name="Group 14" transform="translate(9.512 4.319)" opacity="0.2">
        <path id="Path_83" data-name="Path 83" d="M183.262,63.775l-.218.715-3.784,12.482c-.238-.17-.456-.34-.681-.517l3.634-11.972.286-.932Z" transform="translate(-178.58 -63.55)"/>
      </g>
      <g id="Group_15" data-name="Group 15" transform="translate(15.256 7.79)" opacity="0.2">
        <path id="Path_84" data-name="Path 84" d="M191.648,68.888l-3.9,12.856c-.252-.1-.49-.2-.728-.3l3.879-12.8Z" transform="translate(-187.02 -68.65)"/>
      </g>
      <g id="Group_16" data-name="Group 16" transform="translate(28.616 11.826)" opacity="0.2">
        <path id="Path_85" data-name="Path 85" d="M211.142,74.811l-3.7,12.176-.8-.1,3.736-12.305Z" transform="translate(-206.65 -74.58)"/>
      </g>
      <g id="Group_17" data-name="Group 17" transform="translate(22.259 9.947)" opacity="0.2">
        <path id="Path_86" data-name="Path 86" d="M202.013,72.065,198.086,85c-.259-.054-.517-.123-.776-.184l3.947-12.993Z" transform="translate(-197.31 -71.82)"/>
      </g>
      <g id="Group_18" data-name="Group 18" transform="translate(36.273 12.363)" opacity="0.2">
        <path id="Path_87" data-name="Path 87" d="M222.337,75.595l-3.6,11.849a4.975,4.975,0,0,0-.837.048l3.682-12.121Z" transform="translate(-217.9 -75.37)"/>
      </g>
      <ellipse id="Ellipse_3" data-name="Ellipse 3" cx="8.235" cy="20.935" rx="8.235" ry="20.935" transform="translate(5.87 16.216) rotate(-79.91)" fill="#20cc94"/>
      <ellipse id="Ellipse_4" data-name="Ellipse 4" cx="5.819" cy="16.566" rx="5.819" ry="16.566" transform="translate(11.023 14.683) rotate(-79.91)" fill="#fff" opacity="0.2"/>
    </g>
    <g id="freepik--Wallet--inject-91" transform="translate(42.108 123.444)">
      <path id="Path_88" data-name="Path 88" d="M248.717,253.629l-70.04,4.084a20.636,20.636,0,0,0-7.167,1.742l-76.077,34.03a6.37,6.37,0,0,0-3.675,7.119l12.571,59.45a6.432,6.432,0,0,0,9.188,4.342l75.09-37.487,69.339-2.321a6.01,6.01,0,0,0,5.778-6.928l-9.277-56.925C253.965,257.795,251.732,253.541,248.717,253.629Z" transform="translate(-71.374 -186.887)" fill="#20cc94"/>
      <path id="Path_89" data-name="Path 89" d="M248.717,253.629l-70.04,4.084a20.636,20.636,0,0,0-7.167,1.742l-76.077,34.03a6.37,6.37,0,0,0-3.675,7.119l12.571,59.45a6.432,6.432,0,0,0,9.188,4.342l75.09-37.487,69.339-2.321a6.01,6.01,0,0,0,5.778-6.928l-9.277-56.925C253.965,257.795,251.732,253.541,248.717,253.629Z" transform="translate(-71.374 -186.887)" opacity="0.1"/>
      <rect id="Rectangle_37" data-name="Rectangle 37" width="49.99" height="97.318" transform="matrix(0.735, -0.678, 0.678, 0.735, 0.002, 61.915)" fill="#20cc94"/>
      <path id="Path_90" data-name="Path 90" d="M164.579,268.318,127.82,302.2,61.87,230.647l24.12-22.235L98.629,196.76l2.1,2.287Z" transform="translate(-61.87 -168.723)" fill="#fafafa" opacity="0.5"/>
      <rect id="Rectangle_38" data-name="Rectangle 38" width="44.109" height="91.03" transform="matrix(0.735, -0.678, 0.678, 0.735, 4.561, 62.304)" fill="none" stroke="#20cc94" stroke-miterlimit="10" stroke-width="1"/>
      <ellipse id="Ellipse_5" data-name="Ellipse 5" cx="9.161" cy="11.488" rx="9.161" ry="11.488" transform="matrix(0.735, -0.678, 0.678, 0.735, 36.615, 78.061)" fill="#20cc94"/>
      <path id="Path_91" data-name="Path 91" d="M138.751,273.157l-13.061,4.512L97.31,208.412l12.639-11.652,2.1,2.287Z" transform="translate(-73.19 -168.723)" opacity="0.1"/>
      <rect id="Rectangle_39" data-name="Rectangle 39" width="49.99" height="97.318" transform="translate(21.11 17.04) rotate(-19.93)" fill="#20cc94"/>
      <rect id="Rectangle_40" data-name="Rectangle 40" width="49.99" height="97.318" transform="translate(21.11 17.04) rotate(-19.93)" fill="#fafafa" opacity="0.5"/>
      <rect id="Rectangle_41" data-name="Rectangle 41" width="44.109" height="91.03" transform="translate(25.161 19.161) rotate(-19.93)" fill="none" stroke="#20cc94" stroke-miterlimit="10" stroke-width="1"/>
      <ellipse id="Ellipse_6" data-name="Ellipse 6" cx="9.161" cy="11.488" rx="9.161" ry="11.488" transform="translate(48.642 46.078) rotate(-19.93)" fill="#20cc94"/>
      <path id="Path_92" data-name="Path 92" d="M250.43,257.179l-69.081,3.893a19.777,19.777,0,0,0-7.085,1.736L99.3,296.647a6.364,6.364,0,0,0-3.607,7.105l12.571,59.477a6.364,6.364,0,0,0,9.079,4.363l73.981-37.276,68.386-2.164a5.955,5.955,0,0,0,5.69-6.908l-9.3-56.918C255.616,261.358,253.411,257.1,250.43,257.179Z" transform="translate(-72.631 -188.021)" fill="#20cc94"/>
      <line id="Line_1" data-name="Line 1" y1="3.648" x2="59.273" transform="translate(111.529 79.817)" fill="none" stroke="#000" stroke-linecap="round" stroke-linejoin="round" stroke-width="2" opacity="0.2"/>
      <line id="Line_2" data-name="Line 2" x2="10.828" y2="49.738" transform="translate(104.431 84.996)" fill="none" stroke="#000" stroke-linecap="round" stroke-linejoin="round" stroke-width="2" opacity="0.2"/>
      <path id="Path_93" data-name="Path 93" d="M109.23,346.43l7.636,38.256S122.719,369.509,109.23,346.43Z" transform="translate(-76.997 -216.528)" fill="#fafafa" opacity="0.2"/>
      <path id="Path_94" data-name="Path 94" d="M110.7,333.8c.265.681,67.828-28.313,67.828-28.313a35.554,35.554,0,0,1-18.621,32.26C139.571,349.15,110.7,333.8,110.7,333.8Z" transform="translate(-77.466 -203.452)" fill="#fafafa" opacity="0.2"/>
      <circle id="Ellipse_7" data-name="Ellipse 7" cx="2.927" cy="2.927" r="2.927" transform="translate(75.185 125.628)" fill="#20cc94"/>
      <path id="Path_95" data-name="Path 95" d="M210.41,305.49s8.378,12.611,6.35,34.091" transform="translate(-109.314 -203.452)" opacity="0.2"/>
      <g id="Group_19" data-name="Group 19" transform="translate(29 83.465)" opacity="0.2">
        <line id="Line_3" data-name="Line 3" y1="0.687" x2="1.559" transform="translate(0 30.722)" fill="none" stroke="#fafafa" stroke-linecap="round" stroke-linejoin="round" stroke-width="1"/>
        <line id="Line_4" data-name="Line 4" y1="27.891" x2="63.091" transform="translate(4.791 1.402)" fill="none" stroke="#fafafa" stroke-linecap="round" stroke-linejoin="round" stroke-width="1" stroke-dasharray="5.198 5.198"/>
        <line id="Line_5" data-name="Line 5" y1="0.687" x2="1.552" transform="translate(69.503)" fill="none" stroke="#fafafa" stroke-linecap="round" stroke-linejoin="round" stroke-width="1"/>
      </g>
      <line id="Line_6" data-name="Line 6" y1="3.655" x2="59.273" transform="translate(113.517 90.992)" fill="none" stroke="#000" stroke-linecap="round" stroke-linejoin="round" stroke-width="2" opacity="0.2"/>
      <line id="Line_7" data-name="Line 7" y1="3.655" x2="59.273" transform="translate(116.185 104.937)" fill="none" stroke="#000" stroke-linecap="round" stroke-linejoin="round" stroke-width="2" opacity="0.2"/>
    </g>
    <g id="freepik--Character--inject-91" transform="translate(179.153 91.951)">
      <path id="Path_96" data-name="Path 96" d="M288.65,169.56s-1.491,15.878-7.391,17.246a17.8,17.8,0,0,1-10.89-1.089l-4.8-3.689L263.23,190.2s2.559,3.478,7.9,1.069c0,0,9.528,4.192,14.8,0s6.956-15.695,6.956-15.695Z" transform="translate(-263.23 -128.542)" fill="#b97964"/>
      <path id="Path_97" data-name="Path 97" d="M306.267,142.62s-4.118-7.017-2.246-19.737,12.537-14.293,16.654-13.374,7.487,4.873,10.291,12.4,3.839,9.487,8.514,8.167,17.117-5.445,20.581-1.776a8.6,8.6,0,0,1,2.334,7.759s17.308-4.206,15.81,11.23-26.475,29.844-50.235,14.592S306.267,142.62,306.267,142.62Z" transform="translate(-276.103 -109.292)" fill="#263238"/>
      <path id="Path_98" data-name="Path 98" d="M305.135,213.147s-4.7,40.448-4.546,59.416,6.895,63.67,6.895,63.67h8.31s-1.1-35.745-.939-47.975,2.348-32.464,2.348-32.464,2.661,18.186,5.8,24.61,20.54,29.164,32.614,36.221l5.642-5.179s-12.543-15.518-17.246-23.2-8.929-9.862-10.658-24.154,1.259-37.154-3.757-50.949Z" transform="translate(-275.161 -142.462)" fill="#24545e"/>
      <path id="Path_99" data-name="Path 99" d="M322.964,263.778,319.35,238.14a80.419,80.419,0,0,0,2.763,34.227Z" transform="translate(-280.924 -150.447)" opacity="0.2"/>
      <path id="Path_100" data-name="Path 100" d="M313.23,397.068l.279,7.943,5.574.463.279-.742V396.51Z" transform="translate(-279.2 -201.031)" fill="#b97964"/>
      <path id="Path_101" data-name="Path 101" d="M309.34,392.718l.51,2.974,9.569.231.606-3.573Z" transform="translate(-277.958 -199.702)" fill="#20cc94"/>
      <path id="Path_102" data-name="Path 102" d="M377.59,362.122l8.868-8.262,1.953,3.11L380.8,363.94Z" transform="translate(-299.757 -187.408)" fill="#20cc94"/>
      <path id="Path_103" data-name="Path 103" d="M383.87,363.908l5.853,4.927,3.757-4.417-4.8-4.968Z" transform="translate(-301.763 -189.194)" fill="#b97964"/>
      <path id="Path_104" data-name="Path 104" d="M395.913,366.154l3.539,2.178a1.3,1.3,0,0,1,.293,1.967c-2.566,2.9-9.12,10.263-9.773,10.781-.81.681-1.79-.463-2.042-1.484,0,0,1.858-2.464,2.042-4.043a28.9,28.9,0,0,0,0-3.662,1.2,1.2,0,0,1,.286-.837l3.954-4.642a1.307,1.307,0,0,1,1.7-.259Z" transform="translate(-303.06 -191.269)" fill="#263238"/>
      <path id="Path_105" data-name="Path 105" d="M316.405,409.492l.735,4.084a1.3,1.3,0,0,1-1.273,1.531c-3.873,0-13.728.041-14.551-.1-1.028-.17-.844-1.64-.238-2.5,0,0,3.07-.259,4.356-1.191a29.4,29.4,0,0,0,2.722-2.423,1.218,1.218,0,0,1,.817-.347l6.091-.143A1.314,1.314,0,0,1,316.405,409.492Z" transform="translate(-275.161 -204.831)" fill="#263238"/>
      <path id="Path_106" data-name="Path 106" d="M329.211,172.137l8.494-5.962s-2.26-9.038-5.608-9.488-19.969-3.614-30.538,0c0,0-3.8,1.082-4.968,11.747l4.519,1.443s1.62,19.969,2.62,23.045h24.12S328.122,175.751,329.211,172.137Z" transform="translate(-273.885 -123.884)" fill="#20cc94"/>
      <path id="Path_107" data-name="Path 107" d="M340.688,176.537s3.219,9.188,3.791,14.129c0,0-7.65-3.049-9.624-4.444l-1.5-5.377-5.064-2.471-1.5,4.084,4.226,5.241s11.523,10.781,17.362,8.317-2.307-23.236-2.307-23.236Z" transform="translate(-283.531 -129.57)" fill="#b97964"/>
      <path id="Path_108" data-name="Path 108" d="M314.177,118.008s-2.947,5.88-2.722,10.665,2.641,6.738,7.235,7.412c0,0,1.96,6.125-3.185,6.745-.395.048-.531,1.606-.5,1.858.136.994,1.123,1.538,2.042,1.77a13.817,13.817,0,0,0,2.947.327,6.867,6.867,0,0,0,5.492-2.443c.109-.129,1.143-1.45,1.143-1.45s-2.457-1.218-1.593-9.195a6.622,6.622,0,0,0,2.573-3.185,4,4,0,0,0,1.96-2.4c.368-1.593-1.041-3.8-3.614-1.593,0,0-4.846-2.45-6.683-11.032A8.6,8.6,0,0,1,314.177,118.008Z" transform="translate(-278.629 -111.272)" fill="#b97964"/>
      <path id="Path_109" data-name="Path 109" d="M316.64,131.464l.415-3.144-2.226,2.464A2.192,2.192,0,0,0,316.64,131.464Z" transform="translate(-279.711 -115.37)" fill="#a24e3f"/>
      <path id="Path_110" data-name="Path 110" d="M319.39,135.783s2.348.361,3.478-1.143" transform="translate(-281.168 -117.388)" fill="none" stroke="#222221" stroke-linecap="round" stroke-linejoin="round" stroke-width="0.75"/>
      <path id="Path_111" data-name="Path 111" d="M322.84,121.795a3.076,3.076,0,0,1,3.042.81" transform="translate(-282.27 -113.248)" fill="none" stroke="#222221" stroke-linecap="round" stroke-linejoin="round" stroke-width="1"/>
      <path id="Path_112" data-name="Path 112" d="M315.947,120.838s-1.361-.211-1.967.558" transform="translate(-279.44 -112.971)" fill="none" stroke="#222221" stroke-linecap="round" stroke-linejoin="round" stroke-width="1"/>
      <path id="Path_113" data-name="Path 113" d="M323.688,127.491c-.061.476-.368.824-.681.783s-.524-.456-.463-.932.368-.824.681-.783S323.75,127.014,323.688,127.491Z" transform="translate(-282.172 -114.806)" fill="#222221"/>
      <ellipse id="Ellipse_8" data-name="Ellipse 8" cx="0.864" cy="0.579" rx="0.864" ry="0.579" transform="matrix(0.129, -0.992, 0.992, 0.129, 34.825, 12.34)" fill="#222221"/>
      <path id="Path_114" data-name="Path 114" d="M323.055,126.34l-1.075-.47a.681.681,0,0,0,1.075.47Z" transform="translate(-281.995 -114.587)" fill="#222221"/>
      <path id="Path_115" data-name="Path 115" d="M315.215,124.86l-1.075-.47a.681.681,0,0,0,1.075.47Z" transform="translate(-279.491 -114.115)" fill="#222221"/>
      <path id="Path_116" data-name="Path 116" d="M305.84,209.02v2.838l26.135.218-.7-3.376Z" transform="translate(-276.84 -141.043)" fill="#20cc94"/>
      <path id="Path_117" data-name="Path 117" d="M305.84,209.02v2.838l26.135.218-.7-3.376Z" transform="translate(-276.84 -141.043)" fill="#fff" opacity="0.4"/>
    </g>
    <g id="freepik--Card--inject-91" transform="translate(149.543 127.124)">
      <path id="Path_118" data-name="Path 118" d="M278.654,180,264.28,230a8.712,8.712,0,0,1-7.487,6.275,8.889,8.889,0,0,1-3.28-.3l-27.476-7.9a8.732,8.732,0,0,1-5.976-10.787l14.381-50.01a8.725,8.725,0,0,1,10.781-5.962l27.5,7.895A8.725,8.725,0,0,1,278.654,180Z" transform="translate(-219.724 -160.972)" fill="#20cc94"/>
      <path id="Path_119" data-name="Path 119" d="M278.654,180,264.28,230a8.712,8.712,0,0,1-7.487,6.275,8.889,8.889,0,0,1-3.28-.3l-27.476-7.9a8.732,8.732,0,0,1-5.976-10.787l14.381-50.01a8.725,8.725,0,0,1,10.781-5.962l27.5,7.895A8.725,8.725,0,0,1,278.654,180Z" transform="translate(-219.724 -160.972)" opacity="0.2"/>
      <path id="Path_120" data-name="Path 120" d="M276.265,180.871l-14.374,50a8.691,8.691,0,0,1-5.111,5.676,8.888,8.888,0,0,1-3.28-.3l-27.462-7.9a8.732,8.732,0,0,1-5.976-10.787l14.381-50.01a6.223,6.223,0,0,1,8.392-5.363l27.442,7.929A8.725,8.725,0,0,1,276.265,180.871Z" transform="translate(-219.724 -161.251)" fill="#20cc94"/>
      <path id="Path_121" data-name="Path 121" d="M276.265,180.871l-14.374,50a8.691,8.691,0,0,1-5.111,5.676,8.888,8.888,0,0,1-3.28-.3l-27.462-7.9a8.732,8.732,0,0,1-5.976-10.787l14.381-50.01a6.223,6.223,0,0,1,8.392-5.363l27.442,7.929A8.725,8.725,0,0,1,276.265,180.871Z" transform="translate(-219.724 -161.251)" fill="#fafafa" opacity="0.5"/>
      <rect id="Rectangle_42" data-name="Rectangle 42" width="3.056" height="39.025" transform="translate(14.957 23.042) rotate(15.74)" fill="#fafafa"/>
      <path id="Path_122" data-name="Path 122" d="M235.29,234.969l-2.94-.851,10.583-37.549,2.933.844Z" transform="translate(-223.756 -172.342)" fill="#fafafa"/>
      <path id="Path_123" data-name="Path 123" d="M241.57,236.772l-2.94-.844,10.583-37.548,2.94.844Z" transform="translate(-225.762 -172.92)" fill="#fafafa"/>
      <rect id="Rectangle_43" data-name="Rectangle 43" width="3.056" height="39.025" transform="translate(40.565 30.394) rotate(15.74)" opacity="0.5"/>
      <path id="Path_124" data-name="Path 124" d="M280.48,189.9l-1.429,5.1-1.742-.49a3.314,3.314,0,0,1-2.287-4.084l.953-3.4,3.519,1.007A1.5,1.5,0,0,1,280.48,189.9Z" transform="translate(-237.346 -169.292)" fill="#fafafa"/>
      <path id="Path_125" data-name="Path 125" d="M280.219,184.225l-3.519-1.007,1.055-3.73a3.308,3.308,0,0,1,4.083-2.287l1.81.51L282.07,183.2a1.477,1.477,0,0,1-1.851,1.021Z" transform="translate(-237.922 -166.116)" fill="#fafafa"/>
      <path id="Path_126" data-name="Path 126" d="M285.211,189.971l3.539,1.014-.939,3.328a3.294,3.294,0,0,1-4.084,2.287l-1.838-.517,1.463-5.091a1.491,1.491,0,0,1,1.858-1.021Z" transform="translate(-239.58 -170.215)" fill="#fafafa"/>
      <path id="Path_127" data-name="Path 127" d="M291.142,182.857l-1.069,3.784-3.539-1.014a1.5,1.5,0,0,1-1.021-1.844l1.579-5.492,1.763.5a3.3,3.3,0,0,1,2.287,4.07Z" transform="translate(-240.719 -166.504)" fill="#fafafa"/>
    </g>
  </g>
</svg>
