<svg xmlns="http://www.w3.org/2000/svg" width="362.462" height="268.479" viewBox="0 0 362.462 268.479"><g transform="translate(-722.04 -189.999)"><g transform="translate(722.04 188.401)"><rect width="362.462" height="0.181" transform="translate(0 237.34)" fill="#ebebeb"/><rect width="16.804" height="0.181" transform="translate(108.767 241.965)" fill="#ebebeb"/><rect width="41.081" height="0.181" transform="translate(291.492 245.85)" fill="#ebebeb"/><rect width="41.081" height="0.181" transform="translate(30.969 245.85)" fill="#ebebeb"/><rect width="16.738" height="57.929" transform="translate(211.663 179.803)" fill="#e6e6e6"/><rect width="16.738" height="57.929" transform="translate(199.811 179.803)" fill="#e6e6e6"/><path d="M293.072,379.507h3.175V370.46H289.73Z" transform="translate(-79.698 -141.776)" fill="#f0f0f0"/><rect width="16.738" height="57.929" transform="translate(115.669 179.803)" fill="#e6e6e6"/><rect width="86.918" height="53.478" transform="translate(129.638 179.803)" fill="#f0f0f0"/><path d="M277.074,345.335H243a3.327,3.327,0,0,1-3.313-3.313V309.466A3.313,3.313,0,0,1,243,306.16h34.035a3.313,3.313,0,0,1,3.313,3.306v32.556A3.328,3.328,0,0,1,277.074,345.335ZM243,306.914a2.581,2.581,0,0,0-2.581,2.566v32.556a2.581,2.581,0,0,0,2.552,2.61h34.071a2.581,2.581,0,0,0,2.6-2.559V309.466a2.566,2.566,0,0,0-2.573-2.566Z" transform="translate(-65.933 -124.088)" fill="#e0e0e0"/><path d="M219.054,345.335H184.983a3.327,3.327,0,0,1-3.313-3.313V309.466a3.313,3.313,0,0,1,3.313-3.306h34.071a3.313,3.313,0,0,1,3.313,3.306h0v32.556A3.32,3.32,0,0,1,219.054,345.335Zm-34.071-38.421a2.566,2.566,0,0,0-2.573,2.566v32.556a2.573,2.573,0,0,0,2.573,2.573h34.071a2.588,2.588,0,0,0,2.581-2.573V309.466a2.581,2.581,0,0,0-2.581-2.566Z" transform="translate(-49.973 -124.088)" fill="#e0e0e0"/><path d="M227.667,317.924a3.2,3.2,0,1,1,3.2-3.2h0a3.2,3.2,0,0,1-3.2,3.2Z" transform="translate(-61.746 -125.565)" fill="#fafafa"/><path d="M247.439,317.924a3.2,3.2,0,1,1,3.175-3.219v.065A3.19,3.19,0,0,1,247.439,317.924Z" transform="translate(-67.179 -125.565)" fill="#fafafa"/><path d="M182,379.507H178.82V370.46h6.517Z" transform="translate(-49.189 -141.776)" fill="#f0f0f0"/><rect width="16.738" height="57.929" transform="translate(110.341 179.803)" fill="#e6e6e6"/><path d="M169.645,379.507h3.182V370.46H166.31Z" transform="translate(-45.748 -141.776)" fill="#f0f0f0"/><rect width="86.918" height="53.478" transform="translate(40.161 179.803)" fill="#f0f0f0"/><path d="M153.644,345.335H119.573a3.313,3.313,0,0,1-3.313-3.313V309.466a3.313,3.313,0,0,1,3.313-3.306h34.035a3.313,3.313,0,0,1,3.313,3.306v32.556a3.313,3.313,0,0,1-3.277,3.313Zm-34.071-38.421A2.566,2.566,0,0,0,117,309.48v32.556a2.581,2.581,0,0,0,2.552,2.61h34.071a2.588,2.588,0,0,0,2.6-2.559V309.466a2.581,2.581,0,0,0-2.573-2.566Z" transform="translate(-31.98 -124.088)" fill="#e0e0e0"/><path d="M95.641,345.335H61.613a3.313,3.313,0,0,1-3.313-3.313h0V309.466a3.306,3.306,0,0,1,3.313-3.306H95.641a3.306,3.306,0,0,1,3.313,3.306v32.556A3.32,3.32,0,0,1,95.641,345.335ZM61.613,306.914a2.566,2.566,0,0,0-2.581,2.566v32.556a2.581,2.581,0,0,0,2.552,2.61H95.655a2.573,2.573,0,0,0,2.581-2.573V309.451a2.566,2.566,0,0,0-2.581-2.566Z" transform="translate(-16.037 -124.088)" fill="#e0e0e0"/><path d="M104.244,317.924a3.2,3.2,0,1,1,3.19-3.2h0a3.19,3.19,0,0,1-3.19,3.2Z" transform="translate(-27.794 -125.565)" fill="#fafafa"/><path d="M124.019,317.924a3.2,3.2,0,1,1,3.175-3.219v.065A3.19,3.19,0,0,1,124.019,317.924Z" transform="translate(-33.229 -125.565)" fill="#fafafa"/><path d="M58.575,379.507H55.4V370.46h6.51Z" transform="translate(-15.239 -141.776)" fill="#f0f0f0"/><rect width="31.143" height="31.143" transform="translate(162.615 19.225)" fill="#ebebeb"/><rect width="1.377" height="31.143" transform="translate(193.765 19.232)" fill="#e0e0e0"/><rect width="22.705" height="22.705" transform="translate(166.841 23.451)" fill="#fff"/><path d="M247.568,104.761h0a5.372,5.372,0,0,1-7.6,0h0a5.379,5.379,0,0,1,0-7.6h0a5.386,5.386,0,0,1,7.6,0h0a5.379,5.379,0,0,1,0,7.6Z" transform="translate(-65.576 -66.166)" fill="#f5f5f5"/><rect width="36.514" height="36.514" transform="translate(126.738 59.27)" fill="#ebebeb"/><rect width="1.617" height="36.514" transform="translate(163.253 59.277)" fill="#e0e0e0"/><rect width="26.619" height="26.619" transform="translate(131.69 64.221)" fill="#fff"/><rect width="11.352" height="11.352" transform="translate(139.316 71.847)" fill="#f5f5f5"/><rect width="19.769" height="4.618" transform="translate(306.809 47.526)" fill="#e6e6e6"/><rect width="81.829" height="4.618" transform="translate(224.98 47.526)" fill="#f5f5f5"/><rect width="23.038" height="24.524" transform="translate(248.438 23.009)" fill="#e0e0e0"/><rect width="5.901" height="24.524" transform="translate(242.538 23.009)" fill="#f0f0f0"/><rect width="17.304" height="28.301" transform="translate(260.211 19.225)" fill="#e6e6e6"/><rect width="5.002" height="28.301" transform="translate(255.216 19.225)" fill="#f0f0f0"/><rect width="14.593" height="24.524" transform="translate(265.315 23.009)" fill="#f0f0f0"/><rect width="3.335" height="24.524" transform="translate(261.98 23.009)" fill="#fafafa"/><rect width="19.138" height="20.37" transform="translate(277.254 27.156)" fill="#e6e6e6"/><rect width="4.9" height="20.37" transform="translate(272.354 27.156)" fill="#fafafa"/><rect width="14.375" height="23.517" transform="translate(287.033 24.017)" fill="#e6e6e6"/><rect width="4.154" height="23.517" transform="translate(282.88 24.017)" fill="#f0f0f0"/><rect width="13.962" height="20.37" transform="translate(291.267 27.156)" fill="#f0f0f0"/><rect width="2.769" height="20.37" transform="translate(288.498 27.156)" fill="#fafafa"/><path d="M394.149,288.556c6.191-8.09,20.929-11.1,26.025-16.2,6.669-6.691,6.64-16.731.957-20.356-4.929-3.146-21.284,18.123-23.118,20.515-6.343,8.184-8.177,14.252-9.366,20.131.138-4.995.268-9.591.377-13.128.341-11.548.768-15.267.971-16.405.725-.565,1.493-1.211,1.957-1.559,3.958-2.951,12.73-6.466,17.115-10.751,6.408-6.263,5.372-13.774.877-16.55-4.69-2.9-13,3.98-17.4,10.816s-2.523,13.389-3.755,19.022a110.718,110.718,0,0,0-.776,11.207,23.2,23.2,0,0,0-8.946-14.462c-6.068-4.842-11.309-10.743-16.311-9.982s-2.284,8.569,1.646,14.049c3.523,4.879,20.914,9.75,23.473,13.672-.3,7.974-.573,18.014-.761,27.395-1.37-4.843-.428-5.249-6.046-12.686-3.335-4.408-17.036-9.859-18.659-6.814s.848,8.757,6.017,12.766c4.168,3.233,13.382,3.226,15.564,5.234.5.464,2.175,2.262,3.088,3.3-.225,11.439-.319,21.537-.21,24.988l.9.036c-.043-.892.058-6.713.239-14.419,2.247-4.1,17.4-6.524,22.045-10.758,4.886-4.458,8.395-9.663,6.3-13.15-1.747-2.9-15.5,1.044-21.132,5.857a20.011,20.011,0,0,0-7.046,11.229c.123-5.248.275-10.874.413-16.2C389.734,294.05,392.293,290.984,394.149,288.556Z" transform="translate(-99.04 -104.121)" fill="#e6e6e6"/><path d="M401.857,377.867h-15.7c-.863,0-1.6-1.116-1.769-2.668L383.27,365.05h21.465L403.626,375.2C403.445,376.75,402.712,377.867,401.857,377.867Z" transform="translate(-105.429 -140.288)" fill="#f0f0f0"/><path d="M404.442,366.13H382.078c-.536,0-.986-.725-1.044-1.725l-.457-7.51c-.072-1.153.413-2.175,1.044-2.175h23.285c.623,0,1.109,1.008,1.037,2.175l-.457,7.51C405.435,365.391,404.978,366.13,404.442,366.13Z" transform="translate(-104.686 -137.446)" fill="#f0f0f0"/><g transform="translate(40.675 253.665)"><ellipse cx="140.555" cy="8.206" rx="140.555" ry="8.206" fill="#f5f5f5"/></g><g transform="translate(119.326 1.598)"><path d="M200.773,148.094c-1.6,3.893-11.033,3.625-20.914-.449s-16.6-10.533-15-14.426c.377-.9,1.45-4.27,2.523-4.734,3.683-1.559,10.693,1.943,18.283,5.074,7.068,2.9,15.151,4.792,16.4,8.627C202.825,144.52,201.23,146.985,200.773,148.094Z" transform="translate(-164.61 -76.707)" fill="#20cc94"/><path d="M202.065,142.205c.6,3.052-.725,4.516-1.3,5.908s-2.247,2.305-4.589,2.624a8.227,8.227,0,0,1-.884.1,24.213,24.213,0,0,1-5.372-.283,4.839,4.839,0,0,1-.768-.123,42.7,42.7,0,0,1-6.14-1.58l-.725-.246c-.8-.283-1.631-.594-2.458-.935s-1.609-.725-2.385-1.066l-.667-.319a43.171,43.171,0,0,1-5.27-3.088l-.594-.42a23.667,23.667,0,0,1-4.009-3.581c-.181-.2-.348-.4-.507-.6-1.559-1.972-2.175-3.857-1.559-5.357.406-.964,1.276-4.263,2.523-4.741a8.649,8.649,0,0,1,4.69,0l.725.174c3.625.928,8.192,2.994,12.853,4.915,5.495,2.269,12,4.625,15.187,7.344a7.251,7.251,0,0,1,.544.507A6.521,6.521,0,0,1,202.065,142.205Z" transform="translate(-164.605 -76.726)" opacity="0.2"/><g transform="translate(1.809 50.973)" opacity="0.2"><path d="M173.827,127.868l-.333.609-5.886,10.533c-.181-.2-.348-.4-.507-.6l5.654-10.105.442-.783Z" transform="translate(-167.1 -127.52)"/></g><g transform="translate(6.325 55.286)" opacity="0.2"><path d="M179.992,133.8l-6.068,10.874-.594-.42,6.031-10.787Z" transform="translate(-173.33 -133.47)"/></g><g transform="translate(17.685 61.47)" opacity="0.2"><path d="M195.459,142.384l-5.734,10.272L189,152.41,194.8,142Z" transform="translate(-189 -142)"/></g><g transform="translate(12.19 58.57)" opacity="0.2"><path d="M188.184,138.384l-6.1,10.925-.667-.319L187.553,138Z" transform="translate(-181.42 -138)"/></g><g transform="translate(24.55 63.478)" opacity="0.2"><path d="M204.828,145.132l-5.589,9.989a4.834,4.834,0,0,1-.768-.123l5.72-10.229Z" transform="translate(-198.47 -144.77)"/></g><path d="M202.546,144.327c-1.6,3.893-10.917,3.741-20.805-.341s-16.6-10.533-14.991-14.426,10.917-3.733,20.805.341S204.148,140.412,202.546,144.327Z" transform="translate(-165.129 -76.332)" fill="#20cc94"/><path d="M200.773,143.92c-1.131,2.747-8.395,2.363-16.217-.863s-13.244-8.076-12.113-10.823,8.395-2.363,16.224.863S201.912,141.173,200.773,143.92Z" transform="translate(-166.72 -77.339)" fill="#fff" opacity="0.2"/><path d="M270.65,105.56c2.581,3.327-2.334,11.381-10.794,17.927s-17.4,9.156-19.972,5.8c-.594-.768-3-3.342-2.856-4.545.486-3.965,7-8.3,13.5-13.331,6.046-4.683,11.693-10.758,15.644-9.939C268.569,102,269.917,104.618,270.65,105.56Z" transform="translate(-184.525 -69.361)" fill="#20cc94"/><path d="M266.175,101.54c2.95,1,3.559,2.9,4.48,4.06s.884,3.1,0,5.292c-.1.268-.225.536-.355.812a24.006,24.006,0,0,1-2.9,4.524c-.152.2-.319.4-.486.6a42.573,42.573,0,0,1-4.436,4.553l-.558.486c-.645.558-1.327,1.116-2.03,1.66s-1.406,1.058-2.117,1.544c-.2.145-.406.283-.6.42a42.461,42.461,0,0,1-5.306,3.03c-.225.116-.442.21-.652.312a23.922,23.922,0,0,1-5.111,1.7c-.261.058-.515.1-.768.138-2.487.37-4.429,0-5.422-1.312-.638-.826-3.066-3.226-2.856-4.538a8.547,8.547,0,0,1,2.327-4.081c.16-.181.333-.362.515-.551,2.617-2.711,6.669-5.618,10.656-8.7,4.7-3.625,9.982-8.112,13.918-9.518a7.39,7.39,0,0,1,.725-.225,6.836,6.836,0,0,1,.979-.2Z" transform="translate(-184.531 -69.4)" opacity="0.2"/><g transform="translate(54.366 50.19)" opacity="0.2"><path d="M240.216,126.44l.363.594,6.205,10.345c-.261.058-.515.1-.768.138l-5.952-9.946-.464-.725Z" transform="translate(-239.6 -126.44)"/></g><g transform="translate(60.296 48.465)" opacity="0.2"><path d="M248.4,124.06l6.394,10.656c-.225.116-.442.21-.652.312l-6.365-10.6Z" transform="translate(-247.78 -124.06)"/></g><g transform="translate(71.249 41.897)" opacity="0.2"><path d="M263.513,115l6.053,10.091-.558.486L262.89,115.37Z" transform="translate(-262.89 -115)"/></g><g transform="translate(66.153 44.949)" opacity="0.2"><path d="M256.491,119.21l6.437,10.722c-.2.145-.406.283-.6.42L255.86,119.58Z" transform="translate(-255.86 -119.21)"/></g><g transform="translate(76.338 37.004)" opacity="0.2"><path d="M270.533,108.25l5.886,9.823c-.152.2-.319.4-.486.6l-6.024-10.047Z" transform="translate(-269.91 -108.25)"/></g><ellipse cx="19.363" cy="7.619" rx="19.363" ry="7.619" transform="translate(48.497 51.091) rotate(-37.76)" fill="#20cc94"/><ellipse cx="15.325" cy="5.386" rx="15.325" ry="5.386" transform="translate(53.375 50.131) rotate(-37.76)" fill="#fff" opacity="0.2"/><path d="M218.4,79.9c-.826,4.77-11.526,6.785-23.647,4.611s-21.262-7.778-20.414-12.548c.2-1.109.536-5.147,1.675-5.952,3.762-2.653,12.5-.435,21.813,1.218,8.7,1.544,18.217,1.667,20.573,5.676C219.828,75.372,218.639,78.54,218.4,79.9Z" transform="translate(-167.267 -59.289)" fill="#20cc94"/><path d="M218.4,72.947c1.45,3.291.3,5.256,0,6.966s-1.957,3.139-4.509,4.081c-.312.123-.638.225-.971.326a28.048,28.048,0,0,1-6.118,1.008,5.3,5.3,0,0,0-.892.051,49.825,49.825,0,0,1-7.307-.268L197.752,85c-.979-.123-1.986-.268-2.994-.449s-1.986-.384-2.95-.609c-.275-.058-.551-.13-.826-.2a48.524,48.524,0,0,1-6.684-2.175c-.268-.1-.522-.217-.776-.319a27.6,27.6,0,0,1-5.393-3.052c-.254-.181-.486-.362-.725-.551-2.247-1.834-3.4-3.806-3.074-5.64.217-1.189.391-5.074,1.667-5.952a9.448,9.448,0,0,1,5.277-1.16h.87c4.35.145,9.953,1.356,15.673,2.37,6.742,1.2,14.636,2.255,18.884,4.531a7.966,7.966,0,0,1,.725.435A7.715,7.715,0,0,1,218.4,72.947Z" transform="translate(-167.265 -59.322)" opacity="0.2"/><g transform="translate(10.131 4.6)" opacity="0.2"><path d="M183.567,63.789l-.232.761-4.031,13.3c-.254-.181-.486-.362-.725-.551l3.871-12.751.3-.993Z" transform="translate(-178.58 -63.55)"/></g><g transform="translate(16.249 8.297)" opacity="0.2"><path d="M191.949,68.9,187.8,82.6c-.268-.1-.522-.217-.776-.319l4.132-13.629Z" transform="translate(-187.02 -68.65)"/></g><g transform="translate(30.48 12.596)" opacity="0.2"><path d="M211.434,74.826,207.5,87.8l-.848-.109,3.98-13.107Z" transform="translate(-206.65 -74.58)"/></g><g transform="translate(23.709 10.595)" opacity="0.2"><path d="M202.319,72.081l-4.183,13.774c-.275-.058-.551-.131-.826-.2l4.2-13.839Z" transform="translate(-197.31 -71.82)"/></g><g transform="translate(38.635 13.168)" opacity="0.2"><path d="M222.627,75.609,218.792,88.23a5.3,5.3,0,0,0-.892.051l3.922-12.911Z" transform="translate(-217.9 -75.37)"/></g><ellipse cx="8.772" cy="22.299" rx="8.772" ry="22.299" transform="translate(6.252 17.272) rotate(-79.91)" fill="#20cc94"/><ellipse cx="6.198" cy="17.645" rx="6.198" ry="17.645" transform="translate(11.741 15.64) rotate(-79.91)" fill="#fff" opacity="0.2"/></g><g transform="translate(44.851 72.902)"><path d="M258.948,253.629l-74.6,4.35a21.98,21.98,0,0,0-7.633,1.856L95.681,296.081a6.785,6.785,0,0,0-3.915,7.583l13.389,63.322a6.85,6.85,0,0,0,9.786,4.625l79.981-39.929,73.855-2.472a6.4,6.4,0,0,0,6.155-7.38L265.052,261.2C264.538,258.066,262.16,253.535,258.948,253.629Z" transform="translate(-70.055 -182.54)" fill="#20cc94"/><path d="M258.948,253.629l-74.6,4.35a21.98,21.98,0,0,0-7.633,1.856L95.681,296.081a6.785,6.785,0,0,0-3.915,7.583l13.389,63.322a6.85,6.85,0,0,0,9.786,4.625l79.981-39.929,73.855-2.472a6.4,6.4,0,0,0,6.155-7.38L265.052,261.2C264.538,258.066,262.16,253.535,258.948,253.629Z" transform="translate(-70.055 -182.54)" opacity="0.1"/><rect width="53.246" height="103.657" transform="matrix(0.735, -0.678, 0.678, 0.735, 0.002, 65.948)" fill="#20cc94"/><path d="M171.268,272.978l-39.153,36.087L61.87,232.854l25.691-23.683,13.462-12.411,2.24,2.436Z" transform="translate(-61.87 -166.897)" fill="#fafafa" opacity="0.5"/><rect width="46.982" height="96.958" transform="matrix(0.735, -0.678, 0.678, 0.735, 4.858, 66.362)" fill="none" stroke="#20cc94" stroke-miterlimit="10" stroke-width="1"/><ellipse cx="9.757" cy="12.237" rx="9.757" ry="12.237" transform="matrix(0.735, -0.678, 0.678, 0.735, 39, 83.145)" fill="#20cc94"/><path d="M141.451,278.133l-13.911,4.806L97.31,209.171l13.462-12.411,2.24,2.436Z" transform="translate(-71.619 -166.897)" opacity="0.1"/><rect width="53.246" height="103.657" transform="translate(22.485 18.15) rotate(-19.93)" fill="#20cc94"/><rect width="53.246" height="103.657" transform="translate(22.485 18.15) rotate(-19.93)" fill="#fafafa" opacity="0.5"/><rect width="46.982" height="96.958" transform="translate(26.8 20.409) rotate(-19.93)" fill="none" stroke="#20cc94" stroke-miterlimit="10" stroke-width="1"/><ellipse cx="9.757" cy="12.237" rx="9.757" ry="12.237" transform="translate(51.81 49.079) rotate(-19.93)" fill="#20cc94"/><path d="M260.516,257.18l-73.58,4.146a21.067,21.067,0,0,0-7.546,1.849L99.547,299.218a6.778,6.778,0,0,0-3.842,7.568l13.389,63.351a6.778,6.778,0,0,0,9.67,4.647l78.8-39.7,72.84-2.305a6.343,6.343,0,0,0,6.06-7.358l-9.91-60.625C266.04,261.63,263.691,257.092,260.516,257.18Z" transform="translate(-71.137 -183.517)" fill="#20cc94"/><line y1="3.886" x2="63.134" transform="translate(118.793 85.015)" fill="none" stroke="#000" stroke-linecap="round" stroke-linejoin="round" stroke-width="2" opacity="0.2"/><line x2="11.534" y2="52.977" transform="translate(111.232 90.532)" fill="none" stroke="#000" stroke-linecap="round" stroke-linejoin="round" stroke-width="2" opacity="0.2"/><path d="M109.23,346.43l8.134,40.748S123.6,371.012,109.23,346.43Z" transform="translate(-74.898 -208.068)" fill="#fafafa" opacity="0.2"/><path d="M110.7,335.647c.283.725,72.246-30.157,72.246-30.157a37.87,37.87,0,0,1-19.834,34.361C141.451,351.994,110.7,335.647,110.7,335.647Z" transform="translate(-75.302 -196.806)" fill="#fafafa" opacity="0.2"/><circle cx="3.117" cy="3.117" r="3.117" transform="translate(80.082 133.81)" fill="#20cc94"/><path d="M210.41,305.49s8.924,13.433,6.764,36.311" transform="translate(-102.73 -196.806)" opacity="0.2"/><g transform="translate(30.889 88.901)" opacity="0.2"><line y1="0.732" x2="1.66" transform="translate(0 32.723)" fill="none" stroke="#fafafa" stroke-linecap="round" stroke-linejoin="round" stroke-width="1"/><line y1="29.707" x2="67.2" transform="translate(5.103 1.493)" fill="none" stroke="#fafafa" stroke-linecap="round" stroke-linejoin="round" stroke-width="1" stroke-dasharray="5.198 5.198"/><line y1="0.732" x2="1.653" transform="translate(74.029)" fill="none" stroke="#fafafa" stroke-linecap="round" stroke-linejoin="round" stroke-width="1"/></g><line y1="3.893" x2="63.134" transform="translate(120.91 96.918)" fill="none" stroke="#000" stroke-linecap="round" stroke-linejoin="round" stroke-width="2" opacity="0.2"/><line y1="3.893" x2="63.134" transform="translate(123.752 111.772)" fill="none" stroke="#000" stroke-linecap="round" stroke-linejoin="round" stroke-width="2" opacity="0.2"/></g><g transform="translate(190.822 39.358)"><path d="M290.306,169.56s-1.588,16.912-7.873,18.37a18.964,18.964,0,0,1-11.6-1.16l-5.111-3.929-2.494,8.7s2.726,3.7,8.416,1.138c0,0,10.149,4.466,15.76,0s7.409-16.717,7.409-16.717Z" transform="translate(-263.23 -125.871)" fill="#b97964"/><path d="M306.445,144.79s-4.386-7.474-2.392-21.023,13.353-15.223,17.739-14.245,7.974,5.19,10.961,13.208,4.089,10.105,9.069,8.7,18.232-5.8,21.922-1.892a9.163,9.163,0,0,1,2.486,8.264s18.435-4.48,16.84,11.961-28.2,31.788-53.507,15.542S306.445,144.79,306.445,144.79Z" transform="translate(-274.316 -109.292)" fill="#263238"/><path d="M305.431,213.147s-5.009,43.082-4.842,63.286,7.344,67.816,7.344,67.816h8.851s-1.167-38.073-1-51.1,2.5-34.579,2.5-34.579,2.834,19.37,6.176,26.213,21.878,31.063,34.738,38.58l6.01-5.517s-13.36-16.528-18.37-24.713-9.511-10.5-11.352-25.728,1.341-39.574-4-54.268Z" transform="translate(-273.505 -137.858)" fill="#24545e"/><path d="M323.247,265.448,319.4,238.14a85.656,85.656,0,0,0,2.943,36.456Z" transform="translate(-278.468 -144.735)" opacity="0.2"/><path d="M313.23,397.1l.3,8.46,5.937.493.3-.79V396.51Z" transform="translate(-276.984 -188.299)" fill="#b97964"/><path d="M309.34,392.741l.544,3.168,10.193.246.645-3.806Z" transform="translate(-275.914 -187.155)" fill="#20cc94"/><path d="M377.59,362.661l9.446-8.8,2.08,3.313L381,364.6Z" transform="translate(-294.688 -176.567)" fill="#20cc94"/><path d="M383.87,364.2l6.234,5.248,4-4.7-5.118-5.292Z" transform="translate(-296.415 -178.105)" fill="#b97964"/><path d="M396.433,366.167l3.77,2.32a1.385,1.385,0,0,1,.312,2.1c-2.733,3.088-9.714,10.932-10.41,11.483-.863.725-1.906-.493-2.175-1.58,0,0,1.979-2.624,2.175-4.306a30.787,30.787,0,0,0,0-3.9,1.283,1.283,0,0,1,.3-.892l4.212-4.944a1.392,1.392,0,0,1,1.812-.276Z" transform="translate(-297.532 -179.892)" fill="#263238"/><path d="M317.436,409.562l.783,4.35a1.385,1.385,0,0,1-1.356,1.631c-4.125,0-14.622.043-15.5-.1-1.095-.181-.9-1.747-.254-2.66,0,0,3.269-.276,4.639-1.269a31.317,31.317,0,0,0,2.9-2.581,1.3,1.3,0,0,1,.87-.37l6.488-.152A1.4,1.4,0,0,1,317.436,409.562Z" transform="translate(-273.505 -191.572)" fill="#263238"/><path d="M331.336,173.254l9.047-6.35s-2.407-9.627-5.973-10.105-21.269-3.849-32.527,0c0,0-4.045,1.153-5.292,12.512l4.813,1.537s1.725,21.269,2.791,24.546h25.691S330.176,177.1,331.336,173.254Z" transform="translate(-272.407 -121.859)" fill="#20cc94"/><path d="M341.593,176.782s3.429,9.786,4.038,15.049c0,0-8.148-3.248-10.25-4.734l-1.595-5.727-5.393-2.631-1.6,4.35,4.5,5.582s12.273,11.483,18.493,8.859-2.457-24.749-2.457-24.749Z" transform="translate(-280.714 -126.756)" fill="#b97964"/><path d="M314.355,118.172s-3.139,6.263-2.9,11.36,2.813,7.177,7.706,7.894c0,0,2.088,6.524-3.393,7.184-.42.051-.565,1.711-.536,1.979.145,1.058,1.2,1.638,2.175,1.885a14.716,14.716,0,0,0,3.139.348,7.315,7.315,0,0,0,5.85-2.6c.116-.138,1.218-1.544,1.218-1.544s-2.617-1.3-1.7-9.794a7.054,7.054,0,0,0,2.74-3.393,4.262,4.262,0,0,0,2.088-2.552c.392-1.7-1.109-4.045-3.849-1.7,0,0-5.161-2.61-7.119-11.751A9.156,9.156,0,0,1,314.355,118.172Z" transform="translate(-276.492 -110.997)" fill="#b97964"/><path d="M316.758,131.669l.442-3.349-2.371,2.624A2.335,2.335,0,0,0,316.758,131.669Z" transform="translate(-277.424 -114.526)" fill="#a24e3f"/><path d="M319.39,135.858s2.5.384,3.7-1.218" transform="translate(-278.678 -116.265)" fill="none" stroke="#222221" stroke-linecap="round" stroke-linejoin="round" stroke-width="0.75"/><path d="M322.84,121.8a3.277,3.277,0,0,1,3.24.863" transform="translate(-279.627 -112.699)" fill="none" stroke="#222221" stroke-linecap="round" stroke-linejoin="round" stroke-width="1"/><path d="M316.075,120.839s-1.45-.225-2.1.594" transform="translate(-277.19 -112.461)" fill="none" stroke="#222221" stroke-linecap="round" stroke-linejoin="round" stroke-width="1"/><path d="M323.764,127.552c-.065.507-.391.877-.725.834s-.558-.486-.493-.993.391-.877.725-.834S323.829,127.044,323.764,127.552Z" transform="translate(-279.543 -114.041)" fill="#222221"/><ellipse cx="0.921" cy="0.616" rx="0.921" ry="0.616" transform="matrix(0.129, -0.992, 0.992, 0.129, 37.094, 13.144)" fill="#222221"/><path d="M323.125,126.37l-1.145-.5a.725.725,0,0,0,1.145.5Z" transform="translate(-279.391 -113.852)" fill="#222221"/><path d="M315.285,124.89l-1.145-.5a.725.725,0,0,0,1.145.5Z" transform="translate(-277.234 -113.445)" fill="#222221"/><path d="M305.84,209.041v3.023l27.837.232-.747-3.6Z" transform="translate(-274.951 -136.637)" fill="#20cc94"/><path d="M305.84,209.041v3.023l27.837.232-.747-3.6Z" transform="translate(-274.951 -136.637)" fill="#fff" opacity="0.4"/></g><g transform="translate(159.283 76.822)"><path d="M282.492,181.239l-15.31,53.253a9.279,9.279,0,0,1-7.974,6.684,9.468,9.468,0,0,1-3.494-.319l-29.265-8.416a9.3,9.3,0,0,1-6.365-11.49L235.4,167.683a9.294,9.294,0,0,1,11.483-6.35l29.287,8.409A9.294,9.294,0,0,1,282.492,181.239Z" transform="translate(-219.724 -160.972)" fill="#20cc94"/><path d="M282.492,181.239l-15.31,53.253a9.279,9.279,0,0,1-7.974,6.684,9.468,9.468,0,0,1-3.494-.319l-29.265-8.416a9.3,9.3,0,0,1-6.365-11.49L235.4,167.683a9.294,9.294,0,0,1,11.483-6.35l29.287,8.409A9.294,9.294,0,0,1,282.492,181.239Z" transform="translate(-219.724 -160.972)" opacity="0.2"/><path d="M279.948,182.11l-15.31,53.26a9.257,9.257,0,0,1-5.444,6.046,9.467,9.467,0,0,1-3.494-.319l-29.251-8.416a9.3,9.3,0,0,1-6.365-11.49L235.4,167.923a9.236,9.236,0,0,1,5.444-6.031,9.17,9.17,0,0,1,3.494.319l29.229,8.445A9.294,9.294,0,0,1,279.948,182.11Z" transform="translate(-219.724 -161.212)" fill="#20cc94"/><path d="M279.948,182.11l-15.31,53.26a9.257,9.257,0,0,1-5.444,6.046,9.467,9.467,0,0,1-3.494-.319l-29.251-8.416a9.3,9.3,0,0,1-6.365-11.49L235.4,167.923a9.236,9.236,0,0,1,5.444-6.031,9.17,9.17,0,0,1,3.494.319l29.229,8.445A9.294,9.294,0,0,1,279.948,182.11Z" transform="translate(-219.724 -161.212)" fill="#fafafa" opacity="0.5"/><rect width="3.255" height="41.567" transform="translate(15.931 24.543) rotate(15.74)" fill="#fafafa"/><path d="M235.482,237.47l-3.132-.906,11.273-39.994,3.124.9Z" transform="translate(-223.197 -170.764)" fill="#fafafa"/><path d="M241.762,239.273l-3.132-.9L249.9,198.38l3.132.9Z" transform="translate(-224.924 -171.262)" fill="#fafafa"/><rect width="3.255" height="41.567" transform="translate(43.207 32.374) rotate(15.74)" opacity="0.5"/><path d="M280.844,190.086l-1.522,5.43-1.856-.522a3.53,3.53,0,0,1-2.436-4.35l1.015-3.625,3.748,1.073A1.6,1.6,0,0,1,280.844,190.086Z" transform="translate(-234.901 -168.137)" fill="#fafafa"/><path d="M280.448,184.691l-3.748-1.073,1.124-3.973a3.523,3.523,0,0,1,4.349-2.436l1.928.544-1.682,5.85a1.573,1.573,0,0,1-1.972,1.087Z" transform="translate(-235.396 -165.402)" fill="#fafafa"/><path d="M285.428,189.975l3.77,1.08-1,3.545a3.509,3.509,0,0,1-4.35,2.436l-1.957-.551,1.559-5.422a1.588,1.588,0,0,1,1.979-1.087Z" transform="translate(-236.824 -168.932)" fill="#fafafa"/><path d="M291.512,183.154l-1.138,4.031-3.77-1.08a1.6,1.6,0,0,1-1.087-1.965l1.682-5.85,1.878.529a3.516,3.516,0,0,1,2.436,4.335Z" transform="translate(-237.805 -165.736)" fill="#fafafa"/></g></g></g></svg>