<svg id="Layer_1" data-name="Layer 1" xmlns="http://www.w3.org/2000/svg" viewBox="0 0 487 406"><defs><style>.cls-1{fill:#ebebeb;}.cls-2,.cls-9{fill:#e6e6e6;}.cls-3{fill:#f0f0f0;}.cls-14,.cls-4{fill:#fafafa;}.cls-16,.cls-5{fill:#fff;}.cls-14,.cls-6{opacity:0.4;}.cls-7{fill:#e0e0e0;}.cls-8{fill:#f5f5f5;}.cls-9{opacity:0.7;}.cls-12,.cls-14,.cls-16,.cls-17,.cls-9{isolation:isolate;}.cls-10{fill:#263238;}.cls-11{fill:#ff8b7b;}.cls-12,.cls-16{opacity:0.2;}.cls-13{fill:#20cc94;}.cls-15{fill:#ff5652;}.cls-17{opacity:0.1;}</style></defs><g id="freepik--background-complete--inject-1--inject-123"><rect class="cls-1" x="-13" y="352.4" width="500" height="0.25"/><rect class="cls-1" x="383.83" y="368.49" width="53.07" height="0.25"/><rect class="cls-1" x="259.56" y="365.36" width="58.66" height="0.25"/><rect class="cls-1" x="367.2" y="363.92" width="19.19" height="0.25"/><rect class="cls-1" x="87.47" y="360.89" width="43.19" height="0.25"/><rect class="cls-1" x="66.46" y="360.89" width="15.44" height="0.25"/><rect class="cls-1" x="118.47" y="365.11" width="54.2" height="0.25"/><rect class="cls-2" x="264.7" y="37.99" width="142.16" height="133.04"/><rect class="cls-3" x="265.74" y="37.99" width="148.81" height="133.04"/><rect class="cls-2" x="264.7" y="171.04" width="142.16" height="6.55"/><rect class="cls-3" x="278.53" y="171.04" width="148.81" height="6.55"/><rect class="cls-4" x="276.49" y="48.75" width="127.31" height="111.55"/><polygon class="cls-5" points="296.97 160.29 310.15 48.74 355.22 48.74 342.04 160.29 296.97 160.29"/><rect class="cls-2" x="402.44" y="48.74" width="1.36" height="111.55"/><g class="cls-6"><polygon class="cls-7" points="417.08 49.91 272.37 49.91 271.38 46.65 416.1 46.65 417.08 49.91"/><polygon class="cls-7" points="417.08 55.34 272.37 55.34 271.38 52.08 416.1 52.08 417.08 55.34"/><polygon class="cls-7" points="417.08 60.77 272.37 60.77 271.38 57.51 416.1 57.51 417.08 60.77"/><polygon class="cls-7" points="417.08 66.2 272.37 66.2 271.38 62.94 416.1 62.94 417.08 66.2"/><polygon class="cls-7" points="417.08 71.63 272.37 71.63 271.38 68.37 416.1 68.37 417.08 71.63"/><polygon class="cls-7" points="417.08 77.06 272.37 77.06 271.38 73.8 416.1 73.8 417.08 77.06"/><polygon class="cls-7" points="417.08 82.49 272.37 82.49 271.38 79.23 416.1 79.23 417.08 82.49"/><polygon class="cls-7" points="417.08 87.92 272.37 87.92 271.38 84.66 416.1 84.66 417.08 87.92"/><polygon class="cls-7" points="417.08 93.35 272.37 93.35 271.38 90.09 416.1 90.09 417.08 93.35"/><polygon class="cls-7" points="417.08 98.78 272.37 98.78 271.38 95.52 416.1 95.52 417.08 98.78"/><polygon class="cls-7" points="417.08 104.21 272.37 104.21 271.38 100.95 416.1 100.95 417.08 104.21"/><polygon class="cls-7" points="417.08 109.64 272.37 109.64 271.38 106.38 416.1 106.38 417.08 109.64"/><polygon class="cls-7" points="417.08 115.07 272.37 115.07 271.38 111.81 416.1 111.81 417.08 115.07"/><polygon class="cls-7" points="417.08 120.5 272.37 120.5 271.38 117.24 416.1 117.24 417.08 120.5"/><polygon class="cls-7" points="417.08 125.93 272.37 125.93 271.38 122.67 416.1 122.67 417.08 125.93"/><polygon class="cls-7" points="417.08 131.36 272.37 131.36 271.38 128.1 416.1 128.1 417.08 131.36"/><polygon class="cls-7" points="417.08 136.79 272.37 136.79 271.38 133.53 416.1 133.53 417.08 136.79"/><polygon class="cls-7" points="417.08 142.22 272.37 142.22 271.38 138.96 416.1 138.96 417.08 142.22"/></g><rect class="cls-2" x="68.06" y="41.62" width="117.63" height="116.75"/><rect class="cls-3" x="69.26" y="41.62" width="122.78" height="116.75"/><rect class="cls-5" x="74.93" y="47.29" width="111.44" height="105.42"/><rect class="cls-2" x="185.67" y="47.29" width="0.7" height="105.42"/><rect class="cls-3" x="63.31" y="214.63" width="31.94" height="131.56"/><rect class="cls-3" x="69.44" y="346.19" width="122.66" height="6.21"/><rect class="cls-8" x="95.25" y="214.63" width="102.98" height="131.56"/><rect class="cls-3" x="107.81" y="264.35" width="77.86" height="32.13"/><rect class="cls-3" x="107.81" y="302.34" width="77.86" height="32.13"/><rect class="cls-3" x="107.81" y="226.35" width="77.86" height="32.13"/><rect class="cls-3" x="95.25" y="203.83" width="107.24" height="10.8"/><rect class="cls-2" x="58.85" y="203.83" width="36.4" height="10.8"/><rect class="cls-3" x="75.6" y="180.58" width="31.75" height="23.25"/><rect class="cls-8" x="107.35" y="180.58" width="56.33" height="23.25"/><rect class="cls-9" x="75.6" y="185.45" width="88.41" height="2.61"/><rect class="cls-3" x="73.85" y="179" width="33.5" height="7.55"/><rect class="cls-8" x="107.35" y="179" width="58.08" height="7.55"/><polygon class="cls-3" points="415.31 203.83 308.03 203.83 319.71 352.4 427 352.4 415.31 203.83"/><polygon class="cls-8" points="420.85 203.83 313.57 203.83 325.25 352.4 432.53 352.4 420.85 203.83"/><polygon class="cls-5" points="344.37 331.67 335.95 224.56 401.73 224.56 410.15 331.67 344.37 331.67"/><circle class="cls-2" cx="306.5" cy="327.63" r="24.77"/><path class="cls-9" d="M318.62,312.87c-1.48-1.53-2.07-3.36-1.32-4.08s2.55-.07,4,1.46,2.06,3.36,1.31,4.08S320.09,314.39,318.62,312.87Z"/><path class="cls-9" d="M308.33,308.22c-2.09-.4-3.62-1.55-3.42-2.57s2-1.53,4.13-1.12,3.62,1.55,3.42,2.57S310.42,308.62,308.33,308.22Z"/><path class="cls-9" d="M310.44,316.87c-2-.71-3.28-2.28-2.84-3.51s2.4-1.65,4.41-.95,3.28,2.27,2.84,3.5S312.45,317.57,310.44,316.87Z"/></g><g id="freepik--Shadow--inject-1--inject-123"><ellipse id="freepik--path--inject-1--inject-123" class="cls-8" cx="237" cy="386.24" rx="193.89" ry="11.32"/></g><g id="freepik--Character--inject-1--inject-123"><path class="cls-10" d="M194.34,129.17c-12.7-4.45-7.62-40.22-38.17-21-6.92,4.36-15.32,33-9.52,39.6C154.76,157.06,209.33,134.42,194.34,129.17Z"/><path class="cls-11" d="M158.58,163.13c-.25.48-.41.73-.61,1.07l-.58.94c-.39.6-.81,1.18-1.23,1.76q-1.29,1.71-2.75,3.29a33.08,33.08,0,0,1-6.75,5.51,25.65,25.65,0,0,1-8.38,3.32,23.08,23.08,0,0,1-4.54.46,21.53,21.53,0,0,1-2.27-.08l-1.11-.13-.56-.07-.78-.14a11.09,11.09,0,0,1-5-2.74,19.45,19.45,0,0,1-3-3.59,38.32,38.32,0,0,1-3.7-7.45A73.22,73.22,0,0,1,113.43,150l4.3-1a110.31,110.31,0,0,0,5.64,13.53,36,36,0,0,0,3.63,5.81,11.76,11.76,0,0,0,2,2,3.46,3.46,0,0,0,1.6.77l1.32.07a13,13,0,0,0,1.52-.06,16.9,16.9,0,0,0,3-.48A19.31,19.31,0,0,0,142,168.2a24.86,24.86,0,0,0,4.85-4.19,30.05,30.05,0,0,0,2.12-2.52c.33-.44.65-.89.95-1.34l.44-.67.35-.57Z"/><path class="cls-10" d="M161,152.74c-9,0-16.09,8.32-16.09,8.32l11,14.8s8.87-8.34,9.82-13.06C166.67,157.88,166.4,152.71,161,152.74Z"/><path class="cls-11" d="M117.3,151.17l3.92-6.5-9.09.23s-.72,4.29,1.68,7Z"/><polygon class="cls-11" points="120.86 137.06 114.14 138.49 112.13 144.9 121.22 144.67 120.86 137.06"/><polygon class="cls-11" points="206.1 377 197.51 377.82 193.13 357.8 201.72 356.98 206.1 377"/><polygon class="cls-11" points="284.08 351.08 277.57 356.87 262.08 343.66 268.58 337.87 284.08 351.08"/><path class="cls-10" d="M275.22,355.76l3.78-9a.69.69,0,0,1,.82-.41l7.57,1.95a1.42,1.42,0,0,1,.94,1.76s0,.09-.05.13c-1.37,3.12-2.19,4.56-3.85,8.53-1,2.44-2.92,8-4.33,11.37s-4.82,2.15-4.54.62c1.28-6.86.49-10.51-.4-13.38A2.29,2.29,0,0,1,275.22,355.76Z"/><path class="cls-10" d="M196.43,375.22h10.33a.86.86,0,0,1,.82.63l2.24,8.17a1.28,1.28,0,0,1-.87,1.59,1.31,1.31,0,0,1-.39.05c-3.61-.06-5.37-.27-9.91-.27-2.8,0-10,.29-13.88.29s-4.57-3.82-3-4.17c7-1.54,11-3.68,13.2-5.72A2.14,2.14,0,0,1,196.43,375.22Z"/><polygon class="cls-12" points="193.13 357.81 195.39 368.13 204.16 368.13 201.73 356.99 193.13 357.81"/><polygon class="cls-12" points="268.59 337.87 262.08 343.66 270.07 350.47 276.58 344.68 268.59 337.87"/><path class="cls-10" d="M152.6,155.15s-3.61,2.52,18.1,49.52l34.07-9.49c-4.43-13.7-6.83-22.25-8.13-52.55a103.76,103.76,0,0,0-15,2.12,110.9,110.9,0,0,0-15.47,4.31C159.7,151.51,152.6,155.15,152.6,155.15Z"/><path class="cls-11" d="M175.26,127.76c.41,5.25,2,14.64,6.39,17a29.41,29.41,0,0,1-7.09,21.39c-11.82-6.14-8.38-17.08-8.38-17.08,5.18-2.87,3.89-6.95,1.84-10.55Z"/><path class="cls-12" d="M177.08,137.74l-5.94-2a9.66,9.66,0,0,0,.88,3.38c1,1.95,4.31,2.68,6.67,2.44A18.31,18.31,0,0,1,177.08,137.74Z"/><path class="cls-11" d="M158,122.27c2.3,8.33,3.09,11.9,8.26,15.34,7.79,5.16,17.52.52,17.76-8.33.22-8-3.57-20.25-12.54-21.87A11.8,11.8,0,0,0,158,122.27Z"/><path class="cls-10" d="M170.45,106.05c-.68,5.66-4.9,25.12-12.86,25-6.57-5.73-3.33-16.52-1.29-20.91S170.45,106.05,170.45,106.05Z"/><path class="cls-10" d="M167.1,110.06c4,2.13,11.87,3.06,10.62-.19s-.89-6-6.31-5.88S167.1,110.06,167.1,110.06Z"/><path class="cls-11" d="M158.32,130.16a6.28,6.28,0,0,0,3.14,3.66c2,1,3.39-.68,3.19-2.77-.18-1.88-1.43-4.66-3.59-4.78a2.84,2.84,0,0,0-2.74,3.89Z"/><path class="cls-13" d="M170.7,204.67s-2,68.82,3.55,94.8c5.73,27,16.93,65.66,16.93,65.66l16.32-.79s-7.9-49-9.82-69.9c-2.64-28.8-2-96.72-2-96.72Z"/><path class="cls-14" d="M170.7,204.67s-2,68.82,3.55,94.8c5.73,27,16.93,65.66,16.93,65.66l16.32-.79s-7.9-49-9.82-69.9c-2.64-28.8-2-96.72-2-96.72Z"/><path class="cls-12" d="M195.6,223.61c-2.54-6.37-4.77-9.88-5-3.53-.58,13.43,1.76,28.78,5.42,36.39C195.74,245.09,195.65,233.47,195.6,223.61Z"/><polygon class="cls-10" points="208.64 365.13 190.03 366.02 187.84 359.22 208 357.65 208.64 365.13"/><path class="cls-13" d="M179.7,202.16s20.89,56.22,35,87.26c11.37,25.08,51.68,60.11,51.68,60.11l9.16-7.74s-29.14-39.94-37-57c-25.18-54.43-18.61-77.49-33.75-89.66Z"/><path class="cls-14" d="M179.7,202.16s20.89,56.22,35,87.26c11.37,25.08,51.68,60.11,51.68,60.11l9.16-7.74s-29.14-39.94-37-57c-25.18-54.43-18.61-77.49-33.75-89.66Z"/><polygon class="cls-10" points="276.28 341.7 266.04 350.74 260.83 346.97 272.9 336.68 276.28 341.7"/><path class="cls-13" d="M204.72,193l2.39,2.62c.18.21,0,.53-.43.63l-35.72,10c-.31.09-.61,0-.68-.18l-1.16-3c-.08-.21.14-.46.48-.56l34.49-9.6A.65.65,0,0,1,204.72,193Z"/><path class="cls-10" d="M201.16,198.19l.93-.26c.18-.05.29-.18.25-.3l-1.54-3.84c0-.11-.23-.16-.41-.11l-.93.26c-.18.05-.3.18-.25.3l1.54,3.84C200.79,198.19,201,198.24,201.16,198.19Z"/><path class="cls-10" d="M173.64,205.85l.93-.26c.18-.05.3-.18.25-.3l-1.54-3.84c0-.11-.23-.16-.41-.11l-.93.26c-.18.05-.29.18-.25.3l1.54,3.84C173.27,205.85,173.46,205.9,173.64,205.85Z"/><path class="cls-10" d="M187.4,202l.93-.26a.25.25,0,0,0,.25-.3L187,197.62c0-.11-.23-.16-.41-.11l-.93.26a.25.25,0,0,0-.25.3l1.54,3.84A.41.41,0,0,0,187.4,202Z"/><path class="cls-10" d="M171.33,121.93c.14.69.63,1.17,1.07,1.07s.7-.73.56-1.41-.63-1.17-1.08-1.08S171.18,121.24,171.33,121.93Z"/><path class="cls-10" d="M179.1,120.29c.14.69.62,1.17,1.07,1.08s.7-.73.55-1.42-.62-1.17-1.07-1.07S179,119.61,179.1,120.29Z"/><path class="cls-10" d="M179.46,119l1.55-.82S180.43,119.6,179.46,119Z"/><path class="cls-15" d="M177.29,121.91a18.61,18.61,0,0,0,3.38,3.87,3,3,0,0,1-2.36,1Z"/><path class="cls-10" d="M176.54,129.94a.2.2,0,0,0,.08-.21.2.2,0,0,0-.21-.17h0a5.59,5.59,0,0,1-4.89-1.2.21.21,0,0,0-.35.23l.06.06a5.86,5.86,0,0,0,5.26,1.31Z"/><path class="cls-10" d="M168.61,119.85a.36.36,0,0,0,.14-.16,3.3,3.3,0,0,1,2.3-1.89.4.4,0,0,0,.35-.46.41.41,0,0,0-.46-.36,4.08,4.08,0,0,0-2.94,2.36.42.42,0,0,0,.19.55.42.42,0,0,0,.42,0Z"/><path class="cls-10" d="M182,115.91h.06a.42.42,0,0,0,0-.59,4.14,4.14,0,0,0-3.58-1.19.43.43,0,0,0-.32.49.42.42,0,0,0,.5.32,3.26,3.26,0,0,1,2.82,1A.41.41,0,0,0,182,115.91Z"/><path class="cls-11" d="M202.76,150.49c.77.89,1.73,1.93,2.63,2.9s1.87,1.93,2.83,2.87c1.93,1.87,3.91,3.7,6,5.4a61.39,61.39,0,0,0,13.19,8.53c4.4,2,9.75,2.85,15.12,3.23,2.7.2,5.44.27,8.19.22s5.55-.16,8.23-.37l.81,4.34a81.17,81.17,0,0,1-17.33,2.51,58.85,58.85,0,0,1-9-.33,37.71,37.71,0,0,1-9.13-2.16,53.44,53.44,0,0,1-8.23-4,65.88,65.88,0,0,1-7.39-5.09A84.34,84.34,0,0,1,202,162.7c-1.07-1-2.1-2.09-3.12-3.17s-2-2.14-3-3.42Z"/><path class="cls-11" d="M257.83,178l8.61-1.35-7.1-6.77s-3.38,2.74-3.38,6.36Z"/><polygon class="cls-11" points="271.08 169.83 265.09 166.45 259.33 169.93 266.44 176.69 271.08 169.83"/><path class="cls-10" d="M196.64,142.63c3.71.09,11.08,10.7,11.08,10.7l-10.61,13.15s-6.18-8.66-6-13.47C191.35,148,192.42,142.53,196.64,142.63Z"/><path class="cls-13" d="M273.58,360.49l-.3-.14a.69.69,0,0,1-.38-.61c0-1.11,2.56-2.89,2.86-3.09a.22.22,0,0,1,.22,0,.23.23,0,0,1,.1.21c-.19,1.14-.66,3.13-1.66,3.59A1.07,1.07,0,0,1,273.58,360.49Zm2-3.21c-1,.74-2.28,1.87-2.27,2.45,0,.08,0,.17.18.26a.75.75,0,0,0,.75.09C274.79,359.83,275.27,358.8,275.58,357.28Z"/><path class="cls-13" d="M272.3,357.86l-.23-.11a.72.72,0,0,1-.26-.87,1,1,0,0,1,.59-.69c1.14-.55,3.46.4,3.55.44a.21.21,0,0,1,.12.27.22.22,0,0,1-.07.09A5.49,5.49,0,0,1,272.3,357.86Zm3.05-1a4.47,4.47,0,0,0-2.77-.29.65.65,0,0,0-.38.44c-.07.25,0,.35.1.4.51.34,2.19,0,3.12-.53Z"/><path class="cls-13" d="M191.85,376.93a3.42,3.42,0,0,1-2-.48,1.28,1.28,0,0,1-.52-1,.61.61,0,0,1,.26-.56c.93-.63,4.45,1,5.15,1.29a.21.21,0,0,1,.09.28.19.19,0,0,1-.14.11A13.55,13.55,0,0,1,191.85,376.93Zm-1.65-1.78a.78.78,0,0,0-.4.08c-.05,0-.09.08-.08.2a.87.87,0,0,0,.36.69c.61.46,2,.52,3.88.17a12.78,12.78,0,0,0-3.76-1.14Z"/><path class="cls-13" d="M194.63,376.58h-.08c-1.16-.48-3.52-2.36-3.38-3.34,0-.21.17-.48.7-.54,2-.25,2.92,3.48,3,3.64a.21.21,0,0,1-.07.21A.25.25,0,0,1,194.63,376.58Zm-2.57-3.5h-.14c-.22,0-.33.09-.35.19-.07.56,1.55,2.05,2.74,2.71C194,375.09,193.3,373.08,192.06,373.08Z"/><path class="cls-10" d="M171.69,120.59l1.55-.82S172.67,121.24,171.69,120.59Z"/></g><g id="freepik--Plant--inject-1--inject-123"><path class="cls-13" d="M222.93,214.49S205.16,229,211.77,260.94c3.9,18.83,15.65,28.41,25.94,26.32s17.38-15.49,13.62-34.35C245,220.93,222.93,214.49,222.93,214.49Z"/><path class="cls-16" d="M222.93,214.49S205.16,229,211.77,260.94c3.9,18.83,15.65,28.41,25.94,26.32s17.38-15.49,13.62-34.35C245,220.93,222.93,214.49,222.93,214.49Z"/><path class="cls-13" d="M335,152.53s-32.63-7.25-63.23,29.08c-18,21.43-18.41,43.51-6.75,53.4s33.39,5.94,51.59-15.35C347.43,183.55,335,152.53,335,152.53Z"/><path class="cls-13" d="M292.1,8.33s-7.29,2-9.55,12.51c-1.34,6.2.93,10.65,4.31,11.39s7.3-2.35,8.68-8.53C297.88,13.21,292.1,8.33,292.1,8.33Z"/><path class="cls-13" d="M234.3,331.59a156.56,156.56,0,0,1-5.84-45.71A179.79,179.79,0,0,1,235,241.59a214.3,214.3,0,0,1,6.9-20.83c1.31-3.39,2.71-6.73,4.17-10,.7-1.67,1.5-3.28,2.24-4.92l1.12-2.38,1.09-2.3c5.83-12.25,11.38-24.58,16.39-37.09A382.9,382.9,0,0,0,280,125.94a233.9,233.9,0,0,0,7.75-39.42,142.14,142.14,0,0,0-1.24-40.09A100.36,100.36,0,0,0,271.5,8.84,102.35,102.35,0,0,1,291,45.31a148.58,148.58,0,0,1,6,41.58,244.28,244.28,0,0,1-3.49,42,390.89,390.89,0,0,1-9.19,41c-3.72,13.48-8,26.77-12.54,39.9l-.85,2.46-.43,1.23-.39,1.16c-.5,1.56-1.06,3.09-1.52,4.65-1,3.11-1.88,6.22-2.7,9.35a188.48,188.48,0,0,0-4,18.82,150,150,0,0,0-1.33,37.39,122.13,122.13,0,0,0,8.51,35Z"/><path class="cls-12" d="M234.3,331.59a156.56,156.56,0,0,1-5.84-45.71A179.79,179.79,0,0,1,235,241.59a214.3,214.3,0,0,1,6.9-20.83c1.31-3.39,2.71-6.73,4.17-10,.7-1.67,1.5-3.28,2.24-4.92l1.12-2.38,1.09-2.3c5.83-12.25,11.38-24.58,16.39-37.09A382.9,382.9,0,0,0,280,125.94a233.9,233.9,0,0,0,7.75-39.42,142.14,142.14,0,0,0-1.24-40.09A100.36,100.36,0,0,0,271.5,8.84,102.35,102.35,0,0,1,291,45.31a148.58,148.58,0,0,1,6,41.58,244.28,244.28,0,0,1-3.49,42,390.89,390.89,0,0,1-9.19,41c-3.72,13.48-8,26.77-12.54,39.9l-.85,2.46-.43,1.23-.39,1.16c-.5,1.56-1.06,3.09-1.52,4.65-1,3.11-1.88,6.22-2.7,9.35a188.48,188.48,0,0,0-4,18.82,150,150,0,0,0-1.33,37.39,122.13,122.13,0,0,0,8.51,35Z"/><path class="cls-13" d="M303.23,295.84l-1,11.44-6.66,74.33a5.08,5.08,0,0,1-5.06,4.63H206.05a5.09,5.09,0,0,1-5.06-4.63l-6.65-74.33-1-11.44Z"/><path class="cls-13" d="M231.68,60.35s-18.86,25.11.37,65.37c11.34,23.74,30.09,32.61,43.07,26.47s18-26.27,6.86-50.09C263.05,61.7,231.68,60.35,231.68,60.35Z"/><path class="cls-12" d="M231.68,60.35s-18.86,25.11.37,65.37c11.34,23.74,30.09,32.61,43.07,26.47s18-26.27,6.86-50.09C263.05,61.7,231.68,60.35,231.68,60.35Z"/><polygon class="cls-12" points="303.23 295.84 302.2 307.28 194.34 307.28 193.31 295.84 303.23 295.84"/><rect class="cls-13" x="184.38" y="281.73" width="127.77" height="19.83" rx="2.39"/><circle class="cls-13" cx="333.36" cy="85.27" r="40.04"/><path class="cls-17" d="M365.47,95.19a32.8,32.8,0,1,0-58.66,10.71,33.63,33.63,0,1,1,58.66-10.71Z"/><path class="cls-4" d="M345.69,91.06l-4,8.47a2.6,2.6,0,0,1-1.56,1.36,2.65,2.65,0,0,1-2.1-.1l-7.45-3.52-2.82,6a2.58,2.58,0,0,1-1.54,1.39,2.68,2.68,0,0,1-2.06-.1,2.71,2.71,0,0,1-1.44-1.55,2.6,2.6,0,0,1,.09-2.08l2.85-6-7.39-3.49a2.7,2.7,0,0,1,2.3-4.89l17.29,8.16,1.66-3.52L322.31,83A2.67,2.67,0,0,1,321,79.47l0-.07L325,71a2.69,2.69,0,0,1,3.56-1.31l0,0,7.33,3.46,2.82-6a2.66,2.66,0,0,1,3.52-1.32l.16.08a2.55,2.55,0,0,1,1.37,1.51,2.62,2.62,0,0,1-.1,2.07l-2.82,6L348.4,79a2.62,2.62,0,0,1,1.41,1.56,2.57,2.57,0,0,1-.06,2.07A2.81,2.81,0,0,1,346.06,84L328.77,75.8l-1.64,3.49,17.22,8.13A2.66,2.66,0,0,1,345.77,89,2.56,2.56,0,0,1,345.69,91.06Z"/></g></svg>