<svg id="Layer_1" data-name="Layer 1" xmlns="http://www.w3.org/2000/svg" viewBox="0 0 366.62 143.51"><defs><style>.cls-1{fill:#24545e;}</style></defs><path class="cls-1" d="M1.82,129.6v-2.77l3.59-.61V101l-3.59-.61V97.61H26.39v7.69H22.68L22.33,101H9.74v10.35H22v3.41H9.74v11.45H22.59l.35-4.29h3.69v7.67Z"/><path class="cls-1" d="M31.45,126.83l2.55-.5,7-8.75-6.79-8.46-2.55-.5v-2.79H41v2.79l-2.15.26,4.44,5.71,4.46-5.73-2.13-.24v-2.79H55v2.79l-2.55.5-6.79,8.46,7,8.75,2.57.5v2.77H45.88v-2.77l2.11-.24-4.65-6-4.66,6,2.13.24v2.77H31.45Z"/><path class="cls-1" d="M58.83,136l3.58-.61V109.23l-3.58-.61v-2.79h7.3l.39,2.9a8,8,0,0,1,2.89-2.49,8.69,8.69,0,0,1,3.94-.85,7.88,7.88,0,0,1,6.87,3.5,15.88,15.88,0,0,1,2.45,9.26v.46a13.11,13.11,0,0,1-2.46,8.3,8.13,8.13,0,0,1-6.79,3.15,9.49,9.49,0,0,1-3.86-.73,7.49,7.49,0,0,1-2.82-2.19v8.2l3.58.61v2.79H58.83Zm19.49-17.8a12.68,12.68,0,0,0-1.58-6.66A5.18,5.18,0,0,0,72,108.9a5.79,5.79,0,0,0-3.17.84A6.24,6.24,0,0,0,66.74,112V123.6a5.64,5.64,0,0,0,5.34,3.08,5.36,5.36,0,0,0,4.66-2.24,9.94,9.94,0,0,0,1.58-5.83Z"/><path class="cls-1" d="M98.58,130.06a10,10,0,0,1-7.9-3.31,12.46,12.46,0,0,1-2.93-8.58v-1a12.21,12.21,0,0,1,3-8.45,9.31,9.31,0,0,1,7.15-3.37c3.2,0,5.62,1,7.27,2.9a11.55,11.55,0,0,1,2.47,7.73v2.7H92.23l-.06.11a9.39,9.39,0,0,0,1.73,5.64,5.55,5.55,0,0,0,4.68,2.21,10.85,10.85,0,0,0,3.86-.63,9,9,0,0,0,2.87-1.72l1.69,2.81a10.47,10.47,0,0,1-3.37,2.08A13.58,13.58,0,0,1,98.58,130.06Zm-.66-21.27a4.67,4.67,0,0,0-3.71,1.84,8.74,8.74,0,0,0-1.89,4.6l.05.11h11v-.57a6.61,6.61,0,0,0-1.36-4.26A4.85,4.85,0,0,0,97.92,108.79Z"/><path class="cls-1" d="M112.41,126.83l3.58-.61v-17l-3.58-.61v-2.79h7.45l.31,3.53a8.66,8.66,0,0,1,3-2.93,7.91,7.91,0,0,1,4.08-1,7.75,7.75,0,0,1,5.95,2.25q2.12,2.25,2.11,7v11.63l3.58.61v2.77H127.37v-2.77l3.58-.61V114.68c0-2.09-.41-3.58-1.24-4.46a5,5,0,0,0-3.79-1.32,6.13,6.13,0,0,0-3.31.9,6.62,6.62,0,0,0-2.29,2.46v14l3.58.61v2.77H112.41Z"/><path class="cls-1" d="M161.32,113.3h-3.25l-.7-2.86a5.84,5.84,0,0,0-2-1.2,7.66,7.66,0,0,0-2.71-.45,5,5,0,0,0-3.43,1,3.17,3.17,0,0,0-1.12,2.44,2.71,2.71,0,0,0,1,2.22,10.22,10.22,0,0,0,4,1.45,17.32,17.32,0,0,1,6.7,2.63A5.27,5.27,0,0,1,162,123a6.17,6.17,0,0,1-2.56,5.12,10.76,10.76,0,0,1-6.69,1.95,17.69,17.69,0,0,1-4.86-.62,13,13,0,0,1-3.84-1.82l0-5.42h3.26l.81,3.18a4.4,4.4,0,0,0,2,1,11,11,0,0,0,2.63.31,6.07,6.07,0,0,0,3.61-.94,2.88,2.88,0,0,0,1.31-2.45,2.94,2.94,0,0,0-1.09-2.35,10.23,10.23,0,0,0-4.12-1.6,17.34,17.34,0,0,1-6.52-2.57,5.19,5.19,0,0,1-2.2-4.4,6.19,6.19,0,0,1,2.47-4.94,9.77,9.77,0,0,1,6.43-2,15.52,15.52,0,0,1,4.85.7,10,10,0,0,1,3.58,2Z"/><path class="cls-1" d="M178.05,130.06a10,10,0,0,1-7.9-3.31,12.41,12.41,0,0,1-2.93-8.58v-1a12.16,12.16,0,0,1,3-8.45,9.29,9.29,0,0,1,7.15-3.37c3.19,0,5.61,1,7.26,2.9a11.5,11.5,0,0,1,2.47,7.73v2.7H171.7l-.07.11a9.46,9.46,0,0,0,1.74,5.64,5.53,5.53,0,0,0,4.68,2.21,10.89,10.89,0,0,0,3.86-.63,8.91,8.91,0,0,0,2.86-1.72l1.7,2.81a10.53,10.53,0,0,1-3.38,2.08A13.56,13.56,0,0,1,178.05,130.06Zm-.66-21.27a4.66,4.66,0,0,0-3.71,1.84,8.59,8.59,0,0,0-1.89,4.6l0,.11h11v-.57a6.62,6.62,0,0,0-1.37-4.26A4.82,4.82,0,0,0,177.39,108.79Z"/><path class="cls-1" d="M220,97.61v8.52H215l-.26-3.58h-5.89V125.1l3.43.66v3.84H199v-3.84l3.43-.66V102.55H196.6l-.26,3.58h-4.9V97.61Z"/><path class="cls-1" d="M222.38,125.76l3.07-.66V110.35l-3.4-.66v-3.86h9.38l.29,3.47a7.42,7.42,0,0,1,2.15-2.88,4.81,4.81,0,0,1,3-1,8,8,0,0,1,1.07.07,6.84,6.84,0,0,1,.93.19l-.68,5.84-2.64-.06a4.43,4.43,0,0,0-2.32.55,3.45,3.45,0,0,0-1.41,1.56V125.1l3.08.66v3.84H222.38Z"/><path class="cls-1" d="M256.66,129.6a10.53,10.53,0,0,1-.46-1.22,9.64,9.64,0,0,1-.31-1.26,8.77,8.77,0,0,1-2.78,2.13,8.34,8.34,0,0,1-3.75.81,7.83,7.83,0,0,1-5.54-1.9,6.7,6.7,0,0,1-2.06-5.17,5.91,5.91,0,0,1,2.68-5.17q2.69-1.81,7.87-1.82h3.27v-2.33a3.51,3.51,0,0,0-1-2.66,4.07,4.07,0,0,0-2.92-.94,6.83,6.83,0,0,0-1.95.25,5.21,5.21,0,0,0-1.39.6l-.42,2.55h-4.83l0-5.27a18,18,0,0,1,4-2,14.7,14.7,0,0,1,5-.81,11.3,11.3,0,0,1,7.17,2.16,7.37,7.37,0,0,1,2.76,6.16v9.83c0,.36,0,.71,0,1a6.7,6.7,0,0,0,.08.92l1.95.27v3.84Zm-5.56-4.28a5.53,5.53,0,0,0,2.64-.63,5.1,5.1,0,0,0,1.84-1.57v-3.63h-3.27a4.46,4.46,0,0,0-3.1,1,3,3,0,0,0-1.05,2.29,2.37,2.37,0,0,0,.78,1.89A3.15,3.15,0,0,0,251.1,125.32Z"/><path class="cls-1" d="M278.53,125.14a3.76,3.76,0,0,0,2.74-1,3.55,3.55,0,0,0,1-2.67h5.8l.06.13a7.4,7.4,0,0,1-2.7,6,10.18,10.18,0,0,1-6.94,2.43q-5.32,0-8.2-3.36a12.81,12.81,0,0,1-2.88-8.64v-.65a12.66,12.66,0,0,1,3-8.64c2-2.26,4.78-3.38,8.42-3.38a14.72,14.72,0,0,1,5.17.85,10.21,10.21,0,0,1,3.8,2.42l.09,6.35h-5.21l-1.06-3.71a3.87,3.87,0,0,0-1.18-.69,4.28,4.28,0,0,0-1.61-.28,4.05,4.05,0,0,0-3.84,2,10.25,10.25,0,0,0-1.12,5.1v.65a10.9,10.9,0,0,0,1,5.13A3.75,3.75,0,0,0,278.53,125.14Z"/><path class="cls-1" d="M291.52,99.19V95.32h9.82v19.87h1.43l3.69-5.21-2.09-.29v-3.86h11.69v3.86l-2.81.64L309,116.22l6,9,2.44.51v3.84h-11v-3.84l1.32-.22-3.64-5.89h-2.75v5.45l2.77.66v3.84H291.85v-3.84l3.09-.66V99.85Z"/><path class="cls-1" d="M331.71,130.06a10.73,10.73,0,0,1-8.22-3.29,11.8,11.8,0,0,1-3.07-8.38v-.87a13,13,0,0,1,2.91-8.73,10.86,10.86,0,0,1,15.28-.5,11.17,11.17,0,0,1,2.66,7.84v3.49h-14.2l0,.14a6.22,6.22,0,0,0,1.57,3.86,4.9,4.9,0,0,0,3.79,1.52,12.22,12.22,0,0,0,3.54-.43,15.42,15.42,0,0,0,3.07-1.35l1.74,4a12.8,12.8,0,0,1-3.81,2A16.16,16.16,0,0,1,331.71,130.06Zm-.57-19.73a3.31,3.31,0,0,0-2.81,1.36,7.07,7.07,0,0,0-1.28,3.58l.07.11H335v-.57a5.12,5.12,0,0,0-1-3.26A3.46,3.46,0,0,0,331.14,110.33Z"/><path class="cls-1" d="M345.91,125.76l3.07-.66V110.35l-3.4-.66v-3.86H355l.29,3.47a7.42,7.42,0,0,1,2.15-2.88,4.81,4.81,0,0,1,3.06-1,8,8,0,0,1,1.06.07,6.53,6.53,0,0,1,.93.19l-.68,5.84-2.63-.06a4.44,4.44,0,0,0-2.33.55,3.45,3.45,0,0,0-1.41,1.56V125.1l3.08.66v3.84H345.91Z"/><path class="cls-1" d="M214.9,42.18V35a22.4,22.4,0,0,0,4.53-2.07v6.24C219.43,40,217.84,41.08,214.9,42.18Zm0,19.71c-.16,1-2.48,2.37-6.6,3.65-5.34,1.65-13.7,3.16-24.29,3.62l-1.63.07-1.37,0c-1.24,0-2.51,0-3.82,0s-2.58,0-3.83,0l-1.35,0-1.64-.07c-10.59-.47-18.95-2-24.28-3.63-4-1.23-6.3-2.54-6.59-3.55.45.16.91.31,1.39.46l.15,0c.4.13.82.25,1.25.37l.49.13.73.19A109.38,109.38,0,0,0,163.58,66h0c2.34.14,4.73.23,7.15.26l1.9,0,2.55,0q3.3-.06,6.5-.24h0q3.89-.22,7.5-.65h0l.09,0c2.68-.31,5.22-.69,7.58-1.14.49-.08,1-.18,1.44-.27l.31-.07a40.77,40.77,0,0,0,11-3.56l.41-.24.49-.31c.14-.09.31-.18.44-.28C214,60.56,214.78,61.51,214.88,61.89Zm-4.51,13.49V68.16a22.68,22.68,0,0,0,4.53-2.08v6.24C214.9,73.17,213.31,74.28,210.37,75.38Zm-70.93-3V66.08A22.15,22.15,0,0,0,144,68.15v7.23C141,74.28,139.44,73.18,139.44,72.33Zm-4.53-16.6V49.48a22.4,22.4,0,0,0,4.53,2.07v7.2l-.86-.33h0C136.19,57.45,134.92,56.49,134.91,55.73Zm7.31-13.83.08.07c2.07,2.09,6.35,3.72,11.67,5l.38.08,1.19.26a117.52,117.52,0,0,0,17.09,2.17h0c2,.11,4.13.2,6.27.23.94,0,1.87,0,2.78,0s2.11,0,3.19,0c2,0,3.92-.12,5.84-.24h.06a117.76,117.76,0,0,0,17.42-2.23,26.65,26.65,0,0,1-4.46,1.74c-5.64,1.75-14.64,3.33-26.08,3.7l-1,0-1.12,0-2.89,0c-1.3,0-2.57,0-3.82,0l-1.37-.05c-.55,0-1.09,0-1.63-.06-10.59-.47-18.94-2-24.28-3.63-4.15-1.28-6.48-2.64-6.61-3.67C135.1,44.69,136.62,43.27,142.22,41.9ZM134.91,21V14.77a23,23,0,0,0,4.53,2.07v7.23C136.51,23,134.92,21.86,134.91,21Zm37.73-16.6c24.89,0,37.47,3.92,37.71,6.17-.18,1-2.5,2.36-6.6,3.63-5.34,1.65-13.7,3.16-24.28,3.63-.55,0-1.09,0-1.64.06l-1.36,0c-1.25,0-2.52.05-3.83.05s-2.57,0-3.82-.05l-1.37,0c-.55,0-1.09,0-1.63-.06-10.59-.47-18.94-2-24.28-3.63-4.11-1.27-6.42-2.61-6.6-3.63C135.17,8.34,147.76,4.42,172.64,4.42Zm46.77,24.25c-.14,1-2.46,2.38-6.61,3.66C207.46,34,199.11,35.49,188.52,36l-1.63.07-1.37,0c-1.25,0-2.51,0-3.82,0s-2.58,0-3.83,0l-1.36,0c-.55,0-1.09,0-1.63-.06-10.59-.47-18.95-2-24.29-3.63-4.11-1.27-6.43-2.62-6.6-3.64a.47.47,0,0,1,0-.09l.32.07c.59.14,1.19.28,1.81.41,3,.64,6.32,1.17,9.86,1.58h0c2.41.28,4.91.49,7.48.65h.09c1.85.11,3.72.19,5.61.23,1.16,0,2.3.05,3.41.05l2.43,0c11-.17,21.13-1.47,28.2-3.49l1-.28.57-.18c.55-.17,1.07-.35,1.57-.54l.26-.1c.43-.16.84-.33,1.23-.5l.34-.15c.42-.19.82-.38,1.2-.58l.47-.27c.18-.11.37-.21.53-.32l.3-.18C217.46,26.44,219.24,28,219.41,28.67Zm-8.19,14.68c-.75.21-1.54.41-2.36.6l-1.15.26-.35.07V36.92c1.6-.32,3.11-.66,4.52-1v7.29ZM194,46.18c-.57,0-1.15.08-1.72.12V38.79c1.53-.11,3-.23,4.53-.37v7.49l-2.65.26Zm10.22-1.29c-.67.12-1.34.23-2,.33l-1.2.18-1.17.15V38.09c1.56-.18,3.07-.4,4.53-.63v7.41ZM184.69,39.1c1.52,0,3-.07,4.55-.14v7.52c-2,.1-4,.16-6,.18V39.12h1.48ZM148.5,35v7.17c-2.38-.91-3.91-1.85-4.4-2.68l-.11-.17c0-.05,0-.1,0-.14V32.88A22.44,22.44,0,0,0,148.5,35Zm7.54,2v7.35c-1.67-.36-3.18-.74-4.53-1.13V35.87C152.92,36.25,154.44,36.6,156,36.92Zm4.75,8.24-1.73-.3v-7.4c1.46.23,3,.45,4.53.63v7.47q-1.4-.18-2.7-.39Zm10,1.12-.61,0L167.32,46l-.59-.06-.12,0V38.42c1.48.14,3,.26,4.52.37v7.52ZM154.53,20v7.46l-.9-.11-.57-.09c-.87-.12-1.72-.25-2.56-.39l-.49-.09V19.35C151.47,19.58,153,19.8,154.53,20Zm3,7.82V20.31c1.49.14,3,.26,4.53.37v7.51Q159.77,28,157.55,27.8Zm30.18-7.49v7.48c-1.45.16-3,.29-4.52.4V20.68C184.74,20.57,186.25,20.45,187.73,20.31Zm10.57,5.85V18.81c1.6-.32,3.12-.66,4.53-1V25C201.47,25.43,200,25.81,198.3,26.16Zm-7.55,1.28V20c1.56-.18,3.07-.4,4.53-.63v7.39C193.85,27,192.34,27.23,190.75,27.44ZM210,21.75H210l-.54.43a15,15,0,0,1-3.6,1.85V16.84a22.44,22.44,0,0,0,4.53-2.07V21A1.2,1.2,0,0,1,210,21.75ZM175.64,21c1.52,0,3-.07,4.55-.14v7.53l-.76,0h-.07c-1,0-2,.08-3.09.1h-.49l-1.63,0V21h1.49Zm-5.75,0h1.24v7.54c-2,0-4-.07-6-.17V20.85c1.51.07,3,.12,4.55.14Zm-27.43,4.06V17.77c1.41.38,2.92.72,4.53,1v7.36l-.56-.11c-.8-.18-1.59-.36-2.34-.56C143.52,25.36,143,25.21,142.46,25.06Zm35.2,21.56c-1.13,0-2.24-.07-3.33-.12h-.18V39c1.51.07,3,.11,4.55.14h1.49v7.54c-.74,0-1.48,0-2.2,0Zm20.64,6.9c1.6-.32,3.12-.66,4.53-1v7.29c-1.35.38-2.86.76-4.53,1.11Zm-7.55,8.64V54.69c1.56-.18,3.07-.4,4.53-.63v7.41Q193.15,61.85,190.75,62.16Zm-6.54.68-1,.07V55.39c1.53-.1,3-.23,4.52-.37v7.49c-.93.1-1.88.19-2.86.27Zm-29.68-8.15v7.47c-1.59-.21-3.1-.44-4.52-.69V54.06C151.47,54.29,153,54.51,154.53,54.69Zm3.8,7.91-.45-.05-.33,0V55c1.49.14,3,.27,4.53.37v7.52C160.81,62.82,159.56,62.72,158.33,62.6Zm3.75,9c1.48.14,3,.27,4.53.37v7.52q-2.36-.17-4.53-.39Zm-7.55-1c1.46.24,3,.45,4.53.64v7.46c-1.59-.21-3.11-.44-4.53-.69Zm-3-.54v7.37c-1.66-.36-3.18-.74-4.52-1.12V69.08C148.4,69.46,149.91,69.81,151.51,70.12Zm51.32,0c1.6-.32,3.11-.66,4.52-1v7.29c-1.34.38-2.85.76-4.52,1.12Zm-7.55,1.17c1.56-.18,3.07-.4,4.53-.63v7.41q-2.13.38-4.53.69Zm-3,.33v7.5q-2.17.22-4.53.39V72C189.27,71.89,190.78,71.76,192.26,71.62Zm-12.1.68c1.52,0,3-.07,4.56-.14v7.53q-2.91.15-6,.18V72.32h1.48Zm-5.74,0,1.24,0v7.54c-2.08,0-4.1-.08-6-.18V72.16c1.52.07,3,.12,4.56.14Zm-31.81-12.5-.15,0V52.48c1.41.38,2.92.72,4.53,1v7.37c-1.39-.3-2.67-.61-3.83-.92Zm27.25,3.44-2.06,0h-.25l-2.45-.1V55.56c1.51.07,3,.11,4.55.14h1.48v7.55h-1.27Zm6.6,0h-.67l-1.64,0V55.72l1.25,0h.24c1.52,0,3-.08,4.55-.14v7.53l-1,0Q177.86,63.2,176.46,63.23Zm33.75-7-.52.45a13.42,13.42,0,0,1-3.85,2.08v-7.2a21.9,21.9,0,0,0,4.53-2.07v6.24A.94.94,0,0,1,210.21,56.22Zm12.22-27.65c-.15-2.59-3.22-4.6-9.36-6.14a3.53,3.53,0,0,0,.32-1.41V10.46h0c-.55-8.8-36.59-9.06-40.73-9.06s-40.18.26-40.72,9.06h0V21c0,2.87,3.7,5.11,9.21,6.78a3.37,3.37,0,0,0-.14.77h0V39.11c-5.93,1.53-8.89,3.52-9,6.06h0V55.73c0,2,1.8,3.69,4.75,5.1a3.1,3.1,0,0,0-.2.94h0V72.33c0,5,11.32,8.14,23.88,9.59a1.18,1.18,0,0,0,.27.06l.08,0c2.42.28,4.88.49,7.32.64a.66.66,0,0,0,.15,0h.07c3.09.18,6.14.28,9,.28s5.89-.1,9-.29l.08,0c.05,0,.09,0,.15,0,2.43-.15,4.89-.36,7.31-.64l.08,0a1.4,1.4,0,0,0,.28-.06c12.55-1.45,23.85-4.57,23.87-9.59V61.77h0c-.1-1.85-1.68-3.4-4.79-4.69a3.31,3.31,0,0,0,.29-1.35V45.86c5.42-1.66,9.05-3.89,9.06-6.73V28.57Z"/></svg>