<?xml version="1.0" encoding="utf-8"?>
<!-- Generator: Adobe Illustrator 25.2.1, SVG Export Plug-In . SVG Version: 6.00 Build 0)  -->
<svg version="1.1" id="Layer_1" xmlns="http://www.w3.org/2000/svg" xmlns:xlink="http://www.w3.org/1999/xlink" x="0px" y="0px"
	 viewBox="0 0 456 64.3" style="enable-background:new 0 0 456 64.3;" xml:space="preserve">
<style type="text/css">
	.st0{fill:#24545E;}
</style>
<path class="st0" d="M89.6,50.4v-2.8l3.6-0.6V21.8l-3.6-0.6v-2.8h24.6v7.7h-3.7l-0.4-4.3H97.5v10.4h12.2v3.4H97.5v11.4h12.9l0.4-4.3
	h3.7v7.7L89.6,50.4z"/>
<path class="st0" d="M119.2,47.7l2.6-0.5l7-8.8L122,30l-2.6-0.5v-2.8h9.3v2.8l-2.1,0.3l4.4,5.7l4.5-5.7l-2.1-0.2v-2.8h9.4v2.8
	l-2.6,0.5l-6.8,8.5l7,8.8l2.6,0.5v2.8h-9.3v-2.8l2.1-0.2l-4.7-6l-4.7,6l2.1,0.2v2.8h-9.4L119.2,47.7z"/>
<path class="st0" d="M146.6,56.8l3.6-0.6V30.1l-3.6-0.6v-2.8h7.3l0.4,2.9c0.7-1.1,1.7-1.9,2.9-2.5c1.2-0.6,2.6-0.9,3.9-0.8
	c2.7-0.1,5.3,1.2,6.9,3.5c1.8,2.8,2.6,6,2.5,9.3v0.5c0.1,3-0.7,5.9-2.5,8.3c-1.6,2.1-4.2,3.3-6.8,3.2c-1.3,0-2.6-0.2-3.9-0.7
	c-1.1-0.5-2.1-1.2-2.8-2.2v8.2l3.6,0.6v2.8h-11.5V56.8z M166.1,39c0.1-2.3-0.5-4.6-1.6-6.7c-1-1.7-2.8-2.7-4.7-2.6
	c-1.1,0-2.2,0.3-3.2,0.8c-0.9,0.6-1.6,1.4-2.1,2.3v11.6c0.5,0.9,1.2,1.7,2.1,2.3c1,0.6,2.1,0.8,3.2,0.8c1.8,0.1,3.6-0.7,4.6-2.2
	c1.1-1.7,1.7-3.8,1.6-5.8L166.1,39z"/>
<path class="st0" d="M186.3,50.9c-3,0.1-5.9-1.1-7.9-3.3c-2-2.4-3.1-5.5-2.9-8.6v-1c-0.1-3.1,1-6.1,3-8.5c1.8-2.1,4.4-3.4,7.1-3.4
	c3.2,0,5.6,1,7.3,2.9c1.7,2.2,2.6,4.9,2.5,7.7v2.7H180l-0.1,0.1c0,2,0.6,4,1.7,5.6c1.1,1.5,2.9,2.3,4.7,2.2c1.3,0,2.6-0.2,3.9-0.6
	c1-0.4,2-0.9,2.8-1.7l1.7,2.8c-1,0.9-2.1,1.6-3.4,2.1C189.7,50.7,188,50.9,186.3,50.9z M185.7,29.6c-1.4,0-2.8,0.7-3.7,1.8
	c-1.1,1.3-1.7,2.9-1.9,4.6v0.1h11v-0.6c0.1-1.5-0.4-3-1.4-4.3C188.7,30.1,187.2,29.5,185.7,29.6z"/>
<path class="st0" d="M200.1,47.7l3.6-0.6v-17l-3.6-0.6v-2.8h7.4l0.3,3.5c0.7-1.2,1.8-2.2,3-2.9c1.2-0.7,2.6-1,4.1-1
	c2.2-0.1,4.4,0.7,6,2.2c1.4,1.5,2.1,3.8,2.1,7v11.5l3.6,0.6v2.8h-11.5v-2.8l3.6-0.6V35.5c0-2.1-0.4-3.6-1.2-4.5
	c-1-0.9-2.4-1.4-3.8-1.3c-1.2,0-2.3,0.3-3.3,0.9c-1,0.6-1.8,1.5-2.3,2.5v14l3.6,0.6v2.8h-11.5L200.1,47.7z"/>
<path class="st0" d="M249.1,34.1h-3.2l-0.7-2.9c-0.6-0.5-1.3-0.9-2-1.2c-0.9-0.3-1.8-0.5-2.7-0.5c-1.2-0.1-2.4,0.3-3.4,1
	c-0.7,0.6-1.1,1.5-1.1,2.4c0,0.9,0.3,1.7,1,2.2c1.2,0.8,2.6,1.3,4,1.5c2.4,0.4,4.7,1.3,6.7,2.6c1.4,1,2.2,2.7,2.2,4.4
	c0.1,2-0.9,4-2.5,5.2c-1.9,1.4-4.3,2.1-6.7,2c-1.6,0-3.3-0.2-4.9-0.6c-1.4-0.4-2.7-1-3.9-1.8v-5.4h3.2l0.8,3.2c0.6,0.5,1.3,0.8,2,1
	c0.9,0.2,1.7,0.3,2.6,0.3c1.3,0.1,2.5-0.3,3.6-0.9c0.8-0.5,1.3-1.5,1.3-2.4c0-0.9-0.4-1.8-1.1-2.3c-1.2-0.8-2.6-1.4-4.1-1.6
	c-2.3-0.4-4.6-1.3-6.5-2.6c-1.4-1-2.2-2.7-2.2-4.4c0-2,1-3.9,2.6-5.1c1.8-1.4,4.1-2.1,6.4-2c1.6,0,3.3,0.2,4.9,0.7
	c1.3,0.4,2.5,1.1,3.6,2L249.1,34.1z"/>
<path class="st0" d="M265.8,50.9c-3,0.1-5.9-1.1-7.9-3.3c-2-2.4-3-5.5-2.9-8.6v-1c-0.1-3.1,1-6.1,3-8.5c1.8-2.1,4.4-3.4,7.2-3.4
	c3.2,0,5.6,1,7.3,2.9c1.7,2.2,2.6,4.9,2.5,7.7v2.7h-15.5l-0.1,0.1c0,2,0.6,4,1.7,5.6c1.1,1.5,2.9,2.3,4.7,2.2c1.3,0,2.6-0.2,3.9-0.6
	c1.1-0.4,2-1,2.9-1.7l1.7,2.9c-1,0.9-2.1,1.6-3.4,2.1C269.2,50.7,267.5,50.9,265.8,50.9z M265.1,29.6c-1.5,0-2.8,0.7-3.7,1.8
	c-1.1,1.3-1.7,2.9-1.9,4.6l0,0.1h11v-0.6c0.1-1.5-0.4-3-1.4-4.3C268.2,30.2,266.7,29.5,265.1,29.6z"/>
<path class="st0" d="M307.7,18.5V27h-4.9l-0.3-3.6h-5.9v22.5l3.4,0.7v3.8h-13.3v-3.9l3.4-0.7V23.4h-5.9l-0.3,3.6h-4.9v-8.5H307.7z"
	/>
<path class="st0" d="M310.1,46.6l3.1-0.7V31.2l-3.4-0.7v-3.9h9.4l0.3,3.5c0.5-1.1,1.2-2.1,2.1-2.9c0.9-0.7,2-1,3.1-1
	c0.4,0,0.7,0,1.1,0.1c0.3,0,0.6,0.1,0.9,0.2l-0.7,5.8l-2.6-0.1c-0.8,0-1.6,0.2-2.3,0.5c-0.6,0.4-1.1,0.9-1.4,1.6v11.6l3.1,0.7v3.8
	h-12.6V46.6z"/>
<path class="st0" d="M344.4,50.4c-0.2-0.4-0.3-0.8-0.5-1.2c-0.1-0.4-0.2-0.8-0.3-1.3c-0.8,0.9-1.7,1.6-2.8,2.1
	c-1.2,0.6-2.5,0.8-3.8,0.8c-2,0.1-4-0.6-5.5-1.9c-1.4-1.3-2.1-3.2-2-5.2c-0.1-2.1,0.9-4,2.7-5.2c1.8-1.2,4.4-1.8,7.9-1.8h3.3v-2.3
	c0.1-1-0.3-2-1-2.7c-0.8-0.7-1.9-1-2.9-0.9c-0.7,0-1.3,0.1-2,0.2c-0.5,0.1-1,0.3-1.4,0.6l-0.4,2.5h-4.8V29c1.2-0.8,2.6-1.5,4-2
	c1.6-0.6,3.3-0.8,5-0.8c2.6-0.1,5.2,0.6,7.3,2.2c1.9,1.5,2.9,3.8,2.8,6.2v9.8c0,0.4,0,0.7,0,1c0,0.3,0,0.6,0.1,0.9l2,0.3v3.8
	L344.4,50.4z M338.8,46.2c0.9,0,1.8-0.2,2.6-0.6c0.7-0.4,1.4-0.9,1.8-1.5v-3.7H340c-1.1-0.1-2.2,0.3-3.1,1c-0.7,0.6-1.1,1.4-1.1,2.3
	c0,0.7,0.2,1.4,0.8,1.9C337.3,46,338,46.2,338.8,46.2L338.8,46.2z"/>
<path class="st0" d="M366.3,46c1,0,2-0.3,2.7-1c0.7-0.7,1.1-1.7,1-2.7h5.8l0.1,0.1c0.1,2.3-0.9,4.5-2.7,6c-1.9,1.6-4.4,2.5-7,2.4
	c-3.5,0-6.3-1.1-8.2-3.4c-2-2.4-3-5.5-2.9-8.6v-0.7c-0.1-3.1,0.9-6.2,3-8.6c2-2.3,4.8-3.4,8.4-3.4c1.8,0,3.5,0.3,5.2,0.8
	c1.4,0.5,2.7,1.3,3.8,2.4l0.1,6.3h-5.2l-1-3.7c-0.4-0.3-0.8-0.5-1.2-0.7c-0.5-0.2-1.1-0.3-1.6-0.3c-1.6-0.1-3.1,0.6-3.9,2
	c-0.8,1.6-1.2,3.3-1.1,5.1v0.7c-0.1,1.8,0.3,3.5,1,5.1C363.3,45.4,364.7,46.2,366.3,46z"/>
<path class="st0" d="M379.2,20v-3.8h9.8V36h1.4l3.7-5.2l-2.1-0.3v-3.8h11.7v3.9l-2.8,0.6l-4.3,5.9l6,9l2.4,0.5v3.8h-11v-3.8l1.3-0.2
	l-3.6-5.9h-2.8v5.4l2.8,0.7v3.8h-12.3v-3.8l3.1-0.7V20.7L379.2,20z"/>
<path class="st0" d="M419.4,50.9c-3.1,0.1-6.1-1.1-8.2-3.3c-2.1-2.3-3.2-5.3-3.1-8.4v-0.9c-0.1-3.2,0.9-6.3,2.9-8.7
	c4.1-4.3,10.9-4.6,15.3-0.5c1.9,2.2,2.8,5,2.7,7.9v3.5h-14.2l0,0.1c0.1,1.4,0.6,2.8,1.6,3.9c1,1,2.4,1.6,3.8,1.5
	c1.2,0,2.4-0.1,3.5-0.4c1.1-0.3,2.1-0.8,3.1-1.3l1.7,4c-1.2,0.9-2.4,1.6-3.8,2C423,50.7,421.2,51,419.4,50.9z M418.9,31.2
	c-1.1,0-2.2,0.5-2.8,1.4c-0.7,1.1-1.2,2.3-1.3,3.6l0.1,0.1h7.9v-0.6c0-1.2-0.3-2.3-1-3.3C421,31.6,420,31.1,418.9,31.2z"/>
<path class="st0" d="M433.6,46.6l3.1-0.7V31.2l-3.4-0.7v-3.9h9.4l0.3,3.5c0.5-1.1,1.2-2.1,2.2-2.9c0.9-0.7,1.9-1,3-1
	c0.4,0,0.7,0,1.1,0.1c0.3,0,0.6,0.1,0.9,0.2l-0.7,5.8l-2.6-0.1c-0.8,0-1.6,0.2-2.3,0.5c-0.6,0.4-1.1,0.9-1.4,1.6v11.5l3.1,0.7v3.8
	h-12.6V46.6z"/>
<path class="st0" d="M65.5,35.5v-5.1c1.1-0.4,2.2-0.9,3.2-1.5v4.4C68.7,34,67.6,34.8,65.5,35.5z M65.5,49.5
	c-0.1,0.7-1.8,1.7-4.7,2.6c-5.6,1.5-11.4,2.4-17.2,2.6h-1.2h-1c-0.9,0-1.8,0-2.7,0s-1.8,0-2.7,0c-0.3,0-0.6,0-1,0H34
	c-5.8-0.2-11.6-1-17.2-2.6c-2.8-0.9-4.5-1.8-4.7-2.5l1,0.3h0.1l0.9,0.3l0.3,0.1l0.5,0.1c4.7,1.1,9.4,1.8,14.2,2l0,0
	c1.7,0.1,3.3,0.2,5,0.2h3.1c1.6,0,3.1-0.1,4.6-0.2l0,0c1.8-0.1,3.6-0.3,5.3-0.5h0.1c1.9-0.2,3.7-0.5,5.4-0.8l1-0.2h0.2
	c2.7-0.5,5.3-1.3,7.8-2.5l0.3-0.2l0.3-0.2l0.3-0.2C64.8,48.5,65.4,49.2,65.5,49.5L65.5,49.5z M62.3,59v-5.1c1.1-0.4,2.2-0.9,3.2-1.5
	v4.4C65.5,57.4,64.4,58.2,62.3,59z M12.2,56.8v-4.4c1,0.6,2.1,1.1,3.2,1.5V59C13.3,58.2,12.2,57.4,12.2,56.8z M9,45.1v-4.4
	c1,0.6,2.1,1.1,3.2,1.5v5.1L11.6,47l0,0C9.9,46.3,9,45.7,9,45.1z M14.2,35.3C14.2,35.3,14.2,35.3,14.2,35.3c1.5,1.5,4.5,2.6,8.3,3.5
	l0.3,0.1l0.8,0.2c4,0.8,8,1.3,12.1,1.5l0,0c1.4,0.1,2.9,0.1,4.4,0.2h2h2.3c1.4,0,2.8-0.1,4.1-0.2l0,0c4.1-0.2,8.3-0.7,12.3-1.6
	c-1,0.5-2.1,0.9-3.2,1.2c-6,1.7-12.2,2.6-18.4,2.7h-0.7h-0.8h-2c-0.9,0-1.8,0-2.7,0h-1h-1.2c-5.8-0.2-11.6-1-17.2-2.6
	c-2.9-0.9-4.6-1.9-4.7-2.6C9.1,37.3,10.2,36.3,14.2,35.3L14.2,35.3z M9,20.6v-4.4c1,0.6,2.1,1.1,3.2,1.5v5.1C10.1,22,9,21.2,9,20.6z
	 M35.6,8.8c17.6,0,26.5,2.8,26.7,4.4c-0.1,0.7-1.8,1.7-4.7,2.6c-5.6,1.5-11.4,2.4-17.2,2.6h-1.2h-1c-0.9,0-1.8,0-2.7,0s-1.8,0-2.7,0
	h-1h-1.2c-5.8-0.2-11.6-1-17.2-2.6c-2.9-0.9-4.5-1.8-4.7-2.6C9.2,11.6,18.1,8.8,35.6,8.8z M68.7,26c-0.1,0.7-1.7,1.7-4.7,2.6
	c-5.6,1.5-11.4,2.4-17.2,2.6h-1.2h-1c-0.9,0-1.8,0-2.7,0s-1.8,0-2.7,0h-1h-1.2c-5.8-0.2-11.6-1-17.2-2.6c-2.9-0.9-4.5-1.9-4.7-2.6
	V26l0.2,0l1.3,0.3c2.1,0.5,4.5,0.8,7,1.1l0,0c1.7,0.2,3.5,0.3,5.3,0.5h0.1c1.3,0.1,2.6,0.1,4,0.2h2.4h1.7c6.7,0,13.4-0.8,19.9-2.5
	l0.7-0.2l0.4-0.1c0.4-0.1,0.8-0.2,1.1-0.4l0.2-0.1c0.3-0.1,0.6-0.2,0.9-0.4l0.2-0.1c0.3-0.1,0.6-0.3,0.8-0.4l0.3-0.2l0.4-0.2
	l0.2-0.1C67.3,24.4,68.6,25.5,68.7,26z M62.9,36.4l-1.7,0.4L60.4,37l-0.2,0v-5.2c1.1-0.2,2.2-0.5,3.2-0.7v5.2L62.9,36.4z M50.7,38.4
	l-1.2,0.1v-5.3c1.1-0.1,2.2-0.2,3.2-0.3v5.3l-1.9,0.2L50.7,38.4z M58,37.5l-1.4,0.2l-0.8,0.1l-0.8,0.1v-5.3c1.1-0.1,2.2-0.3,3.2-0.5
	L58,37.5L58,37.5z M44.2,33.4c1.1,0,2.2,0,3.2-0.1v5.3c-1.4,0.1-2.8,0.1-4.3,0.1v-5.3L44.2,33.4L44.2,33.4z M18.6,30.4v5.1
	c-1.2-0.3-2.3-1-3.1-1.9l-0.1-0.1c0,0,0-0.1,0-0.1V29C16.4,29.6,17.5,30.1,18.6,30.4z M23.9,31.8V37c-1.2-0.3-2.2-0.5-3.2-0.8v-5.1
	C21.7,31.3,22.8,31.6,23.9,31.8z M27.3,37.6L26,37.4v-5.2c1,0.2,2.1,0.3,3.2,0.5v5.3C28.5,37.8,27.9,37.8,27.3,37.6L27.3,37.6z
	 M34.3,38.4h-0.4l-2-0.2h-0.4h-0.1V33c1.1,0.1,2.1,0.2,3.2,0.3v5.3L34.3,38.4z M22.8,19.8v5.3L22.2,25h-0.4L20,24.7l-0.3-0.1v-5.2
	C20.7,19.6,21.7,19.7,22.8,19.8z M25,25.4v-5.3c1.1,0.1,2.1,0.2,3.2,0.3v5.3C27.1,25.6,26,25.5,25,25.4z M46.3,20.1v5.3
	c-1,0.1-2.1,0.2-3.2,0.3v-5.3C44.2,20.3,45.3,20.2,46.3,20.1L46.3,20.1z M53.8,24.2V19c1.1-0.2,2.2-0.5,3.2-0.7v5.1
	C56,23.7,55,24,53.8,24.2L53.8,24.2z M48.5,25.1v-5.3c1.1-0.1,2.2-0.3,3.2-0.5v5.2C50.6,24.8,49.6,25,48.5,25.1L48.5,25.1z
	 M62.1,21.1L62.1,21.1l-0.4,0.3c-0.8,0.6-1.6,1-2.5,1.3v-5.1c1.1-0.4,2.2-0.9,3.2-1.5v4.4C62.3,20.8,62.2,21,62.1,21.1L62.1,21.1z
	 M37.8,20.6c1.1,0,2.2,0,3.2-0.1v5.3h-0.5l0,0c-0.7,0-1.4,0.1-2.2,0.1h-0.3h-1.2v-5.3L37.8,20.6L37.8,20.6z M33.7,20.6h0.9v5.3
	c-1.4,0-2.9,0-4.3-0.1v-5.3c1.1,0,2.1,0.1,3.2,0.1L33.7,20.6z M14.3,23.4v-5.2c1,0.3,2.1,0.5,3.2,0.7v5.2l-0.4-0.1
	c-0.6-0.1-1.1-0.2-1.7-0.4L14.3,23.4z M39.2,38.7c-0.8,0-1.6-0.1-2.4-0.1h-0.1v-5.3c1.1,0,2.1,0.1,3.2,0.1h1v5.3L39.2,38.7
	L39.2,38.7z M53.8,43.6c1.1-0.2,2.2-0.5,3.2-0.7V48c-1,0.3-2,0.5-3.2,0.8V43.6z M48.4,49.7v-5.3c1.1-0.1,2.2-0.3,3.2-0.4v5.2
	C50.6,49.3,49.6,49.5,48.4,49.7z M43.8,50.1h-0.7v-5.3c1.1-0.1,2.2-0.2,3.2-0.3v5.3c-0.7,0.1-1.3,0.1-2,0.2L43.8,50.1z M22.8,44.4
	v5.3c-1.1-0.2-2.2-0.3-3.2-0.5v-5.2C20.7,44.1,21.7,44.2,22.8,44.4L22.8,44.4z M25.5,50h-0.3H25v-5.3c1,0.1,2.1,0.2,3.2,0.3v5.3
	C27.3,50.1,26.4,50.1,25.5,50z M28.2,56.4c1,0.1,2.1,0.2,3.2,0.3V62c-1.1-0.1-2.2-0.2-3.2-0.3V56.4z M22.8,55.7
	c1,0.2,2.1,0.3,3.2,0.4v5.3c-1.1-0.1-2.2-0.3-3.2-0.5V55.7z M20.7,55.3v5.2c-1.2-0.2-2.2-0.5-3.2-0.8v-5.2
	C18.5,54.8,19.6,55.1,20.7,55.3L20.7,55.3z M57,55.3c1.1-0.2,2.2-0.5,3.2-0.7v5.1c-1,0.3-2,0.5-3.2,0.8V55.3z M51.6,56.2
	c1.1-0.1,2.2-0.3,3.2-0.4v5.2c-1,0.2-2.1,0.3-3.2,0.5V56.2z M49.5,56.4v5.3c-1,0.1-2.1,0.2-3.2,0.3v-5.3
	C47.4,56.5,48.5,56.4,49.5,56.4L49.5,56.4z M41,56.8c1.1,0,2.2,0,3.2-0.1v5.3c-1.4,0.1-2.8,0.1-4.3,0.1v-5.3L41,56.8L41,56.8z
	 M36.9,56.8h0.9v5.3c-1.5,0-2.9-0.1-4.3-0.1v-5.3c1.1,0,2.1,0.1,3.2,0.1H36.9z M14.4,48L14.4,48l-0.1-5.2c1,0.3,2.1,0.5,3.2,0.7v5.2
	c-1-0.2-1.9-0.4-2.7-0.7L14.4,48z M33.7,50.4h-1.5H32l-1.7-0.1V45c1.1,0.1,2.2,0.1,3.2,0.1h1v5.3L33.7,50.4L33.7,50.4z M38.3,50.4
	h-1.6v-5.3h1.1c1.1,0,2.2,0,3.2-0.1v5.3h-0.7L38.3,50.4z M62.2,45.4l-0.4,0.3c-0.8,0.6-1.7,1.1-2.7,1.5v-5.1
	c1.1-0.4,2.2-0.9,3.2-1.5v4.4C62.3,45.2,62.3,45.4,62.2,45.4L62.2,45.4z M70.8,25.9c-0.1-1.8-2.3-3.2-6.6-4.3c0.1-0.3,0.2-0.7,0.2-1
	v-7.4l0,0C64,6.9,38.6,6.7,35.6,6.7S7.2,6.9,6.9,13.1l0,0v7.5c0,2,2.6,3.6,6.5,4.8c-0.1,0.2-0.1,0.4-0.1,0.5l0,0v7.5
	c-4.2,1.1-6.3,2.5-6.4,4.3l0,0v7.5c0,1.4,1.3,2.6,3.4,3.6c-0.1,0.2-0.1,0.4-0.1,0.7l0,0v7.5c0,3.6,8,5.8,16.9,6.8c0.1,0,0.1,0,0.2,0
	h0.1c1.7,0.2,3.4,0.3,5.2,0.4h0.1h0.1c2.2,0.1,4.3,0.2,6.3,0.2s4.2-0.1,6.3-0.2l0,0h0.1c1.7-0.1,3.5-0.3,5.2-0.4h0.1
	c0.1,0,0.1,0,0.2,0c8.9-1,16.9-3.2,16.9-6.8v-7.5l0,0c-0.1-1.3-1.2-2.4-3.4-3.3c0.1-0.3,0.2-0.7,0.2-1v-7c3.8-1.2,6.4-2.8,6.4-4.8
	L70.8,25.9L70.8,25.9z"/>
</svg>
