<svg xmlns="http://www.w3.org/2000/svg" width="443.345" height="57.6" viewBox="0 0 443.345 57.6">
  <g id="Group_23" data-name="Group 23" transform="translate(-45.844 -32.717)">
    <g id="Group_3" data-name="Group 3">
      <path id="Path_32" data-name="Path 32" d="M128.56,76.44V73.672l3.582-.615v-25.2l-3.582-.615V44.448h24.565v7.691h-3.713l-.351-4.285H136.47V58.2h12.239v3.406H136.47V73.057h12.854l.352-4.285h3.691V76.44Z" fill="#fff"/>
      <path id="Path_33" data-name="Path 33" d="M158.184,73.672l2.548-.5,7.01-8.746-6.79-8.459-2.549-.505V52.666h9.317v2.791l-2.154.263,4.439,5.713,4.46-5.735-2.131-.241V52.666h9.382v2.791l-2.549.505-6.789,8.459,6.987,8.746,2.571.5V76.44H172.62V73.672l2.109-.242-4.658-5.976-4.658,5.976,2.131.242V76.44h-9.36Z" fill="#fff"/>
      <path id="Path_34" data-name="Path 34" d="M185.566,82.791l3.581-.616v-26.1l-3.581-.615V52.666h7.295l.4,2.9a8.005,8.005,0,0,1,2.89-2.483,8.665,8.665,0,0,1,3.944-.856,7.9,7.9,0,0,1,6.866,3.5q2.45,3.506,2.45,9.262v.461a13.1,13.1,0,0,1-2.461,8.295,8.134,8.134,0,0,1-6.789,3.153,9.44,9.44,0,0,1-3.856-.736,7.453,7.453,0,0,1-2.824-2.187v8.2l3.582.616v2.79H185.566Zm19.49-17.8a12.626,12.626,0,0,0-1.582-6.658,5.161,5.161,0,0,0-4.7-2.593,5.8,5.8,0,0,0-3.164.835,6.3,6.3,0,0,0-2.131,2.285v11.58a5.657,5.657,0,0,0,5.339,3.076,5.338,5.338,0,0,0,4.659-2.241,9.883,9.883,0,0,0,1.582-5.823Z" fill="#fff"/>
      <path id="Path_35" data-name="Path 35" d="M225.319,76.9a10.026,10.026,0,0,1-7.9-3.307,12.446,12.446,0,0,1-2.934-8.58v-.967a12.186,12.186,0,0,1,3.022-8.448,9.3,9.3,0,0,1,7.152-3.373q4.789,0,7.262,2.9a11.527,11.527,0,0,1,2.472,7.734v2.7H218.969l-.066.11a9.393,9.393,0,0,0,1.736,5.636,5.529,5.529,0,0,0,4.68,2.208,10.876,10.876,0,0,0,3.856-.626,8.855,8.855,0,0,0,2.867-1.725l1.692,2.812a10.366,10.366,0,0,1-3.373,2.077A13.474,13.474,0,0,1,225.319,76.9Zm-.659-21.27a4.69,4.69,0,0,0-3.714,1.835,8.693,8.693,0,0,0-1.889,4.6l.044.11h10.964v-.571a6.639,6.639,0,0,0-1.362-4.263A4.856,4.856,0,0,0,224.66,55.632Z" fill="#fff"/>
      <path id="Path_36" data-name="Path 36" d="M239.144,73.672l3.582-.615V56.072l-3.582-.615V52.666h7.449L246.9,56.2a8.629,8.629,0,0,1,2.977-2.933,7.945,7.945,0,0,1,4.077-1.044,7.76,7.76,0,0,1,5.954,2.252q2.109,2.251,2.11,6.954V73.057l3.581.615V76.44H254.107V73.672l3.582-.615V61.521q0-3.143-1.241-4.46a4.976,4.976,0,0,0-3.791-1.319,6.1,6.1,0,0,0-3.307.9,6.583,6.583,0,0,0-2.3,2.461V73.057l3.582.615V76.44H239.144Z" fill="#fff"/>
      <path id="Path_37" data-name="Path 37" d="M288.06,60.137h-3.252l-.7-2.857a5.844,5.844,0,0,0-1.989-1.2,7.668,7.668,0,0,0-2.713-.451,4.988,4.988,0,0,0-3.427,1.011,3.17,3.17,0,0,0-1.121,2.439,2.719,2.719,0,0,0,.989,2.219,10.236,10.236,0,0,0,4.02,1.45,17.323,17.323,0,0,1,6.7,2.626,5.292,5.292,0,0,1,2.2,4.45,6.14,6.14,0,0,1-2.561,5.119,10.72,10.72,0,0,1-6.69,1.956,17.367,17.367,0,0,1-4.856-.627,12.907,12.907,0,0,1-3.845-1.812l-.022-5.427h3.252l.813,3.186a4.517,4.517,0,0,0,2.032.988,11.194,11.194,0,0,0,2.626.308,6.12,6.12,0,0,0,3.614-.934,2.877,2.877,0,0,0,1.308-2.45,2.948,2.948,0,0,0-1.088-2.351,10.226,10.226,0,0,0-4.119-1.6,17.308,17.308,0,0,1-6.527-2.571,5.182,5.182,0,0,1-2.2-4.394,6.207,6.207,0,0,1,2.472-4.944,9.76,9.76,0,0,1,6.427-2.043,15.6,15.6,0,0,1,4.856.7,10.111,10.111,0,0,1,3.582,1.955Z" fill="#fff"/>
      <path id="Path_38" data-name="Path 38" d="M304.785,76.9a10.028,10.028,0,0,1-7.9-3.307,12.446,12.446,0,0,1-2.934-8.58v-.967a12.186,12.186,0,0,1,3.022-8.448,9.3,9.3,0,0,1,7.152-3.373q4.789,0,7.262,2.9a11.527,11.527,0,0,1,2.471,7.734v2.7H298.435l-.066.11A9.4,9.4,0,0,0,300.1,71.31a5.533,5.533,0,0,0,4.681,2.208,10.876,10.876,0,0,0,3.856-.626,8.87,8.87,0,0,0,2.868-1.725l1.691,2.812a10.356,10.356,0,0,1-3.373,2.077A13.47,13.47,0,0,1,304.785,76.9Zm-.659-21.27a4.69,4.69,0,0,0-3.714,1.835,8.7,8.7,0,0,0-1.89,4.6l.044.11h10.965v-.571a6.639,6.639,0,0,0-1.362-4.263A4.855,4.855,0,0,0,304.126,55.632Z" fill="#fff"/>
      <path id="Path_39" data-name="Path 39" d="M346.691,44.448v8.526H341.77l-.264-3.582h-5.889V71.936l3.428.659V76.44H325.773V72.6l3.428-.659V49.392h-5.867l-.264,3.582h-4.9V44.448Z" fill="#fff"/>
      <path id="Path_40" data-name="Path 40" d="M349.112,72.6l3.076-.659V57.192l-3.4-.659V52.666h9.382l.286,3.472a7.5,7.5,0,0,1,2.153-2.879,4.815,4.815,0,0,1,3.054-1.032,7.756,7.756,0,0,1,1.067.077,6.536,6.536,0,0,1,.933.186l-.681,5.845-2.637-.066a4.493,4.493,0,0,0-2.329.549,3.566,3.566,0,0,0-1.407,1.56V71.936l3.077.659V76.44H349.112Z" fill="#fff"/>
      <path id="Path_41" data-name="Path 41" d="M383.395,76.44a11.284,11.284,0,0,1-.462-1.219,9.559,9.559,0,0,1-.308-1.263,8.843,8.843,0,0,1-2.779,2.131,8.315,8.315,0,0,1-3.746.813,7.844,7.844,0,0,1-5.548-1.9,6.7,6.7,0,0,1-2.055-5.174,5.884,5.884,0,0,1,2.681-5.164q2.68-1.824,7.866-1.824h3.273V60.51a3.5,3.5,0,0,0-.988-2.658,4.078,4.078,0,0,0-2.923-.945,6.935,6.935,0,0,0-1.955.252,5.129,5.129,0,0,0-1.385.6l-.417,2.549h-4.834l.022-5.274a18.033,18.033,0,0,1,4.032-2,14.624,14.624,0,0,1,4.955-.813A11.28,11.28,0,0,1,386,54.391a7.378,7.378,0,0,1,2.758,6.163v9.822c0,.366,0,.71.011,1.033a7.1,7.1,0,0,0,.077.923l1.955.263V76.44Zm-5.56-4.284a5.556,5.556,0,0,0,2.637-.627,5.079,5.079,0,0,0,1.845-1.571V66.333h-3.273a4.469,4.469,0,0,0-3.1.956,2.991,2.991,0,0,0-1.054,2.3,2.374,2.374,0,0,0,.78,1.89A3.179,3.179,0,0,0,377.835,72.156Z" fill="#fff"/>
      <path id="Path_42" data-name="Path 42" d="M405.262,71.98a3.78,3.78,0,0,0,2.746-1,3.545,3.545,0,0,0,1.033-2.669h5.8l.065.131a7.417,7.417,0,0,1-2.7,6.032,10.2,10.2,0,0,1-6.943,2.428q-5.317,0-8.2-3.362a12.809,12.809,0,0,1-2.878-8.635v-.659a12.648,12.648,0,0,1,2.956-8.636q2.953-3.384,8.426-3.383a14.628,14.628,0,0,1,5.163.856,10.212,10.212,0,0,1,3.8,2.417l.088,6.351h-5.208l-1.055-3.714a4.047,4.047,0,0,0-1.186-.692,4.385,4.385,0,0,0-1.6-.275,4.052,4.052,0,0,0-3.845,1.978,10.266,10.266,0,0,0-1.12,5.1V64.9a10.94,10.94,0,0,0,1.032,5.13A3.749,3.749,0,0,0,405.262,71.98Z" fill="#fff"/>
      <path id="Path_43" data-name="Path 43" d="M418.252,46.03V42.163h9.821V62.026H429.5l3.69-5.207-2.087-.286V52.666h11.689v3.867l-2.813.637L435.7,63.059l6,9.031,2.44.505V76.44H433.149V72.6l1.319-.22-3.648-5.888h-2.747v5.449l2.769.659V76.44H418.581V72.6l3.1-.659V46.689Z" fill="#fff"/>
      <path id="Path_44" data-name="Path 44" d="M458.444,76.9a10.7,10.7,0,0,1-8.216-3.3,11.781,11.781,0,0,1-3.077-8.372v-.879a13,13,0,0,1,2.911-8.723,10.857,10.857,0,0,1,15.283-.505A11.167,11.167,0,0,1,468,62.971v3.494H453.809l-.044.132a6.2,6.2,0,0,0,1.571,3.867,4.9,4.9,0,0,0,3.79,1.516,12.361,12.361,0,0,0,3.537-.428,16.281,16.281,0,0,0,3.076-1.352l1.737,3.955a12.631,12.631,0,0,1-3.813,1.956A16.236,16.236,0,0,1,458.444,76.9Zm-.57-19.732a3.338,3.338,0,0,0-2.812,1.363,7.077,7.077,0,0,0-1.276,3.581l.067.11h7.866v-.571a5.149,5.149,0,0,0-.956-3.263A3.446,3.446,0,0,0,457.874,57.17Z" fill="#fff"/>
      <path id="Path_45" data-name="Path 45" d="M472.644,72.6l3.076-.659V57.192l-3.406-.659V52.666H481.7l.286,3.472a7.489,7.489,0,0,1,2.154-2.879,4.813,4.813,0,0,1,3.054-1.032,7.753,7.753,0,0,1,1.066.077,6.536,6.536,0,0,1,.933.186l-.68,5.845-2.637-.066a4.5,4.5,0,0,0-2.33.549,3.559,3.559,0,0,0-1.406,1.56V71.936l3.076.659V76.44H472.644Z" fill="#fff"/>
    </g>
    <path id="Path_46" data-name="Path 46" d="M104.511,61.537V56.431a15.871,15.871,0,0,0,3.2-1.467v4.413C107.71,59.978,106.586,60.759,104.511,61.537ZM104.5,75.466c-.116.722-1.754,1.68-4.667,2.58a71.6,71.6,0,0,1-17.163,2.565c-.383.016-.765.032-1.155.044-.319.011-.639.021-.965.029-.883.019-1.779.033-2.7.033s-1.82-.014-2.705-.034c-.321-.007-.637-.018-.954-.029-.394-.013-.778-.029-1.163-.045a71.561,71.561,0,0,1-17.163-2.564c-2.821-.871-4.451-1.8-4.656-2.512.318.111.648.219.986.324.034.011.068.022.1.031.288.089.583.174.885.257l.345.1c.171.046.346.09.521.135a77.86,77.86,0,0,0,14.2,2.017h.009c1.653.1,3.342.159,5.048.179.455.009.906.013,1.348.013.588,0,1.19-.008,1.8-.018,1.556-.026,3.092-.083,4.594-.173l.009,0,.013,0q2.745-.165,5.3-.462c.006,0,.011,0,.018,0,.023,0,.043-.012.066-.014,1.894-.218,3.691-.487,5.358-.8q.515-.095,1.016-.195l.224-.046a28.65,28.65,0,0,0,7.748-2.521c.1-.056.2-.113.295-.17.118-.07.232-.142.341-.214s.221-.13.315-.2C103.848,74.526,104.428,75.2,104.5,75.466ZM101.311,85V79.9a15.869,15.869,0,0,0,3.2-1.468v4.414C104.51,83.445,103.386,84.225,101.311,85ZM51.178,82.846V78.429a15.869,15.869,0,0,0,3.2,1.468V85C52.3,84.227,51.18,83.447,51.178,82.846Zm-3.2-11.733V66.7a15.925,15.925,0,0,0,3.2,1.468v5.087l-.609-.237-.013.013C48.881,72.332,47.98,71.651,47.978,71.113Zm5.167-9.772c.016.017.04.032.056.049,1.461,1.474,4.485,2.633,8.249,3.5.086.02.178.039.265.06.277.061.557.122.841.181a82.334,82.334,0,0,0,12.08,1.532h.012c1.444.084,2.921.143,4.43.168.667.014,1.324.023,1.966.023.736,0,1.492-.009,2.26-.027,1.395-.029,2.77-.087,4.126-.165l.014,0c.01,0,.018-.006.027-.006A82.478,82.478,0,0,0,99.785,65.08a19.438,19.438,0,0,1-3.155,1.233A73.6,73.6,0,0,1,78.2,68.925l-.72.023-.792.016c-.671.01-1.346.02-2.04.02-.923,0-1.819-.014-2.7-.034-.325-.008-.645-.018-.965-.029-.391-.012-.773-.029-1.155-.045a71.6,71.6,0,0,1-17.163-2.564c-2.933-.907-4.575-1.871-4.669-2.595C48.108,63.316,49.186,62.312,53.145,61.341ZM47.978,46.58V42.163a15.871,15.871,0,0,0,3.2,1.467v5.107C49.1,47.96,47.98,47.18,47.978,46.58ZM74.644,34.851c17.589,0,26.485,2.769,26.651,4.358-.129.721-1.766,1.674-4.665,2.57a71.663,71.663,0,0,1-17.163,2.564c-.383.016-.765.032-1.155.045-.319.01-.639.02-.965.028-.883.021-1.779.035-2.7.035s-1.819-.014-2.7-.035c-.325-.007-.645-.018-.965-.028-.391-.012-.773-.029-1.155-.045a71.654,71.654,0,0,1-17.163-2.564c-2.9-.9-4.536-1.849-4.665-2.57C48.16,37.62,57.056,34.851,74.644,34.851ZM107.7,51.987c-.1.724-1.739,1.687-4.669,2.593a71.663,71.663,0,0,1-17.163,2.564c-.383.016-.765.032-1.155.045-.319.01-.639.02-.965.028-.883.02-1.779.034-2.7.034s-1.819-.014-2.7-.035c-.325-.007-.645-.018-.965-.028-.391-.012-.773-.029-1.155-.045a71.654,71.654,0,0,1-17.163-2.564c-2.906-.9-4.545-1.854-4.666-2.575a.217.217,0,0,1,.018-.063c.072.018.153.033.227.051.417.1.845.195,1.28.287,2.12.456,4.468.831,6.971,1.117.008,0,.015,0,.022,0h.005c1.705.194,3.474.346,5.289.454.014,0,.026.008.039.008s.013-.005.021-.005c1.306.077,2.63.134,3.97.164.82.02,1.625.031,2.409.031.56,0,1.134-.007,1.714-.018a81.666,81.666,0,0,0,19.931-2.469c.231-.065.456-.132.678-.2.135-.042.274-.082.4-.124.386-.124.756-.251,1.114-.383l.182-.07q.453-.172.869-.353c.08-.036.162-.07.24-.1.3-.133.582-.27.846-.412.12-.063.223-.128.335-.192.128-.073.256-.148.374-.224.068-.042.148-.083.212-.126C106.319,50.412,107.578,51.545,107.7,51.987Zm-5.786,10.379c-.531.149-1.094.287-1.667.423q-.4.093-.814.183c-.082.018-.17.034-.253.052v-5.2c1.133-.223,2.2-.468,3.2-.737v5.153C102.225,62.279,102.071,62.323,101.913,62.366Zm-12.19,2c-.4.033-.809.055-1.212.083V59.14c1.082-.072,2.151-.157,3.2-.26v5.292c-.62.065-1.238.13-1.875.184Zm7.222-.911c-.468.081-.941.161-1.426.235-.278.043-.563.083-.849.124-.27.038-.55.071-.824.106V58.65q1.648-.2,3.2-.45v5.237ZM83.161,59.363q1.611-.031,3.217-.1v5.321c-1.4.069-2.827.107-4.267.122V59.379l.88-.013ZM57.578,56.43V61.5a6.651,6.651,0,0,1-3.111-1.9l-.071-.119a.714.714,0,0,1-.018-.1V54.963A15.871,15.871,0,0,0,57.578,56.43Zm5.333,1.389v5.2q-1.769-.379-3.2-.8V57.082C60.707,57.351,61.778,57.6,62.911,57.819Zm3.355,5.823c-.423-.067-.819-.14-1.222-.21V58.2q1.55.25,3.2.45v5.276c-.652-.087-1.291-.176-1.905-.272A.621.621,0,0,0,66.266,63.642Zm7.047.8-.432-.032q-1.023-.081-2-.177l-.418-.043-.085-.01v-5.3c1.049.1,2.118.188,3.2.26v5.316C73.491,64.449,73.4,64.445,73.313,64.439ZM61.844,45.85v5.27c-.211-.027-.43-.05-.64-.079l-.4-.058q-.924-.134-1.81-.283l-.349-.062V45.4C59.677,45.567,60.745,45.719,61.844,45.85Zm2.134,5.523V46.08c1.049.1,2.118.188,3.2.26v5.309C66.092,51.572,65.021,51.483,63.978,51.373ZM85.311,46.08v5.291q-1.545.164-3.2.283V46.34C83.193,46.268,84.262,46.182,85.311,46.08Zm7.467,4.138v-5.2c1.133-.223,2.2-.468,3.2-.737v5.141C95.022,49.7,93.946,49.968,92.778,50.218Zm-5.334.9V45.85q1.65-.2,3.2-.45v5.229C89.633,50.808,88.569,50.972,87.444,51.119ZM101.067,47.1l-.03-.006-.388.3A10.332,10.332,0,0,1,98.111,48.7V43.63a15.871,15.871,0,0,0,3.2-1.467v4.413A.837.837,0,0,1,101.067,47.1Zm-24.306-.535q1.611-.031,3.217-.1v5.322c-.182.008-.355.021-.538.03l-.046,0c-.715.032-1.445.055-2.184.072l-.346.008c-.38.007-.768.008-1.153.013V46.579l.88-.013Zm-4.063,0,.88.013V51.9c-1.436-.013-2.863-.051-4.267-.121V46.461q1.6.075,3.217.1Zm-19.387,2.87V44.283c1,.269,2.067.514,3.2.737v5.207l-.4-.084c-.567-.124-1.121-.255-1.65-.392C54.063,49.647,53.68,49.542,53.311,49.436ZM78.191,64.68q-1.2-.03-2.356-.089l-.124-.005V59.26q1.6.075,3.217.1l.169,0,.88.013V64.7c-.52-.005-1.043-.007-1.55-.019Zm14.587,4.872c1.133-.223,2.2-.468,3.2-.737v5.153c-.951.275-2.02.54-3.2.791Zm-5.334,6.107V70.383q1.65-.2,3.2-.45v5.238Q89.138,75.437,87.444,75.659Zm-4.622.48-.711.053V70.873c1.082-.072,2.151-.157,3.2-.259v5.3c-.659.069-1.333.134-2.025.191C83.131,76.116,82.976,76.127,82.822,76.139ZM61.844,70.383v5.276q-1.691-.222-3.2-.488V69.933Q60.193,70.185,61.844,70.383Zm2.687,5.585-.324-.033c-.077-.007-.152-.017-.229-.024v-5.3c1.049.1,2.118.188,3.2.259v5.315C66.282,76.125,65.4,76.053,64.531,75.968Zm2.647,6.379c1.049.1,2.118.188,3.2.259v5.32q-1.662-.117-3.2-.281Zm-5.334-.679q1.549.25,3.2.45v5.275q-1.69-.222-3.2-.488Zm-2.133-.382v5.206c-1.18-.251-2.249-.516-3.2-.79V80.549C57.507,80.817,58.578,81.064,59.711,81.286Zm36.267,0c1.133-.223,2.2-.469,3.2-.737V85.7c-.951.274-2.02.539-3.2.79Zm-5.334.831q1.65-.2,3.2-.45V86.9q-1.506.266-3.2.488Zm-2.133.23v5.3q-1.538.162-3.2.281v-5.32C86.393,82.535,87.462,82.448,88.511,82.347Zm-8.55.482q1.611-.03,3.217-.1v5.326q-2.055.1-4.267.123V82.844c.293,0,.587-.007.88-.013Zm-4.063,0q.439.009.88.013v5.332q-2.211-.02-4.267-.123V82.728q1.6.075,3.217.1ZM53.415,74l-.1-.03V68.816c1,.269,2.067.515,3.2.737V74.76c-.979-.208-1.883-.427-2.705-.651C53.676,74.072,53.542,74.037,53.415,74Zm19.266,2.432q-.733-.012-1.458-.035l-.18-.006c-.581-.019-1.158-.044-1.731-.072V70.993q1.6.077,3.217.1l.169,0c.293,0,.586.01.88.013v5.331c-.207,0-.414,0-.62,0C72.864,76.436,72.774,76.432,72.681,76.431Zm4.658-.015c-.156,0-.313.007-.469.01-.381.007-.772.01-1.158.013V71.111c.294,0,.587-.008.88-.013l.17,0q1.611-.03,3.217-.1v5.326q-.342.018-.689.032C78.648,76.379,78,76.4,77.339,76.416ZM101.2,71.46l-.364.319a9.56,9.56,0,0,1-2.721,1.472V68.165a15.924,15.924,0,0,0,3.2-1.468v4.414A.676.676,0,0,1,101.2,71.46Zm8.637-19.543c-.106-1.825-2.277-3.251-6.618-4.339a2.406,2.406,0,0,0,.229-1V39.117h-.018c-.382-6.216-25.856-6.4-28.782-6.4s-28.4.184-28.781,6.4h-.019v7.466c.006,2.026,2.621,3.613,6.512,4.793a2.381,2.381,0,0,0-.1.541h-.016V59.37c-4.192,1.079-6.285,2.485-6.389,4.281h-.011v7.465c0,1.411,1.276,2.608,3.358,3.605a2.361,2.361,0,0,0-.142.664h-.016v7.466c.009,3.547,8,5.75,16.873,6.778a.968.968,0,0,0,.194.04c.02,0,.037-.011.058-.012,1.711.193,3.449.343,5.17.451a.929.929,0,0,0,.105.021c.021,0,.037-.01.056-.011,2.184.132,4.334.2,6.344.2s4.16-.067,6.345-.2c.019,0,.036.011.055.011.038,0,.07-.018.106-.021,1.721-.108,3.459-.257,5.17-.451.02,0,.038.011.058.011a.968.968,0,0,0,.194-.04c8.876-1.028,16.863-3.232,16.872-6.781V75.384h-.017c-.074-1.308-1.189-2.4-3.391-3.311a2.373,2.373,0,0,0,.208-.96V64.141c3.83-1.177,6.395-2.753,6.4-4.761V51.917Z" fill="#20cc94"/>
  </g>
</svg>
