<svg xmlns="http://www.w3.org/2000/svg" width="360.63" height="137.339" viewBox="0 0 360.63 137.339">
  <g id="Group_24" data-name="Group 24" transform="translate(-1.825 -1.402)">
    <g id="Group_1" data-name="Group 1" transform="translate(-554.829 -278.046)">
      <path id="Path_1" data-name="Path 1" d="M556.654,407.646v-2.769l3.582-.615v-25.2l-3.582-.615v-2.79H581.22v7.69h-3.714l-.351-4.285H564.564v10.35H576.8v3.4H564.564v11.448h12.854l.352-4.285h3.691v7.669Z" fill="#fff"/>
      <path id="Path_2" data-name="Path 2" d="M586.278,404.877l2.549-.505,7.009-8.745-6.79-8.46-2.548-.505v-2.79h9.316v2.79l-2.153.264,4.438,5.713,4.461-5.735-2.132-.242v-2.79h9.382v2.79l-2.548.505-6.79,8.46,6.987,8.745,2.571.505v2.769h-9.316v-2.769l2.109-.241-4.658-5.977-4.658,5.977,2.131.241v2.769h-9.36Z" fill="#fff"/>
      <path id="Path_3" data-name="Path 3" d="M613.66,414l3.582-.615v-26.1l-3.582-.615v-2.79h7.3l.4,2.9a7.993,7.993,0,0,1,2.889-2.483,8.665,8.665,0,0,1,3.944-.857,7.9,7.9,0,0,1,6.866,3.505q2.451,3.5,2.45,9.261v.462a13.106,13.106,0,0,1-2.461,8.295,8.133,8.133,0,0,1-6.789,3.152,9.44,9.44,0,0,1-3.856-.735,7.468,7.468,0,0,1-2.824-2.187v8.2l3.582.615v2.791H613.66Zm19.49-17.8a12.619,12.619,0,0,0-1.582-6.658,5.161,5.161,0,0,0-4.7-2.592,5.787,5.787,0,0,0-3.164.835,6.277,6.277,0,0,0-2.132,2.285v11.579a5.66,5.66,0,0,0,5.34,3.077,5.338,5.338,0,0,0,4.658-2.242,9.875,9.875,0,0,0,1.582-5.822Z" fill="#fff"/>
      <path id="Path_4" data-name="Path 4" d="M653.413,408.107a10.026,10.026,0,0,1-7.9-3.307,12.444,12.444,0,0,1-2.933-8.58v-.967A12.188,12.188,0,0,1,645.6,386.8a9.308,9.308,0,0,1,7.152-3.373q4.789,0,7.262,2.9a11.523,11.523,0,0,1,2.472,7.735v2.7H647.063l-.066.11a9.4,9.4,0,0,0,1.736,5.636,5.528,5.528,0,0,0,4.68,2.209,10.874,10.874,0,0,0,3.856-.627,8.853,8.853,0,0,0,2.868-1.725l1.692,2.813a10.386,10.386,0,0,1-3.373,2.076A13.479,13.479,0,0,1,653.413,408.107Zm-.659-21.269a4.693,4.693,0,0,0-3.714,1.834,8.7,8.7,0,0,0-1.889,4.6l.044.11h10.964v-.572a6.634,6.634,0,0,0-1.362-4.262A4.852,4.852,0,0,0,652.754,386.838Z" fill="#fff"/>
      <path id="Path_5" data-name="Path 5" d="M667.238,404.877l3.582-.615V387.277l-3.582-.615v-2.79h7.449l.308,3.537a8.629,8.629,0,0,1,2.977-2.933,7.939,7.939,0,0,1,4.076-1.044A7.761,7.761,0,0,1,688,385.684q2.11,2.253,2.11,6.955v11.623l3.581.615v2.769H682.2v-2.769l3.581-.615V392.726q0-3.141-1.241-4.46a4.974,4.974,0,0,0-3.791-1.318,6.1,6.1,0,0,0-3.307.9,6.581,6.581,0,0,0-2.3,2.46v13.953l3.582.615v2.769H667.238Z" fill="#fff"/>
      <path id="Path_6" data-name="Path 6" d="M716.154,391.342H712.9l-.7-2.856a5.876,5.876,0,0,0-1.99-1.2,7.663,7.663,0,0,0-2.712-.45,4.989,4.989,0,0,0-3.428,1.011,3.167,3.167,0,0,0-1.121,2.439,2.72,2.72,0,0,0,.989,2.219,10.251,10.251,0,0,0,4.02,1.45,17.336,17.336,0,0,1,6.7,2.625,5.3,5.3,0,0,1,2.2,4.45,6.142,6.142,0,0,1-2.561,5.12,10.726,10.726,0,0,1-6.69,1.955,17.368,17.368,0,0,1-4.856-.626,12.919,12.919,0,0,1-3.845-1.813l-.022-5.427h3.252l.813,3.186a4.517,4.517,0,0,0,2.032.989,11.246,11.246,0,0,0,2.626.308,6.112,6.112,0,0,0,3.614-.935,2.876,2.876,0,0,0,1.308-2.449,2.948,2.948,0,0,0-1.088-2.351,10.21,10.21,0,0,0-4.119-1.6,17.308,17.308,0,0,1-6.527-2.571,5.186,5.186,0,0,1-2.2-4.395,6.207,6.207,0,0,1,2.472-4.943,9.756,9.756,0,0,1,6.428-2.044,15.6,15.6,0,0,1,4.855.7,10.12,10.12,0,0,1,3.582,1.956Z" fill="#fff"/>
      <path id="Path_7" data-name="Path 7" d="M732.879,408.107a10.028,10.028,0,0,1-7.9-3.307,12.444,12.444,0,0,1-2.934-8.58v-.967a12.189,12.189,0,0,1,3.022-8.448,9.306,9.306,0,0,1,7.152-3.373q4.791,0,7.262,2.9a11.528,11.528,0,0,1,2.472,7.735v2.7H726.529l-.066.11a9.394,9.394,0,0,0,1.736,5.636,5.529,5.529,0,0,0,4.68,2.209,10.874,10.874,0,0,0,3.856-.627,8.853,8.853,0,0,0,2.868-1.725l1.691,2.813a10.354,10.354,0,0,1-3.373,2.076A13.47,13.47,0,0,1,732.879,408.107Zm-.659-21.269a4.693,4.693,0,0,0-3.714,1.834,8.7,8.7,0,0,0-1.889,4.6l.044.11h10.964v-.572a6.634,6.634,0,0,0-1.362-4.262A4.852,4.852,0,0,0,732.22,386.838Z" fill="#fff"/>
      <path id="Path_8" data-name="Path 8" d="M774.786,375.654v8.525h-4.922L769.6,380.6h-5.889v22.544l3.428.659v3.845H753.868V403.8l3.427-.659V380.6h-5.867l-.264,3.581h-4.9v-8.525Z" fill="#fff"/>
      <path id="Path_9" data-name="Path 9" d="M777.206,403.8l3.077-.659V388.4l-3.406-.659v-3.867h9.382l.286,3.471a7.486,7.486,0,0,1,2.154-2.878,4.807,4.807,0,0,1,3.053-1.033,7.916,7.916,0,0,1,1.067.077,6.385,6.385,0,0,1,.933.187l-.681,5.844-2.637-.065a4.5,4.5,0,0,0-2.329.549,3.548,3.548,0,0,0-1.406,1.56v11.558l3.076.659v3.845H777.206Z" fill="#fff"/>
      <path id="Path_10" data-name="Path 10" d="M811.489,407.646a11.6,11.6,0,0,1-.462-1.22,9.53,9.53,0,0,1-.308-1.263,8.829,8.829,0,0,1-2.779,2.131,8.315,8.315,0,0,1-3.746.813,7.844,7.844,0,0,1-5.548-1.9,6.7,6.7,0,0,1-2.055-5.174,5.883,5.883,0,0,1,2.681-5.163q2.681-1.824,7.866-1.824h3.274v-2.329a3.5,3.5,0,0,0-.989-2.659,4.078,4.078,0,0,0-2.923-.945,6.938,6.938,0,0,0-1.955.253,5.14,5.14,0,0,0-1.384.6l-.417,2.549H797.91l.021-5.273a18.034,18.034,0,0,1,4.032-2,14.624,14.624,0,0,1,4.955-.813,11.286,11.286,0,0,1,7.174,2.164,7.38,7.38,0,0,1,2.758,6.164v9.821c0,.367,0,.711.011,1.033a7.274,7.274,0,0,0,.077.923l1.955.264v3.845Zm-5.56-4.285a5.555,5.555,0,0,0,2.637-.626,5.091,5.091,0,0,0,1.846-1.571v-3.626h-3.274a4.471,4.471,0,0,0-3.1.957,2.989,2.989,0,0,0-1.054,2.3,2.377,2.377,0,0,0,.78,1.89A3.181,3.181,0,0,0,805.929,403.361Z" fill="#fff"/>
      <path id="Path_11" data-name="Path 11" d="M833.356,403.185a3.782,3.782,0,0,0,2.746-1,3.549,3.549,0,0,0,1.033-2.67h5.8l.065.132a7.412,7.412,0,0,1-2.7,6.031,10.2,10.2,0,0,1-6.943,2.428q-5.318,0-8.2-3.361a12.812,12.812,0,0,1-2.878-8.636v-.659a12.645,12.645,0,0,1,2.955-8.635q2.953-3.384,8.427-3.384a14.635,14.635,0,0,1,5.163.857,10.2,10.2,0,0,1,3.8,2.417l.088,6.35h-5.208l-1.054-3.713a4.044,4.044,0,0,0-1.187-.692,4.383,4.383,0,0,0-1.6-.275,4.052,4.052,0,0,0-3.846,1.977,10.269,10.269,0,0,0-1.12,5.1v.659a10.945,10.945,0,0,0,1.032,5.131A3.749,3.749,0,0,0,833.356,403.185Z" fill="#fff"/>
      <path id="Path_12" data-name="Path 12" d="M846.346,377.236v-3.867h9.821v19.863H857.6l3.691-5.208-2.087-.285v-3.867h11.688v3.867l-2.812.637-4.284,5.889,6,9.03,2.44.506v3.845H861.244V403.8l1.318-.22-3.648-5.889h-2.747v5.45l2.769.659v3.845H846.675V403.8l3.1-.659V377.895Z" fill="#fff"/>
      <path id="Path_13" data-name="Path 13" d="M886.539,408.107a10.7,10.7,0,0,1-8.217-3.3,11.777,11.777,0,0,1-3.076-8.371v-.879a13,13,0,0,1,2.911-8.723,10.855,10.855,0,0,1,15.282-.506,11.17,11.17,0,0,1,2.658,7.845v3.493H881.9l-.044.132a6.2,6.2,0,0,0,1.571,3.867,4.9,4.9,0,0,0,3.79,1.516,12.361,12.361,0,0,0,3.537-.428,16.272,16.272,0,0,0,3.076-1.351l1.737,3.955a12.63,12.63,0,0,1-3.813,1.955A16.207,16.207,0,0,1,886.539,408.107Zm-.571-19.731a3.337,3.337,0,0,0-2.812,1.362,7.077,7.077,0,0,0-1.276,3.582l.067.11h7.866v-.572a5.145,5.145,0,0,0-.956-3.263A3.448,3.448,0,0,0,885.968,388.376Z" fill="#fff"/>
      <path id="Path_14" data-name="Path 14" d="M900.738,403.8l3.076-.659V388.4l-3.405-.659v-3.867h9.381l.287,3.471a7.474,7.474,0,0,1,2.153-2.878,4.808,4.808,0,0,1,3.055-1.033,7.9,7.9,0,0,1,1.065.077,6.4,6.4,0,0,1,.934.187l-.681,5.844-2.637-.065a4.5,4.5,0,0,0-2.33.549,3.548,3.548,0,0,0-1.406,1.56v11.558l3.076.659v3.845H900.738Z" fill="#fff"/>
    </g>
    <path id="Path_15" data-name="Path 15" d="M769.729,320.224V313a22.47,22.47,0,0,0,4.528-2.077v6.245C774.255,318.018,772.665,319.122,769.729,320.224Zm-.019,19.707c-.165,1.021-2.483,2.377-6.605,3.65-5.339,1.65-13.694,3.161-24.282,3.628-.542.023-1.082.046-1.635.064-.451.015-.9.028-1.364.041-1.249.027-2.517.046-3.824.046s-2.576-.019-3.827-.048c-.455-.011-.9-.026-1.351-.041-.557-.018-1.1-.04-1.645-.063-10.588-.468-18.943-1.979-24.283-3.628-3.991-1.233-6.3-2.543-6.587-3.554.45.157.916.309,1.394.459.049.015.1.03.145.043.408.126.824.246,1.251.364.162.045.325.091.489.134.242.065.489.127.737.191a110.08,110.08,0,0,0,20.087,2.853l.007,0,.005,0c2.339.139,4.728.225,7.143.254.643.012,1.281.018,1.907.018.832,0,1.683-.011,2.545-.026,2.2-.036,4.375-.117,6.5-.244l.012,0c.008,0,.012-.005.02-.005,2.588-.155,5.093-.377,7.5-.653.009,0,.017,0,.026,0,.033,0,.06-.016.093-.019,2.681-.31,5.222-.69,7.581-1.132.486-.089.964-.181,1.438-.276l.317-.065a40.539,40.539,0,0,0,10.961-3.568c.145-.078.281-.16.418-.24.168-.1.328-.2.483-.3s.313-.184.445-.279C768.791,338.6,769.612,339.552,769.71,339.931ZM765.2,353.426V346.2a22.432,22.432,0,0,0,4.527-2.076v6.245C769.728,351.219,768.137,352.324,765.2,353.426Zm-70.931-3.053v-6.25A22.46,22.46,0,0,0,698.8,346.2v7.226C695.863,352.326,694.274,351.222,694.271,350.373Zm-4.528-16.6v-6.25a22.47,22.47,0,0,0,4.528,2.077v7.2l-.862-.335-.018.018C691.021,335.5,689.746,334.532,689.743,333.772Zm7.311-13.826c.022.024.057.046.08.07,2.066,2.085,6.344,3.724,11.67,4.947l.376.084q.586.132,1.189.257a116.463,116.463,0,0,0,17.091,2.167h.017c2.043.119,4.134.2,6.268.238.944.02,1.874.032,2.782.032,1.042,0,2.11-.012,3.2-.038,1.974-.04,3.919-.122,5.837-.234.008,0,.014.005.021.005s.025-.008.038-.008a116.639,116.639,0,0,0,17.422-2.23,27.415,27.415,0,0,1-4.464,1.744c-5.637,1.742-14.639,3.328-26.08,3.7-.34.011-.675.023-1.019.032-.369.009-.745.015-1.121.023-.949.015-1.9.028-2.886.028-1.307,0-2.574-.019-3.824-.048-.459-.01-.911-.025-1.364-.041-.554-.016-1.094-.04-1.635-.063-10.588-.468-18.944-1.978-24.282-3.628-4.15-1.283-6.473-2.647-6.607-3.672C689.927,322.74,691.453,321.32,697.054,319.946Zm-7.311-20.885v-6.25a22.47,22.47,0,0,0,4.528,2.077v7.226C691.335,301.014,689.746,299.91,689.743,299.061Zm37.729-16.6c24.885,0,37.472,3.918,37.707,6.166-.183,1.021-2.5,2.368-6.6,3.636-5.339,1.65-13.694,3.16-24.283,3.628-.541.023-1.082.045-1.634.063-.451.016-.9.029-1.364.041-1.25.029-2.518.049-3.825.049s-2.574-.02-3.824-.049c-.459-.01-.911-.025-1.364-.041-.554-.016-1.094-.04-1.635-.063-10.588-.468-18.944-1.978-24.282-3.628-4.1-1.268-6.419-2.615-6.6-3.636C690,286.384,702.588,282.466,727.472,282.466Zm46.768,24.245c-.139,1.025-2.461,2.387-6.607,3.669-5.339,1.649-13.694,3.16-24.283,3.628-.541.022-1.082.045-1.634.063-.451.015-.9.029-1.364.041-1.25.027-2.518.047-3.825.047s-2.574-.02-3.824-.049c-.459-.01-.911-.025-1.364-.04-.554-.017-1.094-.041-1.634-.064-10.589-.468-18.945-1.978-24.283-3.628-4.113-1.271-6.431-2.623-6.6-3.643a.38.38,0,0,1,.026-.089c.1.026.217.047.321.072.59.141,1.2.277,1.811.406,3,.646,6.322,1.176,9.863,1.58.012,0,.021.006.032.006h.007c2.412.275,4.914.49,7.483.643.019,0,.036.01.055.01s.019-.006.029-.006q2.773.164,5.617.231c1.161.029,2.3.044,3.409.044.793,0,1.605-.009,2.424-.024,10.966-.169,21.129-1.473,28.2-3.494.326-.092.644-.187.958-.282.192-.059.388-.116.573-.175.547-.175,1.07-.355,1.576-.542l.258-.1c.427-.161.838-.329,1.23-.5.113-.05.229-.1.34-.148.418-.189.822-.382,1.2-.582.169-.09.316-.182.474-.272.181-.1.362-.21.53-.317.1-.06.208-.118.3-.178C772.287,304.483,774.068,306.086,774.24,306.711ZM766.053,321.4c-.752.209-1.547.406-2.359.6q-.564.132-1.151.26c-.117.025-.24.048-.358.074v-7.364c1.6-.315,3.118-.662,4.527-1.042v7.29Zm-17.247,2.829c-.563.047-1.144.077-1.714.118v-7.513c1.53-.1,3.042-.222,4.527-.366v7.487c-.877.092-1.752.184-2.653.259C748.912,324.216,748.86,324.222,748.806,324.226Zm10.219-1.289c-.663.115-1.331.228-2.018.332-.394.061-.8.118-1.2.176-.382.054-.779.1-1.167.15v-7.456q2.334-.282,4.528-.637v7.41C759.118,322.921,759.071,322.93,759.025,322.937Zm-19.5-5.79c1.519-.029,3.039-.076,4.551-.145v7.528c-1.983.1-4,.152-6.036.173v-7.534q.623-.006,1.245-.018ZM703.326,313v7.17c-2.373-.916-3.9-1.852-4.4-2.685l-.1-.169a1.03,1.03,0,0,1-.026-.143v-6.25A22.416,22.416,0,0,0,703.326,313Zm7.546,1.965v7.354q-2.5-.537-4.528-1.133V313.92C707.754,314.3,709.269,314.649,710.872,314.963Zm4.746,8.239c-.6-.1-1.159-.2-1.728-.3v-7.4q2.191.355,4.527.637V323.6c-.923-.122-1.827-.249-2.7-.384A.941.941,0,0,0,715.618,323.2Zm9.971,1.127-.611-.045q-1.449-.114-2.83-.251l-.592-.06c-.04-.005-.08-.011-.12-.014v-7.494c1.485.143,3,.265,4.527.366v7.522C725.841,324.344,725.711,324.338,725.589,324.329Zm-16.227-26.3v7.456c-.3-.039-.609-.071-.905-.111-.193-.027-.377-.056-.568-.083q-1.308-.189-2.561-.4l-.493-.088v-7.41Q707.027,297.747,709.362,298.029Zm3.019,7.814v-7.488c1.485.143,3,.265,4.527.366v7.513C715.372,306.124,713.857,306,712.381,305.843Zm30.183-7.488v7.485q-2.187.231-4.527.4v-7.519C739.567,298.62,741.079,298.5,742.564,298.355Zm10.564,5.854v-7.355c1.6-.315,3.118-.662,4.528-1.042v7.274C756.3,303.48,754.781,303.855,753.128,304.209Zm-7.546,1.275v-7.455q2.334-.282,4.528-.637v7.4C748.679,305.043,747.173,305.276,745.582,305.484Zm19.274-5.69-.042-.009-.549.427a14.664,14.664,0,0,1-3.591,1.855v-7.179a22.472,22.472,0,0,0,4.528-2.077v6.245A1.184,1.184,0,0,1,764.856,299.794Zm-34.389-.757c1.519-.029,3.039-.076,4.551-.145v7.529c-.256.012-.5.03-.76.042-.021,0-.043,0-.065,0q-1.52.069-3.091.1c-.163,0-.326.006-.489.011-.537.01-1.087.012-1.631.018v-7.539q.622-.006,1.245-.018Zm-5.749,0q.622.012,1.245.018V306.6c-2.031-.02-4.05-.073-6.036-.172v-7.53c1.512.071,3.032.118,4.551.145ZM697.289,303.1v-7.29c1.41.38,2.925.727,4.528,1.042v7.367l-.559-.118c-.8-.177-1.586-.361-2.335-.555C698.353,303.4,697.811,303.252,697.289,303.1Zm35.2,21.568q-1.7-.044-3.333-.125l-.175-.008V317c1.512.071,3.032.118,4.551.145l.239,0q.623.012,1.245.018V324.7c-.735-.008-1.476-.011-2.193-.028Zm20.638,6.894c1.6-.316,3.118-.663,4.528-1.043v7.291c-1.345.388-2.858.763-4.528,1.118Zm-7.546,8.64v-7.465q2.334-.281,4.528-.636v7.41Q747.977,339.888,745.582,340.2Zm-6.54.679q-.5.039-1.005.075v-7.526c1.53-.1,3.042-.222,4.527-.367v7.495c-.933.1-1.886.19-2.866.27C739.479,340.85,739.261,340.866,739.042,340.883Zm-29.68-8.144V340.2q-2.392-.315-4.527-.691V332.1Q707.027,332.458,709.362,332.739Zm3.8,7.9-.459-.047-.324-.035v-7.493c1.485.143,3,.266,4.527.367v7.52C715.641,340.863,714.388,340.761,713.164,340.642Zm3.744,9.024q2.227.216,4.528.367v7.526q-2.352-.165-4.528-.4Zm-7.546-.961q2.191.355,4.528.637v7.464q-2.393-.315-4.528-.691Zm-3.018-.54v7.366c-1.669-.355-3.183-.73-4.527-1.118v-7.291C703.226,347.5,704.741,347.851,706.344,348.165Zm51.312,0c1.6-.316,3.118-.663,4.527-1.043v7.291c-1.344.388-2.858.763-4.527,1.118Zm-7.546,1.175q2.334-.28,4.528-.636v7.41q-2.133.375-4.528.691Zm-3.018.326v7.5q-2.176.228-4.528.4v-7.526C744.094,349.932,745.607,349.81,747.092,349.666Zm-12.1.683c1.52-.029,3.04-.076,4.552-.145v7.535q-2.907.143-6.037.175V350.37q.623-.008,1.245-.018Zm-5.748,0q.623.012,1.245.018v7.545q-3.129-.03-6.037-.176V350.2c1.512.071,3.032.118,4.552.145Zm-31.811-12.5c-.049-.016-.1-.029-.146-.043v-7.29c1.41.38,2.925.727,4.528,1.042v7.367q-2.079-.443-3.828-.921C697.8,337.958,697.615,337.908,697.435,337.856Zm27.259,3.44q-1.036-.018-2.063-.049l-.254-.009q-1.233-.042-2.449-.1V333.6c1.512.071,3.032.117,4.552.145l.238,0q.622.012,1.245.018v7.543c-.293,0-.585,0-.877-.007C724.954,341.3,724.825,341.3,724.694,341.3Zm6.591-.021c-.221.006-.443.009-.664.014-.539.011-1.092.014-1.638.018v-7.538l1.245-.018.24-.005c1.52-.029,3.04-.075,4.552-.145v7.536q-.484.024-.975.045C733.136,341.223,732.219,341.253,731.285,341.275Zm33.754-7.013-.515.451a13.489,13.489,0,0,1-3.85,2.083v-7.2a22.418,22.418,0,0,0,4.528-2.076v6.245A.966.966,0,0,1,765.039,334.262Zm12.22-27.649c-.15-2.582-3.221-4.6-9.363-6.14a3.4,3.4,0,0,0,.324-1.412V288.5h-.026c-.54-8.8-36.582-9.055-40.722-9.055s-40.181.259-40.722,9.055h-.025v10.562c.007,2.868,3.708,5.112,9.213,6.783a3.373,3.373,0,0,0-.136.765h-.022v10.544c-5.931,1.528-8.894,3.517-9.04,6.057h-.015v10.562c0,2,1.805,3.69,4.751,5.1a3.332,3.332,0,0,0-.2.939h-.023v10.563c.012,5.019,11.315,8.136,23.872,9.59a1.328,1.328,0,0,0,.275.056c.029,0,.053-.015.082-.016,2.42.273,4.88.486,7.315.638a1.225,1.225,0,0,0,.149.03c.029,0,.051-.015.078-.016,3.091.187,6.132.282,8.977.282s5.886-.1,8.977-.284c.027,0,.051.017.078.017.053,0,.1-.026.149-.03,2.435-.153,4.9-.364,7.315-.639.029,0,.053.015.082.015a1.343,1.343,0,0,0,.275-.056c12.557-1.454,23.858-4.572,23.872-9.593V339.814h-.025c-.105-1.85-1.682-3.394-4.8-4.684a3.376,3.376,0,0,0,.294-1.358v-9.864c5.418-1.666,9.048-3.895,9.055-6.737V306.613Z" transform="translate(-554.829 -278.046)" fill="#20cc94"/>
  </g>
</svg>
